;TYPE=PLATED
;Layer: PTH_Through_Via
;EasyEDA Pro Client v2.2.43.4, 2026-03-29 18:07:11
;Gerber Generator version 0.3
M48
METRIC,LZ,0000.00000
;Hole size 1 = 0.30500 METRIC
T01C0.30500
%
G05
G90
T01
X21.59Y15.113
X11.049Y7.874
X9.271Y23.876
X19.177Y20.193
X20.90112Y75.49188
X21.49637Y75.02363
X16.637Y67.691
X17.30844Y68.31496
X17.907Y68.834
X16.129Y67.056
X21.62505Y74.28272
X22.225Y74.82563
X20.828Y76.327
X20.17747Y75.69639
X9.906Y66.929
X12.319Y70.739
X22.606Y70.485
X23.70675Y70.485
X24.85584Y70.485
X22.606Y68.46389
X23.749Y68.46389
X24.85719Y68.46389
X39.553Y42.28985
X27.3815Y56.92186
X33.02Y47.879
X23.368Y54.864
X16.51Y55.245
X30.607Y70.358
X30.607Y69.088
X49.403Y68.199
X50.165Y67.31
X53.594Y62.738
X54.2925Y60.8965
X55.118Y59.055
X54.737Y18.034
X54.991Y21.59
X53.975Y14.986
X41.42588Y64.29388
X42.82592Y62.89383
X40.02583Y62.89383
X39.83989Y65.69392
X42.82592Y65.69392
X35.306Y42.22252
X6.096Y37.973
X30.48Y51.181
X34.52258Y49.403
X35.814Y41.148
X33.655Y39.751
X6.096Y34.671
X6.096Y32.512
X25.297Y43.12036
X23.497Y46.72036
X21.197Y40.72036
X29.397Y41.32036
X29.397Y42.52036
X25.597Y38.97036
X21.097Y36.87036
X13.13396Y37.19309
X13.13396Y31.13316
X27.178Y71.12
X25.654Y72.771
X25.908Y64.77
X30.78582Y72.39
X48.387Y57.3699
X31.115Y60.325
X31.623Y59.309
X27.884Y51.943
X18.445Y38.862
X33.147Y30.226
X38.735Y56.388
X37.14Y57.277
X37.846Y55.82739
X39.5605Y52.5145
X39.116Y51.816
X23.24099Y16.06754
X16.71218Y15.113
X16.256Y20.15388
X39.99636Y11.811
X17.297Y39.42036
X17.297Y47.12036
X13.332Y57.17332
X13.15816Y52.47432
X15.21401Y46.69836
X19.13788Y70.612
X10.414Y72.644
X14.35101Y70.16954
X13.208Y66.167
X32.385Y55.626
X39.116Y45.212
X47.244Y56.642
X34.12791Y10.37891
X18.87118Y69.342
X32.258Y73.61555
X31.55125Y70.96912
X28.575Y63.119
X28.702Y63.881
X31.39532Y66.83251
X55.118Y62.992
X55.753Y63.754
X43.053Y3.429
X32.339Y65.405
X49.53Y27.90589
X58.80138Y29.28798
X58.80138Y26.33802
X58.21096Y44.958
X57.404Y45.974
X57.404Y43.71906
X59.055Y43.688
X59.055Y45.9211
X41.35069Y43.434
X52.79288Y39.38004
X41.783Y3.81
X57.15Y18.542
X57.15Y15.494
X57.15Y11.6652
X52.959Y41.656
X4.31762Y41.70502
X4.31762Y44.65498
X33.203Y49.68665
X36.068Y51.562
X30.226Y54.356
X36.44913Y12.72965
X38.989Y12.7
X36.29903Y15.04211
X33.02Y14.986
X40.83211Y21.58658
X40.005Y21.59
X25.781Y18.669
X26.50544Y18.669
X27.32933Y18.669
X29.44028Y19.11797
X28.73096Y19.11797
X28.73096Y18.3464
X29.46331Y18.3464
X17.94406Y74.79561
X17.28624Y74.79561
X18.61666Y74.79561
X27.432Y62.103
X25.4Y64.008
X24.384Y53.975
X25.4Y53.848
X27.559Y53.848
X18.034Y53.77036
X18.796Y60.579
X16.891Y64.389
X53.467Y67.818
X6.985Y46.22
X56.642Y25.781
X19.177Y15.24
X15.6845Y17.2085
X1.524Y17.018
X3.14519Y17.018
X3.14519Y14.97418
X1.54624Y14.97418
X4.80518Y14.97418
X4.80518Y17.01255
X13.10699Y11.65801
X4.1275Y24.8285
X23.39975Y22.32025
X33.89898Y23.19685
X33.18494Y23.19685
X26.20112Y75.057
X31.877Y72.263
X18.034Y78.56855
X17.18868Y78.56855
X18.85988Y78.56855
X29.845Y75.47712
X31.44623Y63.1284
X30.48Y66.929
X30.607Y68.199
X35.814Y68.453
X45.974Y21.971
X42.46982Y52.197
X46.182Y24.257
X41.529Y56.007
X43.053Y24.13
X44.831Y22.225
X45.45Y5.239
X52.959Y49.276
X28.52501Y67.02896
X28.88082Y68.199
X24.4475Y75.5015
X38.18788Y28.448
X40.005Y26.12288
X39.77691Y35.26104
X34.29Y46.482
X18.301Y51.5958
X36.65118Y30.226
X37.084Y27.051
X25.781Y31.242
X26.44377Y31.242
X27.10145Y31.242
X27.75912Y31.242
X32.258Y33.655
X14.98295Y9.525
X15.98568Y9.52475
X13.86253Y9.52475
X20.193Y23.749
X31.75Y7.62
X18.161Y49.32036
X8.89Y49.32036
X56.642Y66.802
X56.642Y62.357
X54.737Y71.247
X54.61Y69.088
X22.225Y73.787
X15.367Y64.897
X26.289Y60.198
X26.543Y56.261
X49.657Y50.038
M30