G04 Layer: BottomLayer*
G04 EasyEDA Pro v2.2.43.4, 2026-03-29 18:07:11*
G04 Gerber Generator version 0.3*
G04 Scale: 100 percent, Rotated: No, Reflected: No*
G04 Dimensions in millimeters*
G04 Leading zeros omitted, absolute positions, 4 integers and 5 decimals*
G04 Generated by one-click*
%FSLAX45Y45*%
%MOMM*%
%ADD10R,2.89999X3.59999*%
%ADD11C,1.6*%
%ADD12O,1.8X1.2*%
%ADD13O,2.0X1.2*%
%ADD14C,3.2004*%
%ADD15C,0.61*%
%ADD16C,0.6*%
%ADD17C,0.4*%
%ADD18C,0.254*%
%ADD19C,0.5084*%
%ADD20C,0.5*%
%ADD21C,0.2908*%
%ADD22C,0.8*%
G75*


G04 Pad Start*
G54D10*
G01X5821096Y4495800D03*
G01X2891104Y4495800D03*
G54D11*
G01X2567000Y203200D03*
G01X2767000Y203200D03*
G01X1792300Y203200D03*
G01X1992300Y203200D03*
G01X3316300Y203200D03*
G01X3516300Y203200D03*
G01X4203700Y736600D03*
G01X4403700Y736600D03*
G01X4003700Y736600D03*
G54D12*
G01X336791Y6400089D03*
G54D13*
G01X754774Y6400089D03*
G01X754774Y7265111D03*
G54D12*
G01X336791Y7265111D03*
G54D14*
G01X287689Y292565D03*
G01X5759450Y285750D03*
G01X5772150Y7702550D03*
G01X285750Y7715250D03*
G54D11*
G01X5054600Y736600D03*
G01X5254600Y736600D03*
G01X4854600Y736600D03*
G01X5054600Y215900D03*
G01X5254600Y215900D03*
G01X4854600Y215900D03*
G01X5869000Y3619500D03*
G01X5869000Y3819500D03*
G01X4203700Y203200D03*
G01X4403700Y203200D03*
G01X4003700Y203200D03*
G04 Pad End*

G04 Via Start*
G54D15*
G01X2159000Y1511300D03*
G54D16*
G01X1104900Y787400D03*
G01X927100Y2387600D03*
G01X1917700Y2019300D03*
G01X2090112Y7549188D03*
G01X2149637Y7502363D03*
G01X1663700Y6769100D03*
G01X1730844Y6831496D03*
G01X1790700Y6883400D03*
G01X1612900Y6705600D03*
G01X2162505Y7428272D03*
G01X2222500Y7482563D03*
G01X2082800Y7632700D03*
G01X2017747Y7569639D03*
G01X990600Y6692900D03*
G01X1231900Y7073900D03*
G01X2260600Y7048500D03*
G01X2370675Y7048500D03*
G01X2485584Y7048500D03*
G01X2260600Y6846389D03*
G01X2374900Y6846389D03*
G01X2485719Y6846389D03*
G01X3955300Y4228985D03*
G01X2738150Y5692186D03*
G01X3302000Y4787900D03*
G01X2336800Y5486400D03*
G01X1651000Y5524500D03*
G01X3060700Y7035800D03*
G01X3060700Y6908800D03*
G01X4940300Y6819900D03*
G01X5016500Y6731000D03*
G01X5359400Y6273800D03*
G01X5429250Y6089650D03*
G01X5511800Y5905500D03*
G01X5473700Y1803400D03*
G01X5499100Y2159000D03*
G01X5397500Y1498600D03*
G01X4142588Y6429388D03*
G01X4282592Y6289383D03*
G01X4002583Y6289383D03*
G01X3983989Y6569393D03*
G01X4282592Y6569393D03*
G01X3530600Y4222252D03*
G01X609600Y3797300D03*
G01X3048000Y5118100D03*
G01X3452258Y4940300D03*
G01X3581400Y4114800D03*
G01X3365500Y3975100D03*
G01X609600Y3467100D03*
G01X609600Y3251200D03*
G01X2529700Y4312036D03*
G01X2349700Y4672036D03*
G01X2119700Y4072036D03*
G01X2939700Y4132036D03*
G01X2939700Y4252036D03*
G01X2559700Y3897036D03*
G01X2109700Y3687036D03*
G01X1313396Y3719309D03*
G01X1313396Y3113316D03*
G01X2717800Y7112000D03*
G01X2565400Y7277100D03*
G01X2590800Y6477000D03*
G01X3078582Y7239000D03*
G01X4838700Y5736990D03*
G01X3111500Y6032500D03*
G01X3162300Y5930900D03*
G01X2788400Y5194300D03*
G01X1844500Y3886200D03*
G01X3314700Y3022600D03*
G01X3873500Y5638800D03*
G01X3714000Y5727700D03*
G01X3784600Y5582739D03*
G01X3956050Y5251450D03*
G01X3911600Y5181600D03*
G01X2324099Y1606754D03*
G01X1671218Y1511300D03*
G01X1625600Y2015388D03*
G01X3999636Y1181100D03*
G01X1729700Y3942036D03*
G01X1729700Y4712036D03*
G01X1333200Y5717332D03*
G01X1315816Y5247432D03*
G01X1521401Y4669836D03*
G01X1913788Y7061200D03*
G01X1041400Y7264400D03*
G01X1435101Y7016954D03*
G01X1320800Y6616700D03*
G01X3238500Y5562600D03*
G01X3911600Y4521200D03*
G01X4724400Y5664200D03*
G01X3412791Y1037891D03*
G01X1887118Y6934200D03*
G01X3225800Y7361555D03*
G01X3155125Y7096912D03*
G01X2857500Y6311900D03*
G01X2870200Y6388100D03*
G01X3139532Y6683251D03*
G01X5511800Y6299200D03*
G01X5575300Y6375400D03*
G01X4305300Y342900D03*
G01X3233900Y6540500D03*
G01X4953000Y2790589D03*
G01X5880138Y2928798D03*
G01X5880138Y2633802D03*
G01X5821096Y4495800D03*
G01X5740400Y4597400D03*
G01X5740400Y4371906D03*
G01X5905500Y4368800D03*
G01X5905500Y4592110D03*
G01X4135069Y4343400D03*
G01X5279288Y3938004D03*
G01X4178300Y381000D03*
G01X5715000Y1854200D03*
G01X5715000Y1549400D03*
G01X5715000Y1166520D03*
G01X5295900Y4165600D03*
G01X431762Y4170502D03*
G01X431762Y4465498D03*
G01X3320300Y4968665D03*
G01X3606800Y5156200D03*
G01X3022600Y5435600D03*
G01X3644913Y1272965D03*
G01X3898900Y1270000D03*
G01X3629903Y1504211D03*
G01X3302000Y1498600D03*
G01X4083211Y2158658D03*
G01X4000500Y2159000D03*
G01X2578100Y1866900D03*
G01X2650544Y1866900D03*
G01X2732933Y1866900D03*
G01X2944028Y1911797D03*
G01X2873096Y1911797D03*
G01X2873096Y1834640D03*
G01X2946331Y1834640D03*
G01X1794406Y7479561D03*
G01X1728624Y7479561D03*
G01X1861666Y7479561D03*
G01X2743200Y6210300D03*
G01X2540000Y6400800D03*
G01X2438400Y5397500D03*
G01X2540000Y5384800D03*
G01X2755900Y5384800D03*
G01X1803400Y5377036D03*
G01X1879600Y6057900D03*
G01X1689100Y6438900D03*
G01X5346700Y6781800D03*
G01X698500Y4622000D03*
G01X5664200Y2578100D03*
G01X1917700Y1524000D03*
G01X1568450Y1720850D03*
G01X152400Y1701800D03*
G01X314519Y1701800D03*
G01X314519Y1497418D03*
G01X154624Y1497418D03*
G01X480518Y1497418D03*
G01X480518Y1701255D03*
G01X1310699Y1165801D03*
G01X412750Y2482850D03*
G01X2339975Y2232025D03*
G01X3389898Y2319685D03*
G01X3318494Y2319685D03*
G01X2620112Y7505700D03*
G01X3187700Y7226300D03*
G01X1803400Y7856855D03*
G01X1718868Y7856855D03*
G01X1885988Y7856855D03*
G01X2984500Y7547712D03*
G01X3144623Y6312840D03*
G01X3048000Y6692900D03*
G01X3060700Y6819900D03*
G01X3581400Y6845300D03*
G01X4597400Y2197100D03*
G01X4246982Y5219700D03*
G01X4618200Y2425700D03*
G01X4152900Y5600700D03*
G01X4305300Y2413000D03*
G01X4483100Y2222500D03*
G01X4545000Y523900D03*
G01X5295900Y4927600D03*
G01X2852501Y6702896D03*
G01X2888082Y6819900D03*
G01X2444750Y7550150D03*
G01X3818788Y2844800D03*
G01X4000500Y2612288D03*
G01X3977691Y3526104D03*
G01X3429000Y4648200D03*
G01X1830100Y5159580D03*
G01X3665118Y3022600D03*
G01X3708400Y2705100D03*
G01X2578100Y3124200D03*
G01X2644377Y3124200D03*
G01X2710145Y3124200D03*
G01X2775912Y3124200D03*
G01X3225800Y3365500D03*
G01X1498295Y952500D03*
G01X1598568Y952475D03*
G01X1386253Y952475D03*
G01X2019300Y2374900D03*
G01X3175000Y762000D03*
G01X1816100Y4932036D03*
G01X889000Y4932036D03*
G01X5664200Y6680200D03*
G01X5664200Y6235700D03*
G01X5473700Y7124700D03*
G01X5461000Y6908800D03*
G01X2222500Y7378700D03*
G01X1536700Y6489700D03*
G01X2628900Y6019800D03*
G01X2654300Y5626100D03*
G01X4965700Y5003800D03*
G04 Via End*

G04 Track Start*
G54D17*
G01X1727200Y2019300D02*
G01X1917700Y2019300D01*
G54D18*
G01X990600Y6692900D02*
G01X1231900Y6934200D01*
G01X1231900Y7073900D01*
G01X3060700Y7035800D02*
G01X4864100Y7035800D01*
G01X5016500Y6883400D01*
G01X5016500Y6731000D01*
G01X3060700Y6908800D02*
G01X4851400Y6908800D01*
G01X4940300Y6819900D01*
G01X5359400Y6273800D02*
G01X5359400Y1536700D01*
G01X5397500Y1498600D01*
G01X5429250Y6089650D02*
G01X5429250Y1847850D01*
G01X5473700Y1803400D01*
G01X5511800Y5905500D02*
G01X5499100Y5892800D01*
G01X5499100Y2159000D01*
G01X3048000Y5118100D02*
G01X3274458Y5118100D01*
G01X3452258Y4940300D01*
G01X3530600Y4222252D02*
G01X3105648Y3797300D01*
G01X609600Y3797300D01*
G01X3365500Y3975100D02*
G01X2857500Y3467100D01*
G01X609600Y3467100D01*
G01X2717800Y3251200D02*
G01X609600Y3251200D01*
G01X3581400Y4114800D02*
G01X3423400Y3956800D01*
G01X3423400Y3951117D01*
G01X3389483Y3917200D01*
G01X3383800Y3917200D01*
G01X2717800Y3251200D01*
G01X2672600Y7169900D02*
G01X2741783Y7169900D01*
G01X2565400Y7277100D02*
G01X2672600Y7169900D01*
G01X2743200Y7086600D02*
G01X2743200Y6578600D01*
G01X2717800Y7112000D02*
G01X2743200Y7086600D01*
G01X2743200Y6578600D02*
G01X2641600Y6477000D01*
G01X2590800Y6477000D01*
G54D20*
G01X2788400Y5194300D02*
G01X2775700Y5181600D01*
G01X2311400Y5181600D01*
G01X1841500Y4711700D01*
G01X1841500Y3889200D01*
G01X1844500Y3886200D01*
G54D18*
G01X3911600Y5181600D02*
G01X3714000Y5379200D01*
G01X3714000Y5727700D01*
G01X3956050Y5251450D02*
G01X3898900Y5308600D01*
G01X3898900Y5468439D01*
G01X3784600Y5582739D01*
G54D21*
G01X1663700Y6769100D02*
G01X1618945Y6813855D01*
G01X1582422Y6883809D02*
G01X1582422Y6953818D01*
G01X2008835Y7380230D01*
G01X2008835Y7446075D01*
G01X2045358Y7504433D02*
G01X2090112Y7549188D01*
G01X1618945Y6813855D02*
G01X1618945Y6847286D01*
G01X2045358Y7482597D02*
G01X2045358Y7504433D01*
G01X1618945Y6847286D02*
G01X1582422Y6883809D01*
G01X2008835Y7446075D02*
G01X2045358Y7482597D01*
G01X2149637Y7502363D02*
G01X2104882Y7457608D01*
G01X2083046Y7457608D01*
G01X2053155Y7427717D01*
G01X2053155Y7361872D01*
G01X2019319Y7328036D01*
G01X2019319Y7298956D01*
G01X2095874Y7222401D01*
G01X2095874Y7193321D01*
G01X2054243Y7151690D01*
G01X2025163Y7151690D01*
G01X1948608Y7228245D01*
G01X1919528Y7228245D01*
G01X1626742Y6935460D02*
G01X1626742Y6902167D01*
G01X1652658Y6876250D01*
G01X1686090Y6876250D01*
G01X1730844Y6831496D01*
G01X1919528Y7228245D02*
G01X1626742Y6935460D01*
G54D18*
G01X5511800Y6299200D02*
G01X5511800Y5987383D01*
G01X5569700Y5929483D01*
G01X5569700Y1817517D01*
G01X5511800Y1759617D01*
G01X5575300Y5974229D02*
G01X5575300Y6375400D01*
G01X5605300Y5944229D02*
G01X5575300Y5974229D01*
G01X5605300Y1802771D02*
G01X5605300Y5944229D01*
G01X5575300Y1772771D02*
G01X5605300Y1802771D01*
G54D20*
G01X2159000Y1511300D02*
G01X2159000Y1295400D01*
G01X1651000Y787400D01*
G01X1104900Y787400D01*
G54D18*
G01X3162300Y5930900D02*
G01X2946400Y5930900D01*
G01X2540000Y6337300D02*
G01X2540000Y6400800D01*
G01X2724900Y6152400D02*
G01X2719217Y6152400D01*
G01X2685300Y6186317D01*
G01X2685300Y6192000D01*
G01X2540000Y6337300D01*
G01X2946400Y5930900D02*
G01X2724900Y6152400D01*
G01X2336800Y5486400D02*
G01X1689100Y5486400D01*
G01X1651000Y5524500D01*
G01X2438400Y5397500D02*
G01X2438400Y5905500D01*
G01X2540000Y5384800D02*
G01X2540000Y5905500D01*
G01X2057400Y6388100D01*
G01X1739900Y6388100D01*
G01X1689100Y6438900D01*
G01X2755900Y5384800D02*
G01X2654300Y5384800D01*
G01X2590800Y5321300D01*
G01X2438400Y5905500D02*
G01X2286000Y6057900D01*
G01X1879600Y6057900D01*
G01X2590800Y5321300D02*
G01X1854200Y5321300D01*
G01X1803400Y5372100D01*
G01X1803400Y5384800D01*
G01X3302000Y4775200D02*
G01X2964700Y5112500D01*
G01X2964700Y5462417D01*
G01X2738150Y5688967D01*
G01X2738150Y5692186D01*
G01X3238500Y5562600D02*
G01X3238500Y5524500D01*
G01X3548900Y5214100D01*
G01X3548900Y5132217D01*
G54D20*
G01X3955300Y4228985D02*
G01X3688485Y4495800D01*
G01X2891104Y4495800D01*
G54D18*
G01X3218112Y1114088D02*
G01X3218112Y3074229D01*
G01X4013200Y4965700D02*
G01X3582901Y5395999D01*
G01X3582901Y5676899D01*
G01X3548900Y5132217D02*
G01X3911600Y4769517D01*
G01X3911600Y4521200D01*
G01X3582901Y5676899D02*
G01X3276600Y5983200D01*
G01X4282592Y6569393D02*
G01X5172393Y6569393D01*
G01X4013200Y3869317D02*
G01X4013200Y4965700D01*
G01X3218112Y3074229D02*
G01X4013200Y3869317D01*
G54D20*
G01X1917700Y1524000D02*
G01X1765300Y1524000D01*
G01X1568450Y1720850D01*
G54D17*
G01X927100Y2387600D02*
G01X1358900Y2387600D01*
G01X1727200Y2019300D01*
G54D22*
G01X1310699Y1165801D02*
G01X1310699Y1229301D01*
G01X1054100Y1485900D01*
G01X1054100Y1841500D01*
G01X412750Y2482850D01*
G01X1310699Y1165801D02*
G01X1800801Y1165801D01*
G01X2038350Y1403350D02*
G01X2038350Y1930400D01*
G01X2339975Y2232025D01*
G01X1800801Y1165801D02*
G01X2038350Y1403350D01*
G54D18*
G01X5511800Y1759617D02*
G01X5511800Y800100D01*
G54D20*
G01X2565400Y7848600D02*
G01X1816100Y7848600D01*
G01X3187700Y7226300D02*
G01X3148782Y7265218D01*
G01X3148782Y7268078D01*
G01X3107660Y7309200D01*
G01X3104800Y7309200D01*
G01X2565400Y7848600D01*
G54D18*
G01X3276600Y5983200D02*
G01X3276600Y6497800D01*
G01X3233900Y6540500D01*
G01X3111500Y6032500D02*
G01X2921000Y6032500D01*
G01X2743200Y6210300D01*
G01X3144623Y6312840D02*
G01X3175000Y6343217D01*
G01X3048000Y6616700D02*
G01X3048000Y6692900D01*
G01X3175000Y6343217D02*
G01X3175000Y6489700D01*
G01X3048000Y6616700D01*
G01X3060700Y6819900D02*
G01X3556000Y6819900D01*
G01X3581400Y6845300D01*
G01X4597400Y2197100D02*
G01X4597400Y1028700D01*
G01X4592650Y1023950D01*
G01X4592650Y998550D01*
G01X4854600Y736600D01*
G01X4724400Y5664200D02*
G01X4724400Y2717964D01*
G01X3412791Y1406356D01*
G01X3412791Y1037891D01*
G01X4618200Y2425700D02*
G01X4618200Y2290600D01*
G01X5054600Y1854200D02*
G01X5054600Y736600D01*
G01X4618200Y2290600D02*
G01X5054600Y1854200D01*
G01X4076700Y5435600D02*
G01X3873500Y5638800D01*
G01X4076700Y3784600D02*
G01X4076700Y5435600D01*
G01X3314700Y3022600D02*
G01X4076700Y3784600D01*
G01X4152900Y5600700D02*
G01X4152900Y4622800D01*
G01X4191000Y4584700D01*
G01X4191000Y4369352D01*
G01X4192969Y4367383D01*
G01X4192969Y4319417D01*
G01X4191000Y4317448D01*
G01X4191000Y2527300D01*
G01X4305300Y2413000D01*
G01X4305300Y342900D02*
G01X5207000Y342900D01*
G01X5575300Y711200D01*
G01X5575300Y1772771D01*
G01X5511800Y800100D02*
G01X5130800Y419100D01*
G01X4216400Y419100D02*
G01X4178300Y381000D01*
G01X5130800Y419100D02*
G01X4216400Y419100D01*
G01X4545000Y523900D02*
G01X4545000Y2160600D01*
G01X4483100Y2222500D01*
G01X3067715Y7239000D02*
G01X3078582Y7239000D01*
G01X4321411Y5736990D02*
G01X3302001Y6756400D01*
G01X4838700Y5736990D02*
G01X4321411Y5736990D01*
G01X2946400Y7117683D02*
G01X3067715Y7239000D01*
G01X3302001Y6756400D02*
G01X3022600Y6756400D01*
G01X2946400Y6832600D01*
G01X2946400Y7117683D01*
G01X2741783Y7169900D02*
G01X2806700Y7104983D01*
G01X2806700Y6807200D01*
G01X2852501Y6761399D01*
G01X2852501Y6702896D01*
G01X2888082Y6819900D02*
G01X2857500Y6850482D01*
G01X2857500Y7137400D01*
G01X2444750Y7550150D01*
G01X3302000Y4787900D02*
G01X3302000Y4775200D01*
G54D20*
G01X3429000Y4648200D02*
G01X3289300Y4648200D01*
G01X2908300Y5029200D02*
G01X2908300Y5194300D01*
G01X2832100Y5270500D01*
G01X1943100Y5270500D01*
G01X1828800Y5156200D01*
G01X3289300Y4648200D02*
G01X2908300Y5029200D01*
G01X1816100Y4932036D02*
G01X889000Y4932036D01*
G54D18*
G01X5172393Y6569393D02*
G01X5346700Y6743700D01*
G01X5346700Y6781800D01*
G01X3516300Y203200D02*
G01X3516300Y815900D01*
G01X3218112Y1114088D01*
G04 Track End*

M02*

