G04 Layer: InnerLayer2*
G04 EasyEDA Pro v2.2.43.4, 2026-03-29 18:07:11*
G04 Gerber Generator version 0.3*
G04 Scale: 100 percent, Rotated: No, Reflected: No*
G04 Dimensions in millimeters*
G04 Leading zeros omitted, absolute positions, 4 integers and 5 decimals*
G04 Generated by one-click*
%FSLAX45Y45*%
%MOMM*%
%ADD10C,0.2032*%
%ADD11C,1.6*%
%ADD12O,1.8X1.2*%
%ADD13O,2.0X1.2*%
%ADD14C,3.2004*%
%ADD15C,0.61*%
%ADD16C,0.6070*%
%ADD17C,0.6*%
G75*


G04 Copper Start*
G36*
G01X4571091Y1445260D02*
G01X3659164Y1445260D01*
G01X3672524Y1454063D01*
G01X3683366Y1465830D01*
G01X3691048Y1479866D01*
G01X3695116Y1495340D01*
G01X3695329Y1511339D01*
G01X3691676Y1526916D01*
G01X3684372Y1541152D01*
G01X3673848Y1553204D01*
G01X3660727Y1562361D01*
G01X3645784Y1568080D01*
G01X3629903Y1570025D01*
G01X3614021Y1568080D01*
G01X3599078Y1562361D01*
G01X3585957Y1553204D01*
G01X3575433Y1541152D01*
G01X3568129Y1526916D01*
G01X3564476Y1511339D01*
G01X3564689Y1495340D01*
G01X3568757Y1479866D01*
G01X3576439Y1465830D01*
G01X3587281Y1454063D01*
G01X3600641Y1445260D01*
G01X3070860Y1445260D01*
G01X3070860Y2032000D01*
G01X3070087Y2035888D01*
G01X3067884Y2039184D01*
G01X2991684Y2115384D01*
G01X2988388Y2117587D01*
G01X2984500Y2118360D01*
G01X2607708Y2118360D01*
G01X2448560Y2277508D01*
G01X2448560Y2319685D01*
G01X3252680Y2319685D01*
G01X3254539Y2304153D01*
G01X3260011Y2289499D01*
G01X3268786Y2276550D01*
G01X3280370Y2266038D01*
G01X3294107Y2258556D01*
G01X3309222Y2254527D01*
G01X3324861Y2254180D01*
G01X3340140Y2257532D01*
G01X3354196Y2264396D01*
G01X3368252Y2257532D01*
G01X3383531Y2254180D01*
G01X3399170Y2254527D01*
G01X3414285Y2258556D01*
G01X3428022Y2266038D01*
G01X3439605Y2276550D01*
G01X3448381Y2289499D01*
G01X3453853Y2304153D01*
G01X3455712Y2319685D01*
G01X3453853Y2335217D01*
G01X3448381Y2349871D01*
G01X3439605Y2362820D01*
G01X3428022Y2373332D01*
G01X3414285Y2380814D01*
G01X3399170Y2384843D01*
G01X3383531Y2385190D01*
G01X3368252Y2381838D01*
G01X3354196Y2374974D01*
G01X3340140Y2381838D01*
G01X3324861Y2385190D01*
G01X3309222Y2384843D01*
G01X3294107Y2380814D01*
G01X3280370Y2373332D01*
G01X3268786Y2362820D01*
G01X3260011Y2349871D01*
G01X3254539Y2335217D01*
G01X3252680Y2319685D01*
G01X3252680Y2319685D01*
G01X2448560Y2319685D01*
G01X2448560Y3022600D01*
G01X3248886Y3022600D01*
G01X3250798Y3006850D01*
G01X3256425Y2992015D01*
G01X3265438Y2978957D01*
G01X3277313Y2968436D01*
G01X3291362Y2961063D01*
G01X3306767Y2957266D01*
G01X3322633Y2957266D01*
G01X3338038Y2961063D01*
G01X3352087Y2968436D01*
G01X3363962Y2978957D01*
G01X3372975Y2992015D01*
G01X3378602Y3006850D01*
G01X3380514Y3022600D01*
G01X3378602Y3038350D01*
G01X3372975Y3053185D01*
G01X3363962Y3066243D01*
G01X3352087Y3076764D01*
G01X3338038Y3084137D01*
G01X3322633Y3087934D01*
G01X3306767Y3087934D01*
G01X3291362Y3084137D01*
G01X3277313Y3076764D01*
G01X3265438Y3066243D01*
G01X3256425Y3053185D01*
G01X3250798Y3038350D01*
G01X3248886Y3022600D01*
G01X3248886Y3022600D01*
G01X2448560Y3022600D01*
G01X2448560Y3365500D01*
G01X3159986Y3365500D01*
G01X3161898Y3349750D01*
G01X3167525Y3334915D01*
G01X3176538Y3321857D01*
G01X3188413Y3311336D01*
G01X3202462Y3303963D01*
G01X3217867Y3300166D01*
G01X3233733Y3300166D01*
G01X3249138Y3303963D01*
G01X3263187Y3311336D01*
G01X3275062Y3321857D01*
G01X3284075Y3334915D01*
G01X3289702Y3349750D01*
G01X3291614Y3365500D01*
G01X3289702Y3381250D01*
G01X3284075Y3396085D01*
G01X3275062Y3409143D01*
G01X3263187Y3419664D01*
G01X3249138Y3427037D01*
G01X3233733Y3430834D01*
G01X3217867Y3430834D01*
G01X3202462Y3427037D01*
G01X3188413Y3419664D01*
G01X3176538Y3409143D01*
G01X3167525Y3396085D01*
G01X3161898Y3381250D01*
G01X3159986Y3365500D01*
G01X3159986Y3365500D01*
G01X2448560Y3365500D01*
G01X2448560Y3520440D01*
G01X3431540Y3520440D01*
G01X3431540Y2552700D01*
G01X3432313Y2548812D01*
G01X3434516Y2545516D01*
G01X3597933Y2382099D01*
G01X3601229Y2379896D01*
G01X3605117Y2379123D01*
G01X4248875Y2379123D01*
G01X4258034Y2367203D01*
G01X4269659Y2357672D01*
G01X4283143Y2351028D01*
G01X4297784Y2347617D01*
G01X4312816Y2347617D01*
G01X4327457Y2351028D01*
G01X4340941Y2357672D01*
G01X4352566Y2367203D01*
G01X4361725Y2379123D01*
G01X4463657Y2379123D01*
G01X4581753Y2261027D01*
G01X4568620Y2256288D01*
G01X4556782Y2248885D01*
G01X4546773Y2239152D01*
G01X4540912Y2253952D01*
G01X4531669Y2266913D01*
G01X4519585Y2277275D01*
G01X4505367Y2284433D01*
G01X4489845Y2287967D01*
G01X4473930Y2287672D01*
G01X4458550Y2283564D01*
G01X4444607Y2275883D01*
G01X4432916Y2265080D01*
G01X4424160Y2251785D01*
G01X4418853Y2236777D01*
G01X4417305Y2220934D01*
G01X4419605Y2205182D01*
G01X4425621Y2190444D01*
G01X4434998Y2177581D01*
G01X4447190Y2167346D01*
G01X4461483Y2160337D01*
G01X4477041Y2156966D01*
G01X4492953Y2157428D01*
G01X4508288Y2161697D01*
G01X4522150Y2169523D01*
G01X4533727Y2180448D01*
G01X4539527Y2165760D01*
G01X4548658Y2152876D01*
G01X4560596Y2142539D01*
G01X4574653Y2135342D01*
G01X4590019Y2131701D01*
G01X4605810Y2131826D01*
G01X4621117Y2135708D01*
G01X4635059Y2143125D01*
G01X4646832Y2153649D01*
G01X4655759Y2166675D01*
G01X4661327Y2181453D01*
G01X4688840Y2153940D01*
G01X4688840Y1515609D01*
G01X4593901Y1446170D01*
G01X4571091Y1445260D01*
G37*
G36*
G01X2334417Y3589738D02*
G01X2334417Y2297604D01*
G01X2319142Y2294455D01*
G01X2305037Y2287800D01*
G01X2292895Y2278013D01*
G01X2283395Y2265644D01*
G01X2277073Y2251387D01*
G01X2274284Y2236042D01*
G01X2275183Y2220472D01*
G01X2279720Y2205551D01*
G01X2287642Y2192116D01*
G01X2298501Y2180923D01*
G01X2311690Y2172599D01*
G01X2326467Y2167612D01*
G01X2342003Y2166242D01*
G01X2357425Y2168567D01*
G01X2508678Y2017313D01*
G01X2511974Y2015111D01*
G01X2515863Y2014337D01*
G01X2911594Y2014337D01*
G01X2936240Y1989692D01*
G01X2936240Y1396976D01*
G01X2937013Y1393088D01*
G01X2939216Y1389792D01*
G01X2991592Y1337416D01*
G01X2994889Y1335213D01*
G01X2998777Y1334440D01*
G01X3621410Y1334440D01*
G01X3607940Y1327412D01*
G01X3596440Y1317483D01*
G01X3587523Y1305182D01*
G01X3581665Y1291163D01*
G01X3579177Y1276175D01*
G01X3580193Y1261015D01*
G01X3584658Y1246493D01*
G01X3592334Y1233381D01*
G01X3602812Y1222379D01*
G01X3615533Y1214073D01*
G01X3629821Y1208905D01*
G01X3644913Y1207152D01*
G01X3660004Y1208905D01*
G01X3674292Y1214073D01*
G01X3687014Y1222379D01*
G01X3697492Y1233381D01*
G01X3705168Y1246493D01*
G01X3709633Y1261015D01*
G01X3710648Y1276175D01*
G01X3708161Y1291163D01*
G01X3702303Y1305182D01*
G01X3693386Y1317483D01*
G01X3681886Y1327412D01*
G01X3668415Y1334440D01*
G01X3680392Y1334440D01*
G01X3710940Y1303892D01*
G01X3710940Y35814D01*
G01X35814Y35814D01*
G01X35814Y292565D01*
G01X91855Y292565D01*
G01X91855Y292565D01*
G01X93849Y264695D01*
G01X99788Y237392D01*
G01X109552Y211212D01*
G01X122943Y186689D01*
G01X139688Y164321D01*
G01X159445Y144563D01*
G01X181813Y127819D01*
G01X206337Y114428D01*
G01X232516Y104663D01*
G01X259819Y98724D01*
G01X287689Y96731D01*
G01X315559Y98724D01*
G01X342862Y104663D01*
G01X369042Y114428D01*
G01X393565Y127819D01*
G01X415933Y144563D01*
G01X435691Y164321D01*
G01X452435Y186689D01*
G01X461451Y203200D01*
G01X1676486Y203200D01*
G01X1678498Y181710D01*
G01X1684461Y160967D01*
G01X1694170Y141691D01*
G01X1707287Y124551D01*
G01X1723357Y110142D01*
G01X1741822Y98966D01*
G01X1762039Y91410D01*
G01X1783307Y87736D01*
G01X1804888Y88072D01*
G01X1826032Y92407D01*
G01X1846004Y100590D01*
G01X1864111Y112337D01*
G01X1879724Y127239D01*
G01X1892300Y144780D01*
G01X1904876Y127239D01*
G01X1920489Y112337D01*
G01X1938596Y100590D01*
G01X1958568Y92407D01*
G01X1979712Y88072D01*
G01X2001293Y87736D01*
G01X2022561Y91410D01*
G01X2042778Y98966D01*
G01X2061243Y110142D01*
G01X2077313Y124551D01*
G01X2090430Y141691D01*
G01X2100139Y160967D01*
G01X2106102Y181710D01*
G01X2108114Y203200D01*
G01X2501986Y203200D01*
G01X2503998Y181710D01*
G01X2509961Y160967D01*
G01X2519670Y141691D01*
G01X2532787Y124551D01*
G01X2548857Y110142D01*
G01X2567322Y98966D01*
G01X2587539Y91410D01*
G01X2608807Y87736D01*
G01X2630388Y88072D01*
G01X2651532Y92407D01*
G01X2671504Y100590D01*
G01X2689611Y112337D01*
G01X2705224Y127239D01*
G01X2717800Y144780D01*
G01X2730376Y127239D01*
G01X2745989Y112337D01*
G01X2764096Y100590D01*
G01X2784068Y92407D01*
G01X2805212Y88072D01*
G01X2826793Y87736D01*
G01X2848061Y91410D01*
G01X2868278Y98966D01*
G01X2886743Y110142D01*
G01X2902813Y124551D01*
G01X2915930Y141691D01*
G01X2925639Y160967D01*
G01X2931602Y181710D01*
G01X2933614Y203200D01*
G01X3200486Y203200D01*
G01X3202498Y181710D01*
G01X3208461Y160967D01*
G01X3218170Y141691D01*
G01X3231287Y124551D01*
G01X3247357Y110142D01*
G01X3265822Y98966D01*
G01X3286039Y91410D01*
G01X3307307Y87736D01*
G01X3328888Y88072D01*
G01X3350032Y92407D01*
G01X3370004Y100590D01*
G01X3388111Y112337D01*
G01X3403724Y127239D01*
G01X3416300Y144780D01*
G01X3428876Y127239D01*
G01X3444489Y112337D01*
G01X3462596Y100590D01*
G01X3482568Y92407D01*
G01X3503712Y88072D01*
G01X3525293Y87736D01*
G01X3546561Y91410D01*
G01X3566778Y98966D01*
G01X3585243Y110142D01*
G01X3601313Y124551D01*
G01X3614430Y141691D01*
G01X3624139Y160967D01*
G01X3630102Y181710D01*
G01X3632114Y203200D01*
G01X3632114Y203200D01*
G01X3630102Y224690D01*
G01X3624139Y245433D01*
G01X3614430Y264709D01*
G01X3601313Y281849D01*
G01X3585243Y296258D01*
G01X3566778Y307434D01*
G01X3546561Y314990D01*
G01X3525293Y318664D01*
G01X3503712Y318328D01*
G01X3482568Y313993D01*
G01X3462596Y305810D01*
G01X3444489Y294063D01*
G01X3428876Y279161D01*
G01X3416300Y261620D01*
G01X3403724Y279161D01*
G01X3388111Y294063D01*
G01X3370004Y305810D01*
G01X3350032Y313993D01*
G01X3328888Y318328D01*
G01X3307307Y318664D01*
G01X3286039Y314990D01*
G01X3265822Y307434D01*
G01X3247357Y296258D01*
G01X3231287Y281849D01*
G01X3218170Y264709D01*
G01X3208461Y245433D01*
G01X3202498Y224690D01*
G01X3200486Y203200D01*
G01X2933614Y203200D01*
G01X2933614Y203200D01*
G01X2933614Y203200D01*
G01X2931602Y224690D01*
G01X2925639Y245433D01*
G01X2915930Y264709D01*
G01X2902813Y281849D01*
G01X2886743Y296258D01*
G01X2868278Y307434D01*
G01X2848061Y314990D01*
G01X2826793Y318664D01*
G01X2805212Y318328D01*
G01X2784068Y313993D01*
G01X2764096Y305810D01*
G01X2745989Y294063D01*
G01X2730376Y279161D01*
G01X2717800Y261620D01*
G01X2705224Y279161D01*
G01X2689611Y294063D01*
G01X2671504Y305810D01*
G01X2651532Y313993D01*
G01X2630388Y318328D01*
G01X2608807Y318664D01*
G01X2587539Y314990D01*
G01X2567322Y307434D01*
G01X2548857Y296258D01*
G01X2532787Y281849D01*
G01X2519670Y264709D01*
G01X2509961Y245433D01*
G01X2503998Y224690D01*
G01X2501986Y203200D01*
G01X2108114Y203200D01*
G01X2108114Y203200D01*
G01X2108114Y203200D01*
G01X2106102Y224690D01*
G01X2100139Y245433D01*
G01X2090430Y264709D01*
G01X2077313Y281849D01*
G01X2061243Y296258D01*
G01X2042778Y307434D01*
G01X2022561Y314990D01*
G01X2001293Y318664D01*
G01X1979712Y318328D01*
G01X1958568Y313993D01*
G01X1938596Y305810D01*
G01X1920489Y294063D01*
G01X1904876Y279161D01*
G01X1892300Y261620D01*
G01X1879724Y279161D01*
G01X1864111Y294063D01*
G01X1846004Y305810D01*
G01X1826032Y313993D01*
G01X1804888Y318328D01*
G01X1783307Y318664D01*
G01X1762039Y314990D01*
G01X1741822Y307434D01*
G01X1723357Y296258D01*
G01X1707287Y281849D01*
G01X1694170Y264709D01*
G01X1684461Y245433D01*
G01X1678498Y224690D01*
G01X1676486Y203200D01*
G01X461451Y203200D01*
G01X465826Y211212D01*
G01X475591Y237392D01*
G01X481530Y264695D01*
G01X483523Y292565D01*
G01X481530Y320435D01*
G01X475591Y347738D01*
G01X465826Y373917D01*
G01X452435Y398441D01*
G01X435691Y420809D01*
G01X415933Y440566D01*
G01X393565Y457311D01*
G01X369042Y470702D01*
G01X342862Y480466D01*
G01X315559Y486406D01*
G01X287689Y488399D01*
G01X259819Y486406D01*
G01X232516Y480466D01*
G01X206337Y470702D01*
G01X181813Y457311D01*
G01X159445Y440566D01*
G01X139688Y420809D01*
G01X122943Y398441D01*
G01X109552Y373917D01*
G01X99788Y347738D01*
G01X93849Y320435D01*
G01X91855Y292565D01*
G01X35814Y292565D01*
G01X35814Y787400D01*
G01X1039086Y787400D01*
G01X1040998Y771650D01*
G01X1046625Y756815D01*
G01X1055638Y743757D01*
G01X1067513Y733236D01*
G01X1081562Y725863D01*
G01X1096967Y722066D01*
G01X1112833Y722066D01*
G01X1128238Y725863D01*
G01X1142287Y733236D01*
G01X1154162Y743757D01*
G01X1163175Y756815D01*
G01X1165142Y762000D01*
G01X3109186Y762000D01*
G01X3111098Y746250D01*
G01X3116725Y731415D01*
G01X3125738Y718357D01*
G01X3137613Y707836D01*
G01X3151662Y700463D01*
G01X3167067Y696666D01*
G01X3182933Y696666D01*
G01X3198338Y700463D01*
G01X3212387Y707836D01*
G01X3224262Y718357D01*
G01X3233275Y731415D01*
G01X3238902Y746250D01*
G01X3240814Y762000D01*
G01X3238902Y777750D01*
G01X3233275Y792585D01*
G01X3224262Y805643D01*
G01X3212387Y816164D01*
G01X3198338Y823537D01*
G01X3182933Y827334D01*
G01X3167067Y827334D01*
G01X3151662Y823537D01*
G01X3137613Y816164D01*
G01X3125738Y805643D01*
G01X3116725Y792585D01*
G01X3111098Y777750D01*
G01X3109186Y762000D01*
G01X3109186Y762000D01*
G01X1165142Y762000D01*
G01X1168802Y771650D01*
G01X1170714Y787400D01*
G01X1168802Y803150D01*
G01X1163175Y817985D01*
G01X1154162Y831043D01*
G01X1142287Y841564D01*
G01X1128238Y848937D01*
G01X1112833Y852734D01*
G01X1096967Y852734D01*
G01X1081562Y848937D01*
G01X1067513Y841564D01*
G01X1055638Y831043D01*
G01X1046625Y817985D01*
G01X1040998Y803150D01*
G01X1039086Y787400D01*
G01X1039086Y787400D01*
G01X35814Y787400D01*
G01X35814Y952460D01*
G01X1320439Y952460D01*
G01X1322257Y937112D01*
G01X1327604Y922612D01*
G01X1336185Y909758D01*
G01X1347528Y899260D01*
G01X1361005Y891696D01*
G01X1375875Y887484D01*
G01X1391317Y886856D01*
G01X1406480Y889846D01*
G01X1420527Y896290D01*
G01X1432685Y905832D01*
G01X1442282Y917946D01*
G01X1451890Y905831D01*
G01X1464059Y896292D01*
G01X1478118Y889855D01*
G01X1493291Y886877D01*
G01X1508740Y887520D01*
G01X1523612Y891750D01*
G01X1537087Y899334D01*
G01X1548421Y909852D01*
G01X1560187Y899011D01*
G01X1574220Y891330D01*
G01X1589693Y887262D01*
G01X1605690Y887047D01*
G01X1621266Y890698D01*
G01X1635501Y898000D01*
G01X1647553Y908521D01*
G01X1656711Y921639D01*
G01X1662434Y936579D01*
G01X1664382Y952458D01*
G01X1662442Y968338D01*
G01X1656727Y983281D01*
G01X1647576Y996404D01*
G01X1635528Y1006930D01*
G01X1621297Y1014239D01*
G01X1605723Y1017898D01*
G01X1589726Y1017692D01*
G01X1574251Y1013632D01*
G01X1560214Y1005957D01*
G01X1548443Y995123D01*
G01X1537108Y1005651D01*
G01X1523628Y1013243D01*
G01X1508749Y1017478D01*
G01X1493292Y1018124D01*
G01X1478112Y1015143D01*
G01X1464047Y1008701D01*
G01X1451874Y999154D01*
G01X1442266Y987029D01*
G01X1442266Y987029D01*
G01X1432664Y999139D01*
G01X1420502Y1008675D01*
G01X1406452Y1015112D01*
G01X1391287Y1018096D01*
G01X1375846Y1017460D01*
G01X1360978Y1013242D01*
G01X1347503Y1005672D01*
G01X1336166Y995169D01*
G01X1327591Y982311D01*
G01X1322250Y967808D01*
G01X1320439Y952460D01*
G01X35814Y952460D01*
G01X35814Y1037891D01*
G01X3346978Y1037891D01*
G01X3348890Y1022141D01*
G01X3354516Y1007306D01*
G01X3363529Y994249D01*
G01X3375405Y983728D01*
G01X3389454Y976354D01*
G01X3404859Y972557D01*
G01X3420724Y972557D01*
G01X3436129Y976354D01*
G01X3450178Y983728D01*
G01X3462054Y994249D01*
G01X3471067Y1007306D01*
G01X3476693Y1022141D01*
G01X3478605Y1037891D01*
G01X3476693Y1053642D01*
G01X3471067Y1068477D01*
G01X3462054Y1081534D01*
G01X3450178Y1092055D01*
G01X3436129Y1099429D01*
G01X3420724Y1103226D01*
G01X3404859Y1103226D01*
G01X3389454Y1099429D01*
G01X3375405Y1092055D01*
G01X3363529Y1081534D01*
G01X3354516Y1068477D01*
G01X3348890Y1053642D01*
G01X3346978Y1037891D01*
G01X3346978Y1037891D01*
G01X35814Y1037891D01*
G01X35814Y1165801D01*
G01X1244885Y1165801D01*
G01X1246797Y1150051D01*
G01X1252423Y1135216D01*
G01X1261436Y1122159D01*
G01X1273312Y1111638D01*
G01X1287361Y1104264D01*
G01X1302766Y1100467D01*
G01X1318632Y1100467D01*
G01X1334037Y1104264D01*
G01X1348085Y1111638D01*
G01X1359961Y1122159D01*
G01X1368974Y1135216D01*
G01X1374600Y1150051D01*
G01X1376513Y1165801D01*
G01X1374600Y1181552D01*
G01X1368974Y1196387D01*
G01X1359961Y1209444D01*
G01X1348085Y1219965D01*
G01X1334037Y1227338D01*
G01X1318632Y1231135D01*
G01X1302766Y1231135D01*
G01X1287361Y1227338D01*
G01X1273312Y1219965D01*
G01X1261436Y1209444D01*
G01X1252423Y1196387D01*
G01X1246797Y1181552D01*
G01X1244885Y1165801D01*
G01X1244885Y1165801D01*
G01X35814Y1165801D01*
G01X35814Y1497418D01*
G01X88810Y1497418D01*
G01X90722Y1481668D01*
G01X96348Y1466833D01*
G01X105361Y1453776D01*
G01X117237Y1443255D01*
G01X131286Y1435881D01*
G01X146691Y1432084D01*
G01X162557Y1432084D01*
G01X177961Y1435881D01*
G01X192010Y1443255D01*
G01X203886Y1453776D01*
G01X212899Y1466833D01*
G01X218525Y1481668D01*
G01X220437Y1497418D01*
G01X248705Y1497418D01*
G01X250618Y1481668D01*
G01X256244Y1466833D01*
G01X265257Y1453776D01*
G01X277132Y1443255D01*
G01X291181Y1435881D01*
G01X306586Y1432084D01*
G01X322452Y1432084D01*
G01X337857Y1435881D01*
G01X351906Y1443255D01*
G01X363781Y1453776D01*
G01X372794Y1466833D01*
G01X378421Y1481668D01*
G01X380333Y1497418D01*
G01X414704Y1497418D01*
G01X416616Y1481668D01*
G01X422242Y1466833D01*
G01X431255Y1453776D01*
G01X443131Y1443255D01*
G01X457180Y1435881D01*
G01X472585Y1432084D01*
G01X488451Y1432084D01*
G01X503856Y1435881D01*
G01X517904Y1443255D01*
G01X529780Y1453776D01*
G01X538793Y1466833D01*
G01X544419Y1481668D01*
G01X546332Y1497418D01*
G01X544646Y1511300D01*
G01X1605404Y1511300D01*
G01X1607317Y1495550D01*
G01X1612943Y1480715D01*
G01X1621956Y1467657D01*
G01X1633832Y1457136D01*
G01X1647880Y1449763D01*
G01X1663285Y1445966D01*
G01X1679151Y1445966D01*
G01X1694556Y1449763D01*
G01X1708605Y1457136D01*
G01X1720481Y1467657D01*
G01X1729494Y1480715D01*
G01X1735120Y1495550D01*
G01X1737032Y1511300D01*
G01X1735490Y1524000D01*
G01X1851886Y1524000D01*
G01X1853798Y1508250D01*
G01X1859425Y1493415D01*
G01X1868438Y1480357D01*
G01X1880313Y1469836D01*
G01X1894362Y1462463D01*
G01X1909767Y1458666D01*
G01X1925633Y1458666D01*
G01X1941038Y1462463D01*
G01X1955087Y1469836D01*
G01X1966962Y1480357D01*
G01X1975975Y1493415D01*
G01X1981602Y1508250D01*
G01X1981972Y1511300D01*
G01X2092686Y1511300D01*
G01X2094613Y1495430D01*
G01X2100282Y1480482D01*
G01X2109363Y1467326D01*
G01X2121329Y1456725D01*
G01X2135485Y1449295D01*
G01X2151007Y1445469D01*
G01X2166993Y1445469D01*
G01X2182515Y1449295D01*
G01X2196671Y1456725D01*
G01X2208637Y1467326D01*
G01X2217718Y1480482D01*
G01X2223387Y1495430D01*
G01X2225314Y1511300D01*
G01X2223387Y1527170D01*
G01X2217718Y1542118D01*
G01X2208637Y1555274D01*
G01X2196671Y1565875D01*
G01X2182515Y1573305D01*
G01X2166993Y1577131D01*
G01X2151007Y1577131D01*
G01X2135485Y1573305D01*
G01X2121329Y1565875D01*
G01X2109363Y1555274D01*
G01X2100282Y1542118D01*
G01X2094613Y1527170D01*
G01X2092686Y1511300D01*
G01X2092686Y1511300D01*
G01X1981972Y1511300D01*
G01X1983514Y1524000D01*
G01X1981602Y1539750D01*
G01X1975975Y1554585D01*
G01X1966962Y1567643D01*
G01X1955087Y1578164D01*
G01X1941038Y1585537D01*
G01X1925633Y1589334D01*
G01X1909767Y1589334D01*
G01X1894362Y1585537D01*
G01X1880313Y1578164D01*
G01X1868438Y1567643D01*
G01X1859425Y1554585D01*
G01X1853798Y1539750D01*
G01X1851886Y1524000D01*
G01X1851886Y1524000D01*
G01X1735490Y1524000D01*
G01X1735120Y1527050D01*
G01X1729494Y1541885D01*
G01X1720481Y1554943D01*
G01X1708605Y1565464D01*
G01X1694556Y1572837D01*
G01X1679151Y1576634D01*
G01X1663285Y1576634D01*
G01X1647880Y1572837D01*
G01X1633832Y1565464D01*
G01X1621956Y1554943D01*
G01X1612943Y1541885D01*
G01X1607317Y1527050D01*
G01X1605404Y1511300D01*
G01X1605404Y1511300D01*
G01X544646Y1511300D01*
G01X544419Y1513169D01*
G01X538793Y1528004D01*
G01X529780Y1541061D01*
G01X517904Y1551582D01*
G01X503856Y1558955D01*
G01X488451Y1562752D01*
G01X472585Y1562752D01*
G01X457180Y1558955D01*
G01X443131Y1551582D01*
G01X431255Y1541061D01*
G01X422242Y1528004D01*
G01X416616Y1513169D01*
G01X414704Y1497418D01*
G01X414704Y1497418D01*
G01X380333Y1497418D01*
G01X380333Y1497418D01*
G01X378421Y1513169D01*
G01X372794Y1528004D01*
G01X363781Y1541061D01*
G01X351906Y1551582D01*
G01X337857Y1558955D01*
G01X322452Y1562752D01*
G01X306586Y1562752D01*
G01X291181Y1558955D01*
G01X277132Y1551582D01*
G01X265257Y1541061D01*
G01X256244Y1528004D01*
G01X250618Y1513169D01*
G01X248705Y1497418D01*
G01X248705Y1497418D01*
G01X220437Y1497418D01*
G01X220437Y1497418D01*
G01X218525Y1513169D01*
G01X212899Y1528004D01*
G01X203886Y1541061D01*
G01X192010Y1551582D01*
G01X177961Y1558955D01*
G01X162557Y1562752D01*
G01X146691Y1562752D01*
G01X131286Y1558955D01*
G01X117237Y1551582D01*
G01X105361Y1541061D01*
G01X96348Y1528004D01*
G01X90722Y1513169D01*
G01X88810Y1497418D01*
G01X88810Y1497418D01*
G01X35814Y1497418D01*
G01X35814Y1606754D01*
G01X2258285Y1606754D01*
G01X2260197Y1591004D01*
G01X2265823Y1576169D01*
G01X2274836Y1563112D01*
G01X2286712Y1552591D01*
G01X2300761Y1545217D01*
G01X2316166Y1541420D01*
G01X2332032Y1541420D01*
G01X2347437Y1545217D01*
G01X2361485Y1552591D01*
G01X2373361Y1563112D01*
G01X2382374Y1576169D01*
G01X2388000Y1591004D01*
G01X2389913Y1606754D01*
G01X2388000Y1622505D01*
G01X2382374Y1637340D01*
G01X2373361Y1650397D01*
G01X2361485Y1660918D01*
G01X2347437Y1668292D01*
G01X2332032Y1672089D01*
G01X2316166Y1672089D01*
G01X2300761Y1668292D01*
G01X2286712Y1660918D01*
G01X2274836Y1650397D01*
G01X2265823Y1637340D01*
G01X2260197Y1622505D01*
G01X2258285Y1606754D01*
G01X2258285Y1606754D01*
G01X35814Y1606754D01*
G01X35814Y1701800D01*
G01X86586Y1701800D01*
G01X88498Y1686050D01*
G01X94125Y1671215D01*
G01X103138Y1658157D01*
G01X115013Y1647636D01*
G01X129062Y1640263D01*
G01X144467Y1636466D01*
G01X160333Y1636466D01*
G01X175738Y1640263D01*
G01X189787Y1647636D01*
G01X201662Y1658157D01*
G01X210675Y1671215D01*
G01X216302Y1686050D01*
G01X218214Y1701800D01*
G01X248705Y1701800D01*
G01X250618Y1686050D01*
G01X256244Y1671215D01*
G01X265257Y1658157D01*
G01X277132Y1647636D01*
G01X291181Y1640263D01*
G01X306586Y1636466D01*
G01X322452Y1636466D01*
G01X337857Y1640263D01*
G01X351906Y1647636D01*
G01X363781Y1658157D01*
G01X372794Y1671215D01*
G01X378421Y1686050D01*
G01X380267Y1701255D01*
G01X414704Y1701255D01*
G01X416616Y1685504D01*
G01X422242Y1670669D01*
G01X431255Y1657612D01*
G01X443131Y1647091D01*
G01X457180Y1639718D01*
G01X472585Y1635921D01*
G01X488451Y1635921D01*
G01X503856Y1639718D01*
G01X517904Y1647091D01*
G01X529780Y1657612D01*
G01X538793Y1670669D01*
G01X544419Y1685504D01*
G01X546332Y1701255D01*
G01X544419Y1717005D01*
G01X542961Y1720850D01*
G01X1502636Y1720850D01*
G01X1504548Y1705100D01*
G01X1510175Y1690265D01*
G01X1519188Y1677207D01*
G01X1531063Y1666686D01*
G01X1545112Y1659313D01*
G01X1560517Y1655516D01*
G01X1576383Y1655516D01*
G01X1591788Y1659313D01*
G01X1605837Y1666686D01*
G01X1617712Y1677207D01*
G01X1626725Y1690265D01*
G01X1632352Y1705100D01*
G01X1634264Y1720850D01*
G01X1632352Y1736600D01*
G01X1626725Y1751435D01*
G01X1617712Y1764493D01*
G01X1605837Y1775014D01*
G01X1591788Y1782387D01*
G01X1576383Y1786184D01*
G01X1560517Y1786184D01*
G01X1545112Y1782387D01*
G01X1531063Y1775014D01*
G01X1519188Y1764493D01*
G01X1510175Y1751435D01*
G01X1504548Y1736600D01*
G01X1502636Y1720850D01*
G01X1502636Y1720850D01*
G01X542961Y1720850D01*
G01X538793Y1731840D01*
G01X529780Y1744897D01*
G01X517904Y1755418D01*
G01X503856Y1762792D01*
G01X488451Y1766589D01*
G01X472585Y1766589D01*
G01X457180Y1762792D01*
G01X443131Y1755418D01*
G01X431255Y1744897D01*
G01X422242Y1731840D01*
G01X416616Y1717005D01*
G01X414704Y1701255D01*
G01X414704Y1701255D01*
G01X380267Y1701255D01*
G01X380333Y1701800D01*
G01X378421Y1717550D01*
G01X372794Y1732385D01*
G01X363781Y1745443D01*
G01X351906Y1755964D01*
G01X337857Y1763337D01*
G01X322452Y1767134D01*
G01X306586Y1767134D01*
G01X291181Y1763337D01*
G01X277132Y1755964D01*
G01X265257Y1745443D01*
G01X256244Y1732385D01*
G01X250618Y1717550D01*
G01X248705Y1701800D01*
G01X248705Y1701800D01*
G01X218214Y1701800D01*
G01X216302Y1717550D01*
G01X210675Y1732385D01*
G01X201662Y1745443D01*
G01X189787Y1755964D01*
G01X175738Y1763337D01*
G01X160333Y1767134D01*
G01X144467Y1767134D01*
G01X129062Y1763337D01*
G01X115013Y1755964D01*
G01X103138Y1745443D01*
G01X94125Y1732385D01*
G01X88498Y1717550D01*
G01X86586Y1701800D01*
G01X86586Y1701800D01*
G01X35814Y1701800D01*
G01X35814Y2015388D01*
G01X1559786Y2015388D01*
G01X1561698Y1999638D01*
G01X1567325Y1984803D01*
G01X1576338Y1971746D01*
G01X1588213Y1961225D01*
G01X1602262Y1953851D01*
G01X1617667Y1950054D01*
G01X1633533Y1950054D01*
G01X1648938Y1953851D01*
G01X1662987Y1961225D01*
G01X1674862Y1971746D01*
G01X1683875Y1984803D01*
G01X1689502Y1999638D01*
G01X1691414Y2015388D01*
G01X1690939Y2019300D01*
G01X1851886Y2019300D01*
G01X1853798Y2003550D01*
G01X1859425Y1988715D01*
G01X1868438Y1975657D01*
G01X1880313Y1965136D01*
G01X1894362Y1957763D01*
G01X1909767Y1953966D01*
G01X1925633Y1953966D01*
G01X1941038Y1957763D01*
G01X1955087Y1965136D01*
G01X1966962Y1975657D01*
G01X1975975Y1988715D01*
G01X1981602Y2003550D01*
G01X1983514Y2019300D01*
G01X1981602Y2035050D01*
G01X1975975Y2049885D01*
G01X1966962Y2062943D01*
G01X1955087Y2073464D01*
G01X1941038Y2080837D01*
G01X1925633Y2084634D01*
G01X1909767Y2084634D01*
G01X1894362Y2080837D01*
G01X1880313Y2073464D01*
G01X1868438Y2062943D01*
G01X1859425Y2049885D01*
G01X1853798Y2035050D01*
G01X1851886Y2019300D01*
G01X1851886Y2019300D01*
G01X1690939Y2019300D01*
G01X1689502Y2031139D01*
G01X1683875Y2045974D01*
G01X1674862Y2059031D01*
G01X1662987Y2069552D01*
G01X1648938Y2076926D01*
G01X1633533Y2080722D01*
G01X1617667Y2080722D01*
G01X1602262Y2076926D01*
G01X1588213Y2069552D01*
G01X1576338Y2059031D01*
G01X1567325Y2045974D01*
G01X1561698Y2031139D01*
G01X1559786Y2015388D01*
G01X1559786Y2015388D01*
G01X35814Y2015388D01*
G01X35814Y2387600D01*
G01X861286Y2387600D01*
G01X863198Y2371850D01*
G01X868825Y2357015D01*
G01X877838Y2343957D01*
G01X889713Y2333436D01*
G01X903762Y2326063D01*
G01X919167Y2322266D01*
G01X935033Y2322266D01*
G01X950438Y2326063D01*
G01X964487Y2333436D01*
G01X976362Y2343957D01*
G01X985375Y2357015D01*
G01X991002Y2371850D01*
G01X991372Y2374900D01*
G01X1953486Y2374900D01*
G01X1955398Y2359150D01*
G01X1961025Y2344315D01*
G01X1970038Y2331257D01*
G01X1981913Y2320736D01*
G01X1995962Y2313363D01*
G01X2011367Y2309566D01*
G01X2027233Y2309566D01*
G01X2042638Y2313363D01*
G01X2056687Y2320736D01*
G01X2068562Y2331257D01*
G01X2077575Y2344315D01*
G01X2083202Y2359150D01*
G01X2085114Y2374900D01*
G01X2083202Y2390650D01*
G01X2077575Y2405485D01*
G01X2068562Y2418543D01*
G01X2056687Y2429064D01*
G01X2042638Y2436437D01*
G01X2027233Y2440234D01*
G01X2011367Y2440234D01*
G01X1995962Y2436437D01*
G01X1981913Y2429064D01*
G01X1970038Y2418543D01*
G01X1961025Y2405485D01*
G01X1955398Y2390650D01*
G01X1953486Y2374900D01*
G01X1953486Y2374900D01*
G01X991372Y2374900D01*
G01X992914Y2387600D01*
G01X991002Y2403350D01*
G01X985375Y2418185D01*
G01X976362Y2431243D01*
G01X964487Y2441764D01*
G01X950438Y2449137D01*
G01X935033Y2452934D01*
G01X919167Y2452934D01*
G01X903762Y2449137D01*
G01X889713Y2441764D01*
G01X877838Y2431243D01*
G01X868825Y2418185D01*
G01X863198Y2403350D01*
G01X861286Y2387600D01*
G01X861286Y2387600D01*
G01X35814Y2387600D01*
G01X35814Y2482850D01*
G01X346936Y2482850D01*
G01X348848Y2467100D01*
G01X354475Y2452265D01*
G01X363488Y2439207D01*
G01X375363Y2428686D01*
G01X389412Y2421313D01*
G01X404817Y2417516D01*
G01X420683Y2417516D01*
G01X436088Y2421313D01*
G01X450137Y2428686D01*
G01X462012Y2439207D01*
G01X471025Y2452265D01*
G01X476652Y2467100D01*
G01X478564Y2482850D01*
G01X476652Y2498600D01*
G01X471025Y2513435D01*
G01X462012Y2526493D01*
G01X450137Y2537014D01*
G01X436088Y2544387D01*
G01X420683Y2548184D01*
G01X404817Y2548184D01*
G01X389412Y2544387D01*
G01X375363Y2537014D01*
G01X363488Y2526493D01*
G01X354475Y2513435D01*
G01X348848Y2498600D01*
G01X346936Y2482850D01*
G01X346936Y2482850D01*
G01X35814Y2482850D01*
G01X35814Y3113316D01*
G01X1247582Y3113316D01*
G01X1249494Y3097566D01*
G01X1255121Y3082731D01*
G01X1264133Y3069673D01*
G01X1276009Y3059152D01*
G01X1290058Y3051779D01*
G01X1305463Y3047982D01*
G01X1321329Y3047982D01*
G01X1336734Y3051779D01*
G01X1350782Y3059152D01*
G01X1362658Y3069673D01*
G01X1371671Y3082731D01*
G01X1377297Y3097566D01*
G01X1379210Y3113316D01*
G01X1377297Y3129066D01*
G01X1371671Y3143901D01*
G01X1362658Y3156959D01*
G01X1350782Y3167480D01*
G01X1336734Y3174853D01*
G01X1321329Y3178650D01*
G01X1305463Y3178650D01*
G01X1290058Y3174853D01*
G01X1276009Y3167480D01*
G01X1264133Y3156959D01*
G01X1255121Y3143901D01*
G01X1249494Y3129066D01*
G01X1247582Y3113316D01*
G01X1247582Y3113316D01*
G01X35814Y3113316D01*
G01X35814Y3251200D01*
G01X543786Y3251200D01*
G01X545698Y3235450D01*
G01X551325Y3220615D01*
G01X560338Y3207557D01*
G01X572213Y3197036D01*
G01X586262Y3189663D01*
G01X601667Y3185866D01*
G01X617533Y3185866D01*
G01X632938Y3189663D01*
G01X646987Y3197036D01*
G01X658862Y3207557D01*
G01X667875Y3220615D01*
G01X673502Y3235450D01*
G01X675414Y3251200D01*
G01X673502Y3266950D01*
G01X667875Y3281785D01*
G01X658862Y3294843D01*
G01X646987Y3305364D01*
G01X632938Y3312737D01*
G01X617533Y3316534D01*
G01X601667Y3316534D01*
G01X586262Y3312737D01*
G01X572213Y3305364D01*
G01X560338Y3294843D01*
G01X551325Y3281785D01*
G01X545698Y3266950D01*
G01X543786Y3251200D01*
G01X543786Y3251200D01*
G01X35814Y3251200D01*
G01X35814Y3467100D01*
G01X543786Y3467100D01*
G01X545698Y3451350D01*
G01X551325Y3436515D01*
G01X560338Y3423457D01*
G01X572213Y3412936D01*
G01X586262Y3405563D01*
G01X601667Y3401766D01*
G01X617533Y3401766D01*
G01X632938Y3405563D01*
G01X646987Y3412936D01*
G01X658862Y3423457D01*
G01X667875Y3436515D01*
G01X673502Y3451350D01*
G01X675414Y3467100D01*
G01X673502Y3482850D01*
G01X667875Y3497685D01*
G01X658862Y3510743D01*
G01X646987Y3521264D01*
G01X632938Y3528637D01*
G01X617533Y3532434D01*
G01X601667Y3532434D01*
G01X586262Y3528637D01*
G01X572213Y3521264D01*
G01X560338Y3510743D01*
G01X551325Y3497685D01*
G01X545698Y3482850D01*
G01X543786Y3467100D01*
G01X543786Y3467100D01*
G01X35814Y3467100D01*
G01X35814Y3719309D01*
G01X1247582Y3719309D01*
G01X1249494Y3703559D01*
G01X1255121Y3688724D01*
G01X1264133Y3675667D01*
G01X1276009Y3665145D01*
G01X1290058Y3657772D01*
G01X1305463Y3653975D01*
G01X1321329Y3653975D01*
G01X1336734Y3657772D01*
G01X1350782Y3665145D01*
G01X1362658Y3675667D01*
G01X1370506Y3687036D01*
G01X2043886Y3687036D01*
G01X2045799Y3671285D01*
G01X2051425Y3656451D01*
G01X2060438Y3643393D01*
G01X2072314Y3632872D01*
G01X2086362Y3625499D01*
G01X2101767Y3621702D01*
G01X2117633Y3621702D01*
G01X2133038Y3625499D01*
G01X2147087Y3632872D01*
G01X2158963Y3643393D01*
G01X2167975Y3656451D01*
G01X2173602Y3671285D01*
G01X2175514Y3687036D01*
G01X2173602Y3702786D01*
G01X2167975Y3717621D01*
G01X2158963Y3730679D01*
G01X2147087Y3741200D01*
G01X2133038Y3748573D01*
G01X2117633Y3752370D01*
G01X2101767Y3752370D01*
G01X2086362Y3748573D01*
G01X2072314Y3741200D01*
G01X2060438Y3730679D01*
G01X2051425Y3717621D01*
G01X2045799Y3702786D01*
G01X2043886Y3687036D01*
G01X2043886Y3687036D01*
G01X1370506Y3687036D01*
G01X1371671Y3688724D01*
G01X1377297Y3703559D01*
G01X1379210Y3719309D01*
G01X1377297Y3735060D01*
G01X1371671Y3749895D01*
G01X1362658Y3762952D01*
G01X1350782Y3773473D01*
G01X1336734Y3780846D01*
G01X1321329Y3784643D01*
G01X1305463Y3784643D01*
G01X1290058Y3780846D01*
G01X1276009Y3773473D01*
G01X1264133Y3762952D01*
G01X1255121Y3749895D01*
G01X1249494Y3735060D01*
G01X1247582Y3719309D01*
G01X1247582Y3719309D01*
G01X35814Y3719309D01*
G01X35814Y3797300D01*
G01X543786Y3797300D01*
G01X545698Y3781550D01*
G01X551325Y3766715D01*
G01X560338Y3753657D01*
G01X572213Y3743136D01*
G01X586262Y3735763D01*
G01X601667Y3731966D01*
G01X617533Y3731966D01*
G01X632938Y3735763D01*
G01X646987Y3743136D01*
G01X658862Y3753657D01*
G01X667875Y3766715D01*
G01X673502Y3781550D01*
G01X675414Y3797300D01*
G01X673502Y3813050D01*
G01X667875Y3827885D01*
G01X658862Y3840943D01*
G01X646987Y3851464D01*
G01X632938Y3858837D01*
G01X617533Y3862634D01*
G01X601667Y3862634D01*
G01X586262Y3858837D01*
G01X572213Y3851464D01*
G01X560338Y3840943D01*
G01X551325Y3827885D01*
G01X545698Y3813050D01*
G01X543786Y3797300D01*
G01X543786Y3797300D01*
G01X35814Y3797300D01*
G01X35814Y3940070D01*
G01X1663915Y3940070D01*
G01X1666291Y3924408D01*
G01X1672340Y3909767D01*
G01X1681712Y3896995D01*
G01X1693864Y3886834D01*
G01X1708093Y3879870D01*
G01X1723573Y3876508D01*
G01X1739409Y3876942D01*
G01X1754681Y3881147D01*
G01X1768507Y3888880D01*
G01X1780084Y3899693D01*
G01X1778726Y3883910D01*
G01X1781178Y3868260D01*
G01X1787299Y3853649D01*
G01X1796734Y3840924D01*
G01X1808937Y3830822D01*
G01X1823199Y3823928D01*
G01X1838696Y3820642D01*
G01X1854529Y3821155D01*
G01X1869781Y3825435D01*
G01X1875184Y3828492D01*
G01X5753536Y3828492D01*
G01X5753872Y3806912D01*
G01X5758207Y3785768D01*
G01X5766390Y3765796D01*
G01X5778137Y3747689D01*
G01X5793040Y3732076D01*
G01X5810580Y3719500D01*
G01X5793040Y3706923D01*
G01X5778137Y3691311D01*
G01X5766390Y3673204D01*
G01X5758207Y3653232D01*
G01X5753872Y3632088D01*
G01X5753536Y3610507D01*
G01X5757210Y3589239D01*
G01X5764766Y3569021D01*
G01X5775943Y3550557D01*
G01X5790351Y3534487D01*
G01X5807491Y3521370D01*
G01X5826768Y3511661D01*
G01X5847511Y3505697D01*
G01X5869000Y3503686D01*
G01X5890490Y3505697D01*
G01X5911233Y3511661D01*
G01X5930509Y3521370D01*
G01X5947649Y3534487D01*
G01X5962058Y3550557D01*
G01X5973234Y3569021D01*
G01X5980791Y3589239D01*
G01X5984464Y3610507D01*
G01X5984128Y3632088D01*
G01X5979793Y3653232D01*
G01X5971610Y3673204D01*
G01X5959863Y3691311D01*
G01X5944961Y3706923D01*
G01X5927420Y3719500D01*
G01X5944961Y3732076D01*
G01X5959863Y3747689D01*
G01X5971610Y3765796D01*
G01X5979793Y3785768D01*
G01X5984128Y3806912D01*
G01X5984464Y3828492D01*
G01X5980791Y3849761D01*
G01X5973234Y3869978D01*
G01X5962058Y3888443D01*
G01X5947649Y3904512D01*
G01X5930509Y3917630D01*
G01X5911233Y3927339D01*
G01X5890490Y3933302D01*
G01X5869000Y3935313D01*
G01X5869000Y3935313D01*
G01X5847511Y3933302D01*
G01X5826768Y3927339D01*
G01X5807491Y3917630D01*
G01X5790351Y3904512D01*
G01X5775943Y3888443D01*
G01X5764766Y3869978D01*
G01X5757210Y3849761D01*
G01X5753536Y3828492D01*
G01X1875184Y3828492D01*
G01X1883568Y3833236D01*
G01X1895092Y3844106D01*
G01X1903685Y3857414D01*
G01X1903685Y3857414D01*
G01X1908849Y3872390D01*
G01X1910285Y3888166D01*
G01X1908939Y3897036D01*
G01X2493886Y3897036D01*
G01X2495798Y3881285D01*
G01X2501425Y3866450D01*
G01X2510438Y3853393D01*
G01X2522313Y3842872D01*
G01X2536362Y3835499D01*
G01X2551767Y3831702D01*
G01X2567633Y3831702D01*
G01X2583038Y3835499D01*
G01X2597087Y3842872D01*
G01X2608962Y3853393D01*
G01X2617975Y3866450D01*
G01X2623601Y3881285D01*
G01X2625514Y3897036D01*
G01X2623601Y3912786D01*
G01X2617975Y3927621D01*
G01X2608962Y3940678D01*
G01X2597087Y3951199D01*
G01X2583038Y3958573D01*
G01X2567633Y3962370D01*
G01X2551767Y3962370D01*
G01X2536362Y3958573D01*
G01X2522313Y3951199D01*
G01X2510438Y3940678D01*
G01X2501425Y3927621D01*
G01X2495798Y3912786D01*
G01X2493886Y3897036D01*
G01X2493886Y3897036D01*
G01X1908939Y3897036D01*
G01X1907909Y3903828D01*
G01X1901860Y3918469D01*
G01X1892488Y3931240D01*
G01X1880336Y3941402D01*
G01X1866107Y3948366D01*
G01X1850627Y3951728D01*
G01X1834791Y3951294D01*
G01X1819519Y3947088D01*
G01X1805693Y3939355D01*
G01X1794116Y3928543D01*
G01X1795474Y3944326D01*
G01X1793021Y3959976D01*
G01X1786900Y3974587D01*
G01X1786520Y3975100D01*
G01X3299686Y3975100D01*
G01X3301598Y3959350D01*
G01X3307225Y3944515D01*
G01X3316238Y3931457D01*
G01X3328113Y3920936D01*
G01X3342162Y3913563D01*
G01X3357567Y3909766D01*
G01X3373433Y3909766D01*
G01X3388838Y3913563D01*
G01X3402887Y3920936D01*
G01X3414762Y3931457D01*
G01X3419282Y3938004D01*
G01X5213474Y3938004D01*
G01X5215387Y3922254D01*
G01X5221013Y3907419D01*
G01X5230026Y3894362D01*
G01X5241902Y3883841D01*
G01X5255950Y3876467D01*
G01X5271355Y3872670D01*
G01X5287221Y3872670D01*
G01X5302626Y3876467D01*
G01X5316675Y3883841D01*
G01X5328551Y3894362D01*
G01X5337564Y3907419D01*
G01X5343190Y3922254D01*
G01X5345102Y3938004D01*
G01X5343190Y3953755D01*
G01X5337564Y3968590D01*
G01X5328551Y3981647D01*
G01X5316675Y3992168D01*
G01X5302626Y3999541D01*
G01X5287221Y4003338D01*
G01X5271355Y4003338D01*
G01X5255950Y3999541D01*
G01X5241902Y3992168D01*
G01X5230026Y3981647D01*
G01X5221013Y3968590D01*
G01X5215387Y3953755D01*
G01X5213474Y3938004D01*
G01X5213474Y3938004D01*
G01X3419282Y3938004D01*
G01X3423775Y3944515D01*
G01X3429402Y3959350D01*
G01X3431314Y3975100D01*
G01X3429402Y3990850D01*
G01X3423775Y4005685D01*
G01X3414762Y4018743D01*
G01X3402887Y4029264D01*
G01X3388838Y4036637D01*
G01X3373433Y4040434D01*
G01X3357567Y4040434D01*
G01X3342162Y4036637D01*
G01X3328113Y4029264D01*
G01X3316238Y4018743D01*
G01X3307225Y4005685D01*
G01X3301598Y3990850D01*
G01X3299686Y3975100D01*
G01X3299686Y3975100D01*
G01X1786520Y3975100D01*
G01X1777465Y3987312D01*
G01X1765263Y3997414D01*
G01X1751001Y4004307D01*
G01X1735504Y4007593D01*
G01X1719671Y4007081D01*
G01X1704419Y4002801D01*
G01X1690632Y3994999D01*
G01X1679108Y3984130D01*
G01X1670515Y3970822D01*
G01X1665351Y3955846D01*
G01X1663915Y3940070D01*
G01X35814Y3940070D01*
G01X35814Y4072036D01*
G01X2053886Y4072036D01*
G01X2055799Y4056285D01*
G01X2061425Y4041451D01*
G01X2070438Y4028393D01*
G01X2082314Y4017872D01*
G01X2096362Y4010499D01*
G01X2111767Y4006702D01*
G01X2127633Y4006702D01*
G01X2143038Y4010499D01*
G01X2157087Y4017872D01*
G01X2168963Y4028393D01*
G01X2177975Y4041451D01*
G01X2183602Y4056285D01*
G01X2185514Y4072036D01*
G01X2183602Y4087786D01*
G01X2177975Y4102621D01*
G01X2168963Y4115679D01*
G01X2157087Y4126200D01*
G01X2143038Y4133573D01*
G01X2127633Y4137370D01*
G01X2111767Y4137370D01*
G01X2096362Y4133573D01*
G01X2082314Y4126200D01*
G01X2070438Y4115679D01*
G01X2061425Y4102621D01*
G01X2055799Y4087786D01*
G01X2053886Y4072036D01*
G01X2053886Y4072036D01*
G01X35814Y4072036D01*
G01X35814Y4170502D01*
G01X365948Y4170502D01*
G01X367860Y4154752D01*
G01X373487Y4139917D01*
G01X382499Y4126859D01*
G01X394375Y4116338D01*
G01X408424Y4108965D01*
G01X423829Y4105168D01*
G01X439695Y4105168D01*
G01X455100Y4108965D01*
G01X469148Y4116338D01*
G01X481024Y4126859D01*
G01X490037Y4139917D01*
G01X495663Y4154752D01*
G01X497576Y4170502D01*
G01X495663Y4186253D01*
G01X490037Y4201087D01*
G01X481024Y4214145D01*
G01X469148Y4224666D01*
G01X455100Y4232039D01*
G01X439695Y4235836D01*
G01X423829Y4235836D01*
G01X408424Y4232039D01*
G01X394375Y4224666D01*
G01X382499Y4214145D01*
G01X373487Y4201087D01*
G01X367860Y4186253D01*
G01X365948Y4170502D01*
G01X365948Y4170502D01*
G01X35814Y4170502D01*
G01X35814Y4312036D01*
G01X2463886Y4312036D01*
G01X2465799Y4296286D01*
G01X2471425Y4281451D01*
G01X2480438Y4268393D01*
G01X2492313Y4257872D01*
G01X2506362Y4250499D01*
G01X2521767Y4246702D01*
G01X2537633Y4246702D01*
G01X2553038Y4250499D01*
G01X2567011Y4257833D01*
G01X2874142Y4257833D01*
G01X2874715Y4241621D01*
G01X2879236Y4226043D01*
G01X2887431Y4212043D01*
G01X2898800Y4200473D01*
G01X2912654Y4192036D01*
G01X2898800Y4183598D01*
G01X2887431Y4172028D01*
G01X2879236Y4158029D01*
G01X2874715Y4142450D01*
G01X2874142Y4126239D01*
G01X2877551Y4110380D01*
G01X2884736Y4095836D01*
G01X2895259Y4083492D01*
G01X2908483Y4074097D01*
G01X2923602Y4068221D01*
G01X2939700Y4066222D01*
G01X2939700Y4066222D01*
G01X2955798Y4068221D01*
G01X2970917Y4074097D01*
G01X2984141Y4083492D01*
G01X2994664Y4095836D01*
G01X3001849Y4110380D01*
G01X3005258Y4126239D01*
G01X3004685Y4142450D01*
G01X3000164Y4158029D01*
G01X2991969Y4172028D01*
G01X2980600Y4183598D01*
G01X2966746Y4192036D01*
G01X2980600Y4200473D01*
G01X2991969Y4212043D01*
G01X2994217Y4215883D01*
G01X3465095Y4215883D01*
G01X3468601Y4200170D01*
G01X3475816Y4185780D01*
G01X3486309Y4173571D01*
G01X3499453Y4164275D01*
G01X3514459Y4158448D01*
G01X3530432Y4156438D01*
G01X3521848Y4142819D01*
G01X3516828Y4127523D01*
G01X3515671Y4111466D01*
G01X3518446Y4095609D01*
G01X3524988Y4080900D01*
G01X3534906Y4068219D01*
G01X3547605Y4058325D01*
G01X3562326Y4051811D01*
G01X3578189Y4049064D01*
G01X3594243Y4050251D01*
G01X3609530Y4055300D01*
G01X3609530Y4055300D01*
G01X3623133Y4063909D01*
G01X3634239Y4075563D01*
G01X3642184Y4089565D01*
G01X3646492Y4105076D01*
G01X3646905Y4121169D01*
G01X3643399Y4136881D01*
G01X3636184Y4151272D01*
G01X3625691Y4163481D01*
G01X3612547Y4172777D01*
G01X3597541Y4178604D01*
G01X3581568Y4180614D01*
G01X3590152Y4194233D01*
G01X3595172Y4209528D01*
G01X3596329Y4225585D01*
G01X3595734Y4228985D01*
G01X3889486Y4228985D01*
G01X3891398Y4213235D01*
G01X3897025Y4198400D01*
G01X3906037Y4185342D01*
G01X3917913Y4174821D01*
G01X3931962Y4167448D01*
G01X3947367Y4163651D01*
G01X3963233Y4163651D01*
G01X3978638Y4167448D01*
G01X3992687Y4174821D01*
G01X4004562Y4185342D01*
G01X4013575Y4198400D01*
G01X4019201Y4213235D01*
G01X4021114Y4228985D01*
G01X4019201Y4244735D01*
G01X4013575Y4259570D01*
G01X4004562Y4272628D01*
G01X3992687Y4283149D01*
G01X3978638Y4290522D01*
G01X3963233Y4294319D01*
G01X3947367Y4294319D01*
G01X3931962Y4290522D01*
G01X3917913Y4283149D01*
G01X3906037Y4272628D01*
G01X3897025Y4259570D01*
G01X3891398Y4244735D01*
G01X3889486Y4228985D01*
G01X3889486Y4228985D01*
G01X3595734Y4228985D01*
G01X3593554Y4241443D01*
G01X3587012Y4256152D01*
G01X3577094Y4268832D01*
G01X3564395Y4278726D01*
G01X3549674Y4285241D01*
G01X3533811Y4287987D01*
G01X3517757Y4286800D01*
G01X3502470Y4281751D01*
G01X3488867Y4273142D01*
G01X3477761Y4261488D01*
G01X3469816Y4247487D01*
G01X3465508Y4231976D01*
G01X3465095Y4215883D01*
G01X2994217Y4215883D01*
G01X3000164Y4226043D01*
G01X3004685Y4241621D01*
G01X3005258Y4257833D01*
G01X3001849Y4273692D01*
G01X2994664Y4288235D01*
G01X2984141Y4300579D01*
G01X2970917Y4309975D01*
G01X2955798Y4315851D01*
G01X2939700Y4317850D01*
G01X2923602Y4315851D01*
G01X2908483Y4309975D01*
G01X2895259Y4300579D01*
G01X2884736Y4288235D01*
G01X2877551Y4273692D01*
G01X2874142Y4257833D01*
G01X2567011Y4257833D01*
G01X2567087Y4257872D01*
G01X2578962Y4268393D01*
G01X2587975Y4281451D01*
G01X2593602Y4296286D01*
G01X2595514Y4312036D01*
G01X2593602Y4327786D01*
G01X2587975Y4342621D01*
G01X2587438Y4343400D01*
G01X4069255Y4343400D01*
G01X4071168Y4327650D01*
G01X4076794Y4312815D01*
G01X4085807Y4299757D01*
G01X4097683Y4289236D01*
G01X4111731Y4281863D01*
G01X4127136Y4278066D01*
G01X4143002Y4278066D01*
G01X4158407Y4281863D01*
G01X4172456Y4289236D01*
G01X4184332Y4299757D01*
G01X4193345Y4312815D01*
G01X4198971Y4327650D01*
G01X4200883Y4343400D01*
G01X4198971Y4359150D01*
G01X4194133Y4371906D01*
G01X5674586Y4371906D01*
G01X5676498Y4356155D01*
G01X5682125Y4341320D01*
G01X5691138Y4328263D01*
G01X5703013Y4317742D01*
G01X5717062Y4310369D01*
G01X5732467Y4306572D01*
G01X5748333Y4306572D01*
G01X5763738Y4310369D01*
G01X5777787Y4317742D01*
G01X5789662Y4328263D01*
G01X5798675Y4341320D01*
G01X5804302Y4356155D01*
G01X5805837Y4368800D01*
G01X5839686Y4368800D01*
G01X5841598Y4353050D01*
G01X5847225Y4338215D01*
G01X5856238Y4325157D01*
G01X5868113Y4314636D01*
G01X5882162Y4307263D01*
G01X5897567Y4303466D01*
G01X5913433Y4303466D01*
G01X5928838Y4307263D01*
G01X5942887Y4314636D01*
G01X5954762Y4325157D01*
G01X5963775Y4338215D01*
G01X5969402Y4353050D01*
G01X5971314Y4368800D01*
G01X5969402Y4384550D01*
G01X5963775Y4399385D01*
G01X5954762Y4412443D01*
G01X5942887Y4422964D01*
G01X5928838Y4430337D01*
G01X5913433Y4434134D01*
G01X5897567Y4434134D01*
G01X5882162Y4430337D01*
G01X5868113Y4422964D01*
G01X5856238Y4412443D01*
G01X5847225Y4399385D01*
G01X5841598Y4384550D01*
G01X5839686Y4368800D01*
G01X5839686Y4368800D01*
G01X5805837Y4368800D01*
G01X5806214Y4371906D01*
G01X5804302Y4387656D01*
G01X5798675Y4402491D01*
G01X5789662Y4415548D01*
G01X5777787Y4426069D01*
G01X5763738Y4433443D01*
G01X5748333Y4437240D01*
G01X5732467Y4437240D01*
G01X5717062Y4433443D01*
G01X5703013Y4426069D01*
G01X5691138Y4415548D01*
G01X5682125Y4402491D01*
G01X5676498Y4387656D01*
G01X5674586Y4371906D01*
G01X5674586Y4371906D01*
G01X4194133Y4371906D01*
G01X4193345Y4373985D01*
G01X4184332Y4387043D01*
G01X4172456Y4397564D01*
G01X4158407Y4404937D01*
G01X4143002Y4408734D01*
G01X4127136Y4408734D01*
G01X4111731Y4404937D01*
G01X4097683Y4397564D01*
G01X4085807Y4387043D01*
G01X4076794Y4373985D01*
G01X4071168Y4359150D01*
G01X4069255Y4343400D01*
G01X4069255Y4343400D01*
G01X2587438Y4343400D01*
G01X2578962Y4355679D01*
G01X2567087Y4366200D01*
G01X2553038Y4373573D01*
G01X2537633Y4377370D01*
G01X2521767Y4377370D01*
G01X2506362Y4373573D01*
G01X2492313Y4366200D01*
G01X2480438Y4355679D01*
G01X2471425Y4342621D01*
G01X2465799Y4327786D01*
G01X2463886Y4312036D01*
G01X2463886Y4312036D01*
G01X35814Y4312036D01*
G01X35814Y4465498D01*
G01X365948Y4465498D01*
G01X367860Y4449747D01*
G01X373487Y4434913D01*
G01X382499Y4421855D01*
G01X394375Y4411334D01*
G01X408424Y4403961D01*
G01X423829Y4400164D01*
G01X439695Y4400164D01*
G01X455100Y4403961D01*
G01X469148Y4411334D01*
G01X481024Y4421855D01*
G01X490037Y4434913D01*
G01X495663Y4449747D01*
G01X497576Y4465498D01*
G01X495663Y4481248D01*
G01X490037Y4496083D01*
G01X481024Y4509141D01*
G01X469148Y4519662D01*
G01X466217Y4521200D01*
G01X3845786Y4521200D01*
G01X3847698Y4505450D01*
G01X3853325Y4490615D01*
G01X3862338Y4477557D01*
G01X3874213Y4467036D01*
G01X3888262Y4459663D01*
G01X3903667Y4455866D01*
G01X3919533Y4455866D01*
G01X3934938Y4459663D01*
G01X3948987Y4467036D01*
G01X3960862Y4477557D01*
G01X3969875Y4490615D01*
G01X3975502Y4505450D01*
G01X3977414Y4521200D01*
G01X3975502Y4536950D01*
G01X3969875Y4551785D01*
G01X3960862Y4564843D01*
G01X3948987Y4575364D01*
G01X3934938Y4582737D01*
G01X3919533Y4586534D01*
G01X3903667Y4586534D01*
G01X3888262Y4582737D01*
G01X3874213Y4575364D01*
G01X3862338Y4564843D01*
G01X3853325Y4551785D01*
G01X3847698Y4536950D01*
G01X3845786Y4521200D01*
G01X3845786Y4521200D01*
G01X466217Y4521200D01*
G01X455100Y4527035D01*
G01X439695Y4530832D01*
G01X423829Y4530832D01*
G01X408424Y4527035D01*
G01X394375Y4519662D01*
G01X382499Y4509141D01*
G01X373487Y4496083D01*
G01X367860Y4481248D01*
G01X365948Y4465498D01*
G01X365948Y4465498D01*
G01X35814Y4465498D01*
G01X35814Y4622000D01*
G01X632686Y4622000D01*
G01X634598Y4606250D01*
G01X640225Y4591415D01*
G01X649238Y4578357D01*
G01X661113Y4567836D01*
G01X675162Y4560463D01*
G01X690567Y4556666D01*
G01X706433Y4556666D01*
G01X721838Y4560463D01*
G01X735887Y4567836D01*
G01X747762Y4578357D01*
G01X756775Y4591415D01*
G01X762402Y4606250D01*
G01X764314Y4622000D01*
G01X762402Y4637750D01*
G01X756775Y4652585D01*
G01X747762Y4665643D01*
G01X735887Y4676164D01*
G01X721838Y4683537D01*
G01X706433Y4687334D01*
G01X690567Y4687334D01*
G01X675162Y4683537D01*
G01X661113Y4676164D01*
G01X649238Y4665643D01*
G01X640225Y4652585D01*
G01X634598Y4637750D01*
G01X632686Y4622000D01*
G01X632686Y4622000D01*
G01X35814Y4622000D01*
G01X35814Y4712036D01*
G01X1663886Y4712036D01*
G01X1665798Y4696285D01*
G01X1671425Y4681451D01*
G01X1680437Y4668393D01*
G01X1692313Y4657872D01*
G01X1706362Y4650499D01*
G01X1721767Y4646702D01*
G01X1737633Y4646702D01*
G01X1753038Y4650499D01*
G01X1767086Y4657872D01*
G01X1778962Y4668393D01*
G01X1781477Y4672036D01*
G01X2283886Y4672036D01*
G01X2285798Y4656285D01*
G01X2291425Y4641450D01*
G01X2300437Y4628393D01*
G01X2312313Y4617872D01*
G01X2326362Y4610499D01*
G01X2341767Y4606702D01*
G01X2357633Y4606702D01*
G01X2373038Y4610499D01*
G01X2387086Y4617872D01*
G01X2398962Y4628393D01*
G01X2407975Y4641450D01*
G01X2410535Y4648200D01*
G01X3363186Y4648200D01*
G01X3365098Y4632450D01*
G01X3370725Y4617615D01*
G01X3379738Y4604557D01*
G01X3391613Y4594036D01*
G01X3405662Y4586663D01*
G01X3421067Y4582866D01*
G01X3436933Y4582866D01*
G01X3452338Y4586663D01*
G01X3461374Y4591405D01*
G01X5674860Y4591405D01*
G01X5678330Y4575520D01*
G01X5685589Y4560970D01*
G01X5696193Y4548643D01*
G01X5709496Y4539293D01*
G01X5724685Y4533490D01*
G01X5740834Y4531587D01*
G01X5756956Y4533702D01*
G01X5772068Y4539706D01*
G01X5763524Y4527690D01*
G01X5757870Y4514074D01*
G01X5755388Y4499540D01*
G01X5756204Y4484819D01*
G01X5760277Y4470650D01*
G01X5767402Y4457742D01*
G01X5777221Y4446744D01*
G01X5789242Y4438208D01*
G01X5802862Y4432562D01*
G01X5817397Y4430090D01*
G01X5817397Y4430090D01*
G01X5832117Y4430915D01*
G01X5846285Y4434997D01*
G01X5859188Y4442130D01*
G01X5870179Y4451956D01*
G01X5878708Y4463983D01*
G01X5884345Y4477606D01*
G01X5886808Y4492143D01*
G01X5885973Y4506863D01*
G01X5881883Y4521027D01*
G01X5874742Y4533926D01*
G01X5889604Y4528245D01*
G01X5905396Y4526296D01*
G01X5921194Y4528195D01*
G01X5936074Y4533829D01*
G01X5949168Y4542870D01*
G01X5959709Y4554789D01*
G01X5967081Y4568889D01*
G01X5970854Y4584347D01*
G01X5970808Y4600258D01*
G01X5966944Y4615693D01*
G01X5959488Y4629750D01*
G01X5948877Y4641606D01*
G01X5935731Y4650570D01*
G01X5920818Y4656117D01*
G01X5905009Y4657922D01*
G01X5889229Y4655881D01*
G01X5874400Y4650113D01*
G01X5861389Y4640954D01*
G01X5850956Y4628940D01*
G01X5843711Y4614774D01*
G01X5840078Y4599283D01*
G01X5840269Y4583373D01*
G01X5844272Y4567973D01*
G01X5851854Y4553984D01*
G01X5836690Y4559740D01*
G01X5820579Y4561612D01*
G01X5804500Y4559487D01*
G01X5789428Y4553494D01*
G01X5798696Y4566855D01*
G01X5804406Y4582080D01*
G01X5806209Y4598240D01*
G01X5803994Y4614348D01*
G01X5797898Y4629422D01*
G01X5788292Y4642542D01*
G01X5775763Y4652906D01*
G01X5761075Y4659882D01*
G01X5745126Y4663044D01*
G01X5728887Y4662199D01*
G01X5713352Y4657399D01*
G01X5699467Y4648936D01*
G01X5688081Y4637328D01*
G01X5679889Y4623282D01*
G01X5675390Y4607657D01*
G01X5674860Y4591405D01*
G01X3461374Y4591405D01*
G01X3466387Y4594036D01*
G01X3478262Y4604557D01*
G01X3487275Y4617615D01*
G01X3492902Y4632450D01*
G01X3494814Y4648200D01*
G01X3492902Y4663950D01*
G01X3487275Y4678785D01*
G01X3478262Y4691843D01*
G01X3466387Y4702364D01*
G01X3452338Y4709737D01*
G01X3436933Y4713534D01*
G01X3421067Y4713534D01*
G01X3405662Y4709737D01*
G01X3391613Y4702364D01*
G01X3379738Y4691843D01*
G01X3370725Y4678785D01*
G01X3365098Y4663950D01*
G01X3363186Y4648200D01*
G01X3363186Y4648200D01*
G01X2410535Y4648200D01*
G01X2413601Y4656285D01*
G01X2415514Y4672036D01*
G01X2413601Y4687786D01*
G01X2407975Y4702621D01*
G01X2398962Y4715678D01*
G01X2387086Y4726199D01*
G01X2373038Y4733573D01*
G01X2357633Y4737370D01*
G01X2341767Y4737370D01*
G01X2326362Y4733573D01*
G01X2312313Y4726199D01*
G01X2300437Y4715678D01*
G01X2291425Y4702621D01*
G01X2285798Y4687786D01*
G01X2283886Y4672036D01*
G01X2283886Y4672036D01*
G01X1781477Y4672036D01*
G01X1787975Y4681451D01*
G01X1793601Y4696285D01*
G01X1795514Y4712036D01*
G01X1793601Y4727786D01*
G01X1787975Y4742621D01*
G01X1778962Y4755679D01*
G01X1767086Y4766200D01*
G01X1753038Y4773573D01*
G01X1737633Y4777370D01*
G01X1721767Y4777370D01*
G01X1706362Y4773573D01*
G01X1692313Y4766200D01*
G01X1680437Y4755679D01*
G01X1671425Y4742621D01*
G01X1665798Y4727786D01*
G01X1663886Y4712036D01*
G01X1663886Y4712036D01*
G01X35814Y4712036D01*
G01X35814Y4787900D01*
G01X3236186Y4787900D01*
G01X3238098Y4772150D01*
G01X3243725Y4757315D01*
G01X3252738Y4744257D01*
G01X3264613Y4733736D01*
G01X3278662Y4726363D01*
G01X3294067Y4722566D01*
G01X3309933Y4722566D01*
G01X3325338Y4726363D01*
G01X3339387Y4733736D01*
G01X3351262Y4744257D01*
G01X3360275Y4757315D01*
G01X3365902Y4772150D01*
G01X3367814Y4787900D01*
G01X3365902Y4803650D01*
G01X3360275Y4818485D01*
G01X3351262Y4831543D01*
G01X3339387Y4842064D01*
G01X3325338Y4849437D01*
G01X3309933Y4853234D01*
G01X3294067Y4853234D01*
G01X3278662Y4849437D01*
G01X3264613Y4842064D01*
G01X3252738Y4831543D01*
G01X3243725Y4818485D01*
G01X3238098Y4803650D01*
G01X3236186Y4787900D01*
G01X3236186Y4787900D01*
G01X35814Y4787900D01*
G01X35814Y4932036D01*
G01X823186Y4932036D01*
G01X825098Y4916285D01*
G01X830725Y4901450D01*
G01X839738Y4888393D01*
G01X851613Y4877872D01*
G01X865662Y4870499D01*
G01X881067Y4866702D01*
G01X896933Y4866702D01*
G01X912338Y4870499D01*
G01X926387Y4877872D01*
G01X938262Y4888393D01*
G01X947275Y4901450D01*
G01X952902Y4916285D01*
G01X954814Y4932036D01*
G01X1750286Y4932036D01*
G01X1752198Y4916285D01*
G01X1757825Y4901450D01*
G01X1766838Y4888393D01*
G01X1778713Y4877872D01*
G01X1792762Y4870499D01*
G01X1808167Y4866702D01*
G01X1824033Y4866702D01*
G01X1839438Y4870499D01*
G01X1853487Y4877872D01*
G01X1865362Y4888393D01*
G01X1874375Y4901450D01*
G01X1880002Y4916285D01*
G01X1881914Y4932036D01*
G01X1880002Y4947786D01*
G01X1874375Y4962621D01*
G01X1870204Y4968665D01*
G01X3254486Y4968665D01*
G01X3256398Y4952914D01*
G01X3262025Y4938079D01*
G01X3271037Y4925022D01*
G01X3282913Y4914501D01*
G01X3296962Y4907128D01*
G01X3312367Y4903331D01*
G01X3328233Y4903331D01*
G01X3343638Y4907128D01*
G01X3357687Y4914501D01*
G01X3369562Y4925022D01*
G01X3378575Y4938079D01*
G01X3379417Y4940300D01*
G01X3386444Y4940300D01*
G01X3388356Y4924550D01*
G01X3393982Y4909715D01*
G01X3402995Y4896657D01*
G01X3414871Y4886136D01*
G01X3428920Y4878763D01*
G01X3444325Y4874966D01*
G01X3460191Y4874966D01*
G01X3475596Y4878763D01*
G01X3489644Y4886136D01*
G01X3501520Y4896657D01*
G01X3510533Y4909715D01*
G01X3516159Y4924550D01*
G01X3516530Y4927600D01*
G01X5230086Y4927600D01*
G01X5231998Y4911850D01*
G01X5237625Y4897015D01*
G01X5246638Y4883957D01*
G01X5258513Y4873436D01*
G01X5272562Y4866063D01*
G01X5287967Y4862266D01*
G01X5303833Y4862266D01*
G01X5319238Y4866063D01*
G01X5333287Y4873436D01*
G01X5345162Y4883957D01*
G01X5354175Y4897015D01*
G01X5359802Y4911850D01*
G01X5361714Y4927600D01*
G01X5359802Y4943350D01*
G01X5354175Y4958185D01*
G01X5345162Y4971243D01*
G01X5333287Y4981764D01*
G01X5319238Y4989137D01*
G01X5303833Y4992934D01*
G01X5287967Y4992934D01*
G01X5272562Y4989137D01*
G01X5258513Y4981764D01*
G01X5246638Y4971243D01*
G01X5237625Y4958185D01*
G01X5231998Y4943350D01*
G01X5230086Y4927600D01*
G01X5230086Y4927600D01*
G01X3516530Y4927600D01*
G01X3518072Y4940300D01*
G01X3516159Y4956050D01*
G01X3510533Y4970885D01*
G01X3501520Y4983943D01*
G01X3489644Y4994464D01*
G01X3475596Y5001837D01*
G01X3460191Y5005634D01*
G01X3444325Y5005634D01*
G01X3428920Y5001837D01*
G01X3414871Y4994464D01*
G01X3402995Y4983943D01*
G01X3393982Y4970885D01*
G01X3388356Y4956050D01*
G01X3386444Y4940300D01*
G01X3386444Y4940300D01*
G01X3379417Y4940300D01*
G01X3384201Y4952914D01*
G01X3386114Y4968665D01*
G01X3384201Y4984415D01*
G01X3378575Y4999250D01*
G01X3369562Y5012307D01*
G01X3357687Y5022828D01*
G01X3343638Y5030202D01*
G01X3328233Y5033999D01*
G01X3312367Y5033999D01*
G01X3296962Y5030202D01*
G01X3282913Y5022828D01*
G01X3271037Y5012307D01*
G01X3262025Y4999250D01*
G01X3256398Y4984415D01*
G01X3254486Y4968665D01*
G01X3254486Y4968665D01*
G01X1870204Y4968665D01*
G01X1865362Y4975678D01*
G01X1853487Y4986200D01*
G01X1839438Y4993573D01*
G01X1824033Y4997370D01*
G01X1808167Y4997370D01*
G01X1792762Y4993573D01*
G01X1778713Y4986200D01*
G01X1766838Y4975678D01*
G01X1757825Y4962621D01*
G01X1752198Y4947786D01*
G01X1750286Y4932036D01*
G01X1750286Y4932036D01*
G01X954814Y4932036D01*
G01X952902Y4947786D01*
G01X947275Y4962621D01*
G01X938262Y4975678D01*
G01X926387Y4986200D01*
G01X912338Y4993573D01*
G01X896933Y4997370D01*
G01X881067Y4997370D01*
G01X865662Y4993573D01*
G01X851613Y4986200D01*
G01X839738Y4975678D01*
G01X830725Y4962621D01*
G01X825098Y4947786D01*
G01X823186Y4932036D01*
G01X823186Y4932036D01*
G01X35814Y4932036D01*
G01X35814Y5159580D01*
G01X1764286Y5159580D01*
G01X1766198Y5143829D01*
G01X1771825Y5128995D01*
G01X1780838Y5115937D01*
G01X1792713Y5105416D01*
G01X1806762Y5098043D01*
G01X1822167Y5094246D01*
G01X1838033Y5094246D01*
G01X1853438Y5098043D01*
G01X1867487Y5105416D01*
G01X1879362Y5115937D01*
G01X1880855Y5118100D01*
G01X2982186Y5118100D01*
G01X2984098Y5102350D01*
G01X2989725Y5087515D01*
G01X2998738Y5074457D01*
G01X3010613Y5063936D01*
G01X3024662Y5056563D01*
G01X3040067Y5052766D01*
G01X3055933Y5052766D01*
G01X3071338Y5056563D01*
G01X3085387Y5063936D01*
G01X3097262Y5074457D01*
G01X3106275Y5087515D01*
G01X3111902Y5102350D01*
G01X3113814Y5118100D01*
G01X3111902Y5133850D01*
G01X3106275Y5148685D01*
G01X3097262Y5161743D01*
G01X3085387Y5172264D01*
G01X3071338Y5179637D01*
G01X3055933Y5183434D01*
G01X3040067Y5183434D01*
G01X3024662Y5179637D01*
G01X3010613Y5172264D01*
G01X2998738Y5161743D01*
G01X2989725Y5148685D01*
G01X2984098Y5133850D01*
G01X2982186Y5118100D01*
G01X2982186Y5118100D01*
G01X1880855Y5118100D01*
G01X1888375Y5128995D01*
G01X1894001Y5143829D01*
G01X1895914Y5159580D01*
G01X1894001Y5175330D01*
G01X1888375Y5190165D01*
G01X1885521Y5194300D01*
G01X2722586Y5194300D01*
G01X2724499Y5178550D01*
G01X2730125Y5163715D01*
G01X2739138Y5150657D01*
G01X2751013Y5140136D01*
G01X2765062Y5132763D01*
G01X2780467Y5128966D01*
G01X2796333Y5128966D01*
G01X2811738Y5132763D01*
G01X2825787Y5140136D01*
G01X2837663Y5150657D01*
G01X2846675Y5163715D01*
G01X2852302Y5178550D01*
G01X2854214Y5194300D01*
G01X2852302Y5210050D01*
G01X2846675Y5224885D01*
G01X2837663Y5237943D01*
G01X2825787Y5248464D01*
G01X2811738Y5255837D01*
G01X2796333Y5259634D01*
G01X2780467Y5259634D01*
G01X2765062Y5255837D01*
G01X2751013Y5248464D01*
G01X2739138Y5237943D01*
G01X2730125Y5224885D01*
G01X2724499Y5210050D01*
G01X2722586Y5194300D01*
G01X2722586Y5194300D01*
G01X1885521Y5194300D01*
G01X1879362Y5203223D01*
G01X1867487Y5213744D01*
G01X1853438Y5221117D01*
G01X1838033Y5224914D01*
G01X1822167Y5224914D01*
G01X1806762Y5221117D01*
G01X1792713Y5213744D01*
G01X1780838Y5203223D01*
G01X1771825Y5190165D01*
G01X1766198Y5175330D01*
G01X1764286Y5159580D01*
G01X1764286Y5159580D01*
G01X35814Y5159580D01*
G01X35814Y5247432D01*
G01X1250002Y5247432D01*
G01X1251915Y5231681D01*
G01X1257541Y5216846D01*
G01X1266554Y5203789D01*
G01X1278430Y5193268D01*
G01X1292478Y5185895D01*
G01X1307883Y5182098D01*
G01X1323749Y5182098D01*
G01X1339154Y5185895D01*
G01X1353203Y5193268D01*
G01X1365079Y5203789D01*
G01X1374092Y5216846D01*
G01X1379718Y5231681D01*
G01X1381630Y5247432D01*
G01X1379718Y5263182D01*
G01X1374092Y5278017D01*
G01X1365079Y5291074D01*
G01X1353203Y5301596D01*
G01X1339154Y5308969D01*
G01X1323749Y5312766D01*
G01X1307883Y5312766D01*
G01X1292478Y5308969D01*
G01X1278430Y5301596D01*
G01X1266554Y5291074D01*
G01X1257541Y5278017D01*
G01X1251915Y5263182D01*
G01X1250002Y5247432D01*
G01X1250002Y5247432D01*
G01X35814Y5247432D01*
G01X35814Y5377036D01*
G01X1737586Y5377036D01*
G01X1739498Y5361285D01*
G01X1745125Y5346450D01*
G01X1754138Y5333393D01*
G01X1766013Y5322872D01*
G01X1780062Y5315499D01*
G01X1795467Y5311702D01*
G01X1811333Y5311702D01*
G01X1826738Y5315499D01*
G01X1840787Y5322872D01*
G01X1852662Y5333393D01*
G01X1861675Y5346450D01*
G01X1867302Y5361285D01*
G01X1869214Y5377036D01*
G01X1867700Y5389500D01*
G01X2373074Y5389500D01*
G01X2376994Y5373820D01*
G01X2384617Y5359567D01*
G01X2395484Y5347603D01*
G01X2408940Y5338648D01*
G01X2424172Y5333242D01*
G01X2440263Y5331712D01*
G01X2456241Y5334150D01*
G01X2471143Y5340409D01*
G01X2484070Y5350111D01*
G01X2494211Y5337525D01*
G01X2507114Y5327791D01*
G01X2522001Y5321495D01*
G01X2537973Y5319017D01*
G01X2554067Y5320507D01*
G01X2569313Y5325874D01*
G01X2582791Y5334796D01*
G01X2593688Y5346733D01*
G01X2601347Y5360966D01*
G01X2605306Y5376637D01*
G01X2605316Y5384800D01*
G01X2690086Y5384800D01*
G01X2691998Y5369050D01*
G01X2697625Y5354215D01*
G01X2706638Y5341157D01*
G01X2718513Y5330636D01*
G01X2732562Y5323263D01*
G01X2747967Y5319466D01*
G01X2763833Y5319466D01*
G01X2779238Y5323263D01*
G01X2793287Y5330636D01*
G01X2805162Y5341157D01*
G01X2814175Y5354215D01*
G01X2819802Y5369050D01*
G01X2821714Y5384800D01*
G01X2819802Y5400550D01*
G01X2814175Y5415385D01*
G01X2805162Y5428443D01*
G01X2797084Y5435600D01*
G01X2956786Y5435600D01*
G01X2958698Y5419850D01*
G01X2964325Y5405015D01*
G01X2973338Y5391957D01*
G01X2985213Y5381436D01*
G01X2999262Y5374063D01*
G01X3014667Y5370266D01*
G01X3030533Y5370266D01*
G01X3045938Y5374063D01*
G01X3059987Y5381436D01*
G01X3071862Y5391957D01*
G01X3080875Y5405015D01*
G01X3086502Y5419850D01*
G01X3088414Y5435600D01*
G01X3086502Y5451350D01*
G01X3080875Y5466185D01*
G01X3071862Y5479243D01*
G01X3059987Y5489764D01*
G01X3045938Y5497137D01*
G01X3030533Y5500934D01*
G01X3014667Y5500934D01*
G01X2999262Y5497137D01*
G01X2985213Y5489764D01*
G01X2973338Y5479243D01*
G01X2964325Y5466185D01*
G01X2958698Y5451350D01*
G01X2956786Y5435600D01*
G01X2956786Y5435600D01*
G01X2797084Y5435600D01*
G01X2793287Y5438964D01*
G01X2779238Y5446337D01*
G01X2763833Y5450134D01*
G01X2747967Y5450134D01*
G01X2732562Y5446337D01*
G01X2718513Y5438964D01*
G01X2706638Y5428443D01*
G01X2697625Y5415385D01*
G01X2691998Y5400550D01*
G01X2690086Y5384800D01*
G01X2690086Y5384800D01*
G01X2605316Y5384800D01*
G01X2605326Y5392800D01*
G01X2601406Y5408480D01*
G01X2593783Y5422733D01*
G01X2582916Y5434697D01*
G01X2569460Y5443652D01*
G01X2554228Y5449058D01*
G01X2538137Y5450588D01*
G01X2522159Y5448150D01*
G01X2507257Y5441891D01*
G01X2494330Y5432189D01*
G01X2484189Y5444775D01*
G01X2471286Y5454509D01*
G01X2456399Y5460805D01*
G01X2440427Y5463283D01*
G01X2424333Y5461793D01*
G01X2409087Y5456426D01*
G01X2395609Y5447504D01*
G01X2384712Y5435567D01*
G01X2377053Y5421334D01*
G01X2373094Y5405663D01*
G01X2373094Y5405663D01*
G01X2373074Y5389500D01*
G01X1867700Y5389500D01*
G01X1867302Y5392786D01*
G01X1861675Y5407621D01*
G01X1852662Y5420678D01*
G01X1840787Y5431200D01*
G01X1826738Y5438573D01*
G01X1811333Y5442370D01*
G01X1795467Y5442370D01*
G01X1780062Y5438573D01*
G01X1766013Y5431200D01*
G01X1754138Y5420678D01*
G01X1745125Y5407621D01*
G01X1739498Y5392786D01*
G01X1737586Y5377036D01*
G01X1737586Y5377036D01*
G01X35814Y5377036D01*
G01X35814Y5524500D01*
G01X1585186Y5524500D01*
G01X1587098Y5508750D01*
G01X1592725Y5493915D01*
G01X1601738Y5480857D01*
G01X1613613Y5470336D01*
G01X1627662Y5462963D01*
G01X1643067Y5459166D01*
G01X1658933Y5459166D01*
G01X1674338Y5462963D01*
G01X1688387Y5470336D01*
G01X1700262Y5480857D01*
G01X1704088Y5486400D01*
G01X2270986Y5486400D01*
G01X2272898Y5470650D01*
G01X2278525Y5455815D01*
G01X2287538Y5442757D01*
G01X2299413Y5432236D01*
G01X2313462Y5424863D01*
G01X2328867Y5421066D01*
G01X2344733Y5421066D01*
G01X2360138Y5424863D01*
G01X2374187Y5432236D01*
G01X2386062Y5442757D01*
G01X2395075Y5455815D01*
G01X2400702Y5470650D01*
G01X2402614Y5486400D01*
G01X2400702Y5502150D01*
G01X2395075Y5516985D01*
G01X2386062Y5530043D01*
G01X2374187Y5540564D01*
G01X2360138Y5547937D01*
G01X2344733Y5551734D01*
G01X2328867Y5551734D01*
G01X2313462Y5547937D01*
G01X2299413Y5540564D01*
G01X2287538Y5530043D01*
G01X2278525Y5516985D01*
G01X2272898Y5502150D01*
G01X2270986Y5486400D01*
G01X2270986Y5486400D01*
G01X1704088Y5486400D01*
G01X1709275Y5493915D01*
G01X1714902Y5508750D01*
G01X1716814Y5524500D01*
G01X1714902Y5540250D01*
G01X1709275Y5555085D01*
G01X1700262Y5568143D01*
G01X1688387Y5578664D01*
G01X1674338Y5586037D01*
G01X1658933Y5589834D01*
G01X1643067Y5589834D01*
G01X1627662Y5586037D01*
G01X1613613Y5578664D01*
G01X1601738Y5568143D01*
G01X1592725Y5555085D01*
G01X1587098Y5540250D01*
G01X1585186Y5524500D01*
G01X1585186Y5524500D01*
G01X35814Y5524500D01*
G01X35814Y5717332D01*
G01X1267386Y5717332D01*
G01X1269298Y5701581D01*
G01X1274924Y5686746D01*
G01X1283937Y5673689D01*
G01X1295813Y5663168D01*
G01X1309862Y5655795D01*
G01X1325267Y5651998D01*
G01X1341133Y5651998D01*
G01X1356538Y5655795D01*
G01X1370586Y5663168D01*
G01X1382462Y5673689D01*
G01X1391475Y5686746D01*
G01X1393538Y5692186D01*
G01X2672336Y5692186D01*
G01X2674248Y5676435D01*
G01X2679875Y5661600D01*
G01X2688888Y5648543D01*
G01X2700763Y5638022D01*
G01X2714812Y5630649D01*
G01X2730217Y5626852D01*
G01X2746083Y5626852D01*
G01X2761488Y5630649D01*
G01X2775537Y5638022D01*
G01X2787412Y5648543D01*
G01X2796425Y5661600D01*
G01X2802051Y5676435D01*
G01X2803964Y5692186D01*
G01X2802051Y5707936D01*
G01X2796425Y5722771D01*
G01X2787412Y5735828D01*
G01X2775537Y5746350D01*
G01X2761488Y5753723D01*
G01X2746083Y5757520D01*
G01X2730217Y5757520D01*
G01X2714812Y5753723D01*
G01X2700763Y5746350D01*
G01X2688888Y5735828D01*
G01X2679875Y5722771D01*
G01X2674248Y5707936D01*
G01X2672336Y5692186D01*
G01X2672336Y5692186D01*
G01X1393538Y5692186D01*
G01X1397101Y5701581D01*
G01X1399014Y5717332D01*
G01X1397101Y5733082D01*
G01X1391475Y5747917D01*
G01X1382462Y5760974D01*
G01X1370586Y5771496D01*
G01X1356538Y5778869D01*
G01X1341133Y5782666D01*
G01X1325267Y5782666D01*
G01X1309862Y5778869D01*
G01X1295813Y5771496D01*
G01X1283937Y5760974D01*
G01X1274924Y5747917D01*
G01X1269298Y5733082D01*
G01X1267386Y5717332D01*
G01X1267386Y5717332D01*
G01X35814Y5717332D01*
G01X35814Y6057900D01*
G01X1813786Y6057900D01*
G01X1815698Y6042150D01*
G01X1821325Y6027315D01*
G01X1830338Y6014257D01*
G01X1842213Y6003736D01*
G01X1856262Y5996363D01*
G01X1871667Y5992566D01*
G01X1887533Y5992566D01*
G01X1902938Y5996363D01*
G01X1916987Y6003736D01*
G01X1928862Y6014257D01*
G01X1937875Y6027315D01*
G01X1943502Y6042150D01*
G01X1945414Y6057900D01*
G01X1943502Y6073650D01*
G01X1937875Y6088485D01*
G01X1928862Y6101543D01*
G01X1916987Y6112064D01*
G01X1902938Y6119437D01*
G01X1887533Y6123234D01*
G01X1871667Y6123234D01*
G01X1856262Y6119437D01*
G01X1842213Y6112064D01*
G01X1830338Y6101543D01*
G01X1821325Y6088485D01*
G01X1815698Y6073650D01*
G01X1813786Y6057900D01*
G01X1813786Y6057900D01*
G01X35814Y6057900D01*
G01X35814Y6210300D01*
G01X2677386Y6210300D01*
G01X2679298Y6194550D01*
G01X2684925Y6179715D01*
G01X2693938Y6166657D01*
G01X2705813Y6156136D01*
G01X2719862Y6148763D01*
G01X2735267Y6144966D01*
G01X2751133Y6144966D01*
G01X2766538Y6148763D01*
G01X2780587Y6156136D01*
G01X2792462Y6166657D01*
G01X2801475Y6179715D01*
G01X2807102Y6194550D01*
G01X2809014Y6210300D01*
G01X2807102Y6226050D01*
G01X2801475Y6240885D01*
G01X2792462Y6253943D01*
G01X2780587Y6264464D01*
G01X2766538Y6271837D01*
G01X2751133Y6275634D01*
G01X2735267Y6275634D01*
G01X2719862Y6271837D01*
G01X2705813Y6264464D01*
G01X2693938Y6253943D01*
G01X2684925Y6240885D01*
G01X2679298Y6226050D01*
G01X2677386Y6210300D01*
G01X2677386Y6210300D01*
G01X35814Y6210300D01*
G01X35814Y6400089D01*
G01X210977Y6400089D01*
G01X212819Y6381396D01*
G01X218271Y6363422D01*
G01X227125Y6346857D01*
G01X239041Y6332338D01*
G01X253560Y6320422D01*
G01X270125Y6311568D01*
G01X288099Y6306116D01*
G01X306791Y6304275D01*
G01X366791Y6304275D01*
G01X385484Y6306116D01*
G01X403458Y6311568D01*
G01X420023Y6320422D01*
G01X434542Y6332338D01*
G01X446458Y6346857D01*
G01X455312Y6363422D01*
G01X460764Y6381396D01*
G01X462605Y6400089D01*
G01X462410Y6402073D01*
G01X618980Y6402073D01*
G01X620478Y6383102D01*
G01X625695Y6364802D01*
G01X634425Y6347893D01*
G01X646325Y6333043D01*
G01X660925Y6320838D01*
G01X677650Y6311759D01*
G01X695838Y6306165D01*
G01X714774Y6304275D01*
G01X714774Y6304275D01*
G01X794774Y6304275D01*
G01X813466Y6306116D01*
G01X831440Y6311568D01*
G01X832061Y6311900D01*
G01X2791686Y6311900D01*
G01X2793598Y6296150D01*
G01X2799225Y6281315D01*
G01X2808238Y6268257D01*
G01X2820113Y6257736D01*
G01X2834162Y6250363D01*
G01X2849567Y6246566D01*
G01X2865433Y6246566D01*
G01X2880838Y6250363D01*
G01X2894887Y6257736D01*
G01X2906762Y6268257D01*
G01X2915775Y6281315D01*
G01X2921402Y6296150D01*
G01X2923314Y6311900D01*
G01X2921402Y6327650D01*
G01X2915775Y6342485D01*
G01X2906762Y6355543D01*
G01X2894887Y6366064D01*
G01X2880838Y6373437D01*
G01X2865433Y6377234D01*
G01X2849567Y6377234D01*
G01X2834162Y6373437D01*
G01X2820113Y6366064D01*
G01X2808238Y6355543D01*
G01X2799225Y6342485D01*
G01X2793598Y6327650D01*
G01X2791686Y6311900D01*
G01X2791686Y6311900D01*
G01X832061Y6311900D01*
G01X848005Y6320422D01*
G01X862524Y6332338D01*
G01X874440Y6346857D01*
G01X883294Y6363422D01*
G01X888746Y6381396D01*
G01X890588Y6400089D01*
G01X888746Y6418781D01*
G01X883294Y6436755D01*
G01X882148Y6438900D01*
G01X1623286Y6438900D01*
G01X1625198Y6423150D01*
G01X1630825Y6408315D01*
G01X1639838Y6395257D01*
G01X1651713Y6384736D01*
G01X1665762Y6377363D01*
G01X1681167Y6373566D01*
G01X1697033Y6373566D01*
G01X1712438Y6377363D01*
G01X1726487Y6384736D01*
G01X1738362Y6395257D01*
G01X1740068Y6397729D01*
G01X2474258Y6397729D01*
G01X2476762Y6382567D01*
G01X2482714Y6368399D01*
G01X2491789Y6355998D01*
G01X2503493Y6346039D01*
G01X2503493Y6346039D01*
G01X2517187Y6339066D01*
G01X2532125Y6335459D01*
G01X2547492Y6335414D01*
G01X2562450Y6338934D01*
G01X2576185Y6345826D01*
G01X2587947Y6355716D01*
G01X2597095Y6368064D01*
G01X2603130Y6382196D01*
G01X2605723Y6397343D01*
G01X2604733Y6412678D01*
G01X2619270Y6417662D01*
G01X2632254Y6425882D01*
G01X2642978Y6436888D01*
G01X2650857Y6450081D01*
G01X2655462Y6464742D01*
G01X2656542Y6480071D01*
G01X2654038Y6495233D01*
G01X2648086Y6509401D01*
G01X2639011Y6521802D01*
G01X2627307Y6531761D01*
G01X2613613Y6538734D01*
G01X2598675Y6542341D01*
G01X2583308Y6542386D01*
G01X2568350Y6538866D01*
G01X2554615Y6531974D01*
G01X2542853Y6522084D01*
G01X2533705Y6509736D01*
G01X2527670Y6495604D01*
G01X2525077Y6480457D01*
G01X2526067Y6465122D01*
G01X2511530Y6460138D01*
G01X2498546Y6451918D01*
G01X2487822Y6440912D01*
G01X2479943Y6427719D01*
G01X2475338Y6413058D01*
G01X2474258Y6397729D01*
G01X1740068Y6397729D01*
G01X1747375Y6408315D01*
G01X1753002Y6423150D01*
G01X1754914Y6438900D01*
G01X1753002Y6454650D01*
G01X1747375Y6469485D01*
G01X1738362Y6482543D01*
G01X1726487Y6493064D01*
G01X1712438Y6500437D01*
G01X1697033Y6504234D01*
G01X1681167Y6504234D01*
G01X1665762Y6500437D01*
G01X1651713Y6493064D01*
G01X1639838Y6482543D01*
G01X1630825Y6469485D01*
G01X1625198Y6454650D01*
G01X1623286Y6438900D01*
G01X1623286Y6438900D01*
G01X882148Y6438900D01*
G01X874440Y6453320D01*
G01X862524Y6467839D01*
G01X848005Y6479755D01*
G01X831440Y6488609D01*
G01X813466Y6494062D01*
G01X794774Y6495903D01*
G01X761273Y6495903D01*
G01X770070Y6509295D01*
G01X775747Y6524278D01*
G01X778034Y6540137D01*
G01X776821Y6556113D01*
G01X772166Y6571445D01*
G01X764292Y6585399D01*
G01X753574Y6597310D01*
G01X740525Y6606608D01*
G01X725768Y6612849D01*
G01X710007Y6615735D01*
G01X693996Y6615128D01*
G01X678499Y6611058D01*
G01X664256Y6603718D01*
G01X651948Y6593459D01*
G01X642163Y6580772D01*
G01X635367Y6566262D01*
G01X631886Y6550622D01*
G01X631885Y6534599D01*
G01X635366Y6518959D01*
G01X642160Y6504448D01*
G01X651945Y6491760D01*
G01X664253Y6481501D01*
G01X649160Y6469911D01*
G01X636655Y6455567D01*
G01X627232Y6439034D01*
G01X621262Y6420965D01*
G01X618980Y6402073D01*
G01X462410Y6402073D01*
G01X460764Y6418781D01*
G01X455312Y6436755D01*
G01X446458Y6453320D01*
G01X434542Y6467839D01*
G01X420023Y6479755D01*
G01X403458Y6488609D01*
G01X385484Y6494062D01*
G01X366791Y6495903D01*
G01X366791Y6495903D01*
G01X306791Y6495903D01*
G01X288099Y6494062D01*
G01X270125Y6488609D01*
G01X253560Y6479755D01*
G01X239041Y6467839D01*
G01X227125Y6453320D01*
G01X218271Y6436755D01*
G01X212819Y6418781D01*
G01X210977Y6400089D01*
G01X35814Y6400089D01*
G01X35814Y6616700D01*
G01X1254986Y6616700D01*
G01X1256898Y6600950D01*
G01X1262525Y6586115D01*
G01X1271538Y6573057D01*
G01X1283413Y6562536D01*
G01X1297462Y6555163D01*
G01X1312867Y6551366D01*
G01X1328733Y6551366D01*
G01X1344138Y6555163D01*
G01X1358187Y6562536D01*
G01X1370062Y6573057D01*
G01X1379075Y6586115D01*
G01X1384702Y6600950D01*
G01X1386614Y6616700D01*
G01X1384702Y6632450D01*
G01X1379075Y6647285D01*
G01X1370062Y6660343D01*
G01X1358187Y6670864D01*
G01X1344138Y6678237D01*
G01X1328733Y6682034D01*
G01X1312867Y6682034D01*
G01X1297462Y6678237D01*
G01X1283413Y6670864D01*
G01X1271538Y6660343D01*
G01X1262525Y6647285D01*
G01X1256898Y6632450D01*
G01X1254986Y6616700D01*
G01X1254986Y6616700D01*
G01X35814Y6616700D01*
G01X35814Y6692900D01*
G01X924786Y6692900D01*
G01X926698Y6677150D01*
G01X932325Y6662315D01*
G01X941338Y6649257D01*
G01X953213Y6638736D01*
G01X967262Y6631363D01*
G01X982667Y6627566D01*
G01X998533Y6627566D01*
G01X1013938Y6631363D01*
G01X1027987Y6638736D01*
G01X1039862Y6649257D01*
G01X1048875Y6662315D01*
G01X1054502Y6677150D01*
G01X1056414Y6692900D01*
G01X1054502Y6708650D01*
G01X1053215Y6712043D01*
G01X1547402Y6712043D01*
G01X1547830Y6695734D01*
G01X1552256Y6680031D01*
G01X1560408Y6665900D01*
G01X1571786Y6654208D01*
G01X1585691Y6645674D01*
G01X1601267Y6640822D01*
G01X1617558Y6639951D01*
G01X1633563Y6643114D01*
G01X1648298Y6650116D01*
G01X1660858Y6660528D01*
G01X1670472Y6673710D01*
G01X1676547Y6688851D01*
G01X1678711Y6705021D01*
G01X1692027Y6709694D01*
G01X1692273Y6709846D01*
G01X2787055Y6709846D01*
G01X2787196Y6694728D01*
G01X2790783Y6680041D01*
G01X2797627Y6666560D01*
G01X2807367Y6654996D01*
G01X2819489Y6645961D01*
G01X2833353Y6639930D01*
G01X2848227Y6637221D01*
G01X2863327Y6637979D01*
G01X2877855Y6642162D01*
G01X2891046Y6649551D01*
G01X2902202Y6659754D01*
G01X2910736Y6672234D01*
G01X2916196Y6686333D01*
G01X2918295Y6701305D01*
G01X2916923Y6716361D01*
G01X2912150Y6730707D01*
G01X2904230Y6743585D01*
G01X2893580Y6754316D01*
G01X2908401Y6757301D01*
G01X2922150Y6763590D01*
G01X2934101Y6772850D01*
G01X2943623Y6784593D01*
G01X2950215Y6798199D01*
G01X2953528Y6812951D01*
G01X2953387Y6828069D01*
G01X2949799Y6842756D01*
G01X2942955Y6856237D01*
G01X2933215Y6867800D01*
G01X2921094Y6876836D01*
G01X2907230Y6882867D01*
G01X2892356Y6885575D01*
G01X2877256Y6884817D01*
G01X2862727Y6880634D01*
G01X2849537Y6873246D01*
G01X2838380Y6863042D01*
G01X2829847Y6850562D01*
G01X2824386Y6836464D01*
G01X2822287Y6821492D01*
G01X2823660Y6806435D01*
G01X2828432Y6792090D01*
G01X2836352Y6779211D01*
G01X2847002Y6768480D01*
G01X2847002Y6768480D01*
G01X2832181Y6765495D01*
G01X2818432Y6759207D01*
G01X2806481Y6749946D01*
G01X2796959Y6738203D01*
G01X2790367Y6724597D01*
G01X2787055Y6709846D01*
G01X1692273Y6709846D01*
G01X1704039Y6717098D01*
G01X1714198Y6726893D01*
G01X1722035Y6738628D01*
G01X1727190Y6751764D01*
G01X1729426Y6765697D01*
G01X1744483Y6767110D01*
G01X1758820Y6771924D01*
G01X1771680Y6779882D01*
G01X1782384Y6790567D01*
G01X1790366Y6803412D01*
G01X1795205Y6817740D01*
G01X1811078Y6820820D01*
G01X1825720Y6827677D01*
G01X1838250Y6837897D01*
G01X1844575Y6846389D01*
G01X2194786Y6846389D01*
G01X2196648Y6830845D01*
G01X2202128Y6816181D01*
G01X2210916Y6803226D01*
G01X2222516Y6792714D01*
G01X2236270Y6785237D01*
G01X2251400Y6781221D01*
G01X2267051Y6780892D01*
G01X2282337Y6784268D01*
G01X2296394Y6791159D01*
G01X2308425Y6801175D01*
G01X2317750Y6813749D01*
G01X2326610Y6801673D01*
G01X2337971Y6791912D01*
G01X2351245Y6784973D01*
G01X2365744Y6781215D01*
G01X2380717Y6780833D01*
G01X2395389Y6783846D01*
G01X2409000Y6790098D01*
G01X2420845Y6799266D01*
G01X2430310Y6810875D01*
G01X2440044Y6799005D01*
G01X2452264Y6789713D01*
G01X2466303Y6783504D01*
G01X2481399Y6780717D01*
G01X2496730Y6781503D01*
G01X2511462Y6785819D01*
G01X2524794Y6793430D01*
G01X2535999Y6803923D01*
G01X2544469Y6816726D01*
G01X2549743Y6831142D01*
G01X2551533Y6846389D01*
G01X2549743Y6861635D01*
G01X2544469Y6876052D01*
G01X2535999Y6888855D01*
G01X2524794Y6899348D01*
G01X2511462Y6906959D01*
G01X2496730Y6911275D01*
G01X2481399Y6912061D01*
G01X2466303Y6909274D01*
G01X2452264Y6903065D01*
G01X2440044Y6893773D01*
G01X2430310Y6881903D01*
G01X2420845Y6893512D01*
G01X2409000Y6902680D01*
G01X2395389Y6908932D01*
G01X2380717Y6911945D01*
G01X2365744Y6911563D01*
G01X2351245Y6907805D01*
G01X2337971Y6900866D01*
G01X2326610Y6891105D01*
G01X2317750Y6879029D01*
G01X2308425Y6891603D01*
G01X2296394Y6901618D01*
G01X2282337Y6908509D01*
G01X2267051Y6911886D01*
G01X2251400Y6911557D01*
G01X2236270Y6907540D01*
G01X2222516Y6900064D01*
G01X2210916Y6889551D01*
G01X2202128Y6876596D01*
G01X2196648Y6861932D01*
G01X2194786Y6846389D01*
G01X2194786Y6846389D01*
G01X1844575Y6846389D01*
G01X1847909Y6850864D01*
G01X1854115Y6865794D01*
G01X1856494Y6881787D01*
G01X1854902Y6897877D01*
G01X1849435Y6913093D01*
G01X1840423Y6926518D01*
G01X1828410Y6937339D01*
G01X1814120Y6944906D01*
G01X1798418Y6948760D01*
G01X1782249Y6948669D01*
G01X1766591Y6944639D01*
G01X1752387Y6936913D01*
G01X1740496Y6925957D01*
G01X1731636Y6912432D01*
G01X1726340Y6897155D01*
G01X1710751Y6894167D01*
G01X1696331Y6887534D01*
G01X1683918Y6877641D01*
G01X1674235Y6865064D01*
G01X1667845Y6850535D01*
G01X1665118Y6834899D01*
G01X1665118Y6834899D01*
G01X1650324Y6833540D01*
G01X1636211Y6828898D01*
G01X1623499Y6821209D01*
G01X1612835Y6810864D01*
G01X1604764Y6798391D01*
G01X1599695Y6784426D01*
G01X1597889Y6769679D01*
G01X1582588Y6764018D01*
G01X1569150Y6754767D01*
G01X1558400Y6742495D01*
G01X1550999Y6727956D01*
G01X1547402Y6712043D01*
G01X1053215Y6712043D01*
G01X1048875Y6723485D01*
G01X1039862Y6736543D01*
G01X1027987Y6747064D01*
G01X1013938Y6754437D01*
G01X998533Y6758234D01*
G01X982667Y6758234D01*
G01X967262Y6754437D01*
G01X953213Y6747064D01*
G01X941338Y6736543D01*
G01X932325Y6723485D01*
G01X926698Y6708650D01*
G01X924786Y6692900D01*
G01X924786Y6692900D01*
G01X35814Y6692900D01*
G01X35814Y7265111D01*
G01X210977Y7265111D01*
G01X212819Y7246419D01*
G01X218271Y7228445D01*
G01X227125Y7211880D01*
G01X239041Y7197361D01*
G01X253560Y7185445D01*
G01X270125Y7176591D01*
G01X288099Y7171138D01*
G01X306791Y7169297D01*
G01X366791Y7169297D01*
G01X385484Y7171138D01*
G01X403458Y7176591D01*
G01X420023Y7185445D01*
G01X434542Y7197361D01*
G01X446458Y7211880D01*
G01X455312Y7228445D01*
G01X460764Y7246419D01*
G01X462410Y7263127D01*
G01X618980Y7263127D01*
G01X621262Y7244235D01*
G01X627232Y7226166D01*
G01X636655Y7209633D01*
G01X649160Y7195289D01*
G01X664253Y7183699D01*
G01X651945Y7173440D01*
G01X642160Y7160752D01*
G01X635366Y7146241D01*
G01X631885Y7130601D01*
G01X631886Y7114578D01*
G01X635367Y7098938D01*
G01X642163Y7084428D01*
G01X651948Y7071741D01*
G01X664256Y7061482D01*
G01X678499Y7054142D01*
G01X693996Y7050072D01*
G01X710007Y7049465D01*
G01X725768Y7052351D01*
G01X740525Y7058592D01*
G01X753574Y7067890D01*
G01X758982Y7073900D01*
G01X1166086Y7073900D01*
G01X1167998Y7058150D01*
G01X1173625Y7043315D01*
G01X1182638Y7030257D01*
G01X1194513Y7019736D01*
G01X1208562Y7012363D01*
G01X1223967Y7008566D01*
G01X1239833Y7008566D01*
G01X1255238Y7012363D01*
G01X1263986Y7016954D01*
G01X1369287Y7016954D01*
G01X1371200Y7001204D01*
G01X1376826Y6986369D01*
G01X1385839Y6973312D01*
G01X1397715Y6962791D01*
G01X1411763Y6955417D01*
G01X1427168Y6951620D01*
G01X1443034Y6951620D01*
G01X1458439Y6955417D01*
G01X1472488Y6962791D01*
G01X1484364Y6973312D01*
G01X1493377Y6986369D01*
G01X1499003Y7001204D01*
G01X1500915Y7016954D01*
G01X1499003Y7032705D01*
G01X1493377Y7047540D01*
G01X1484364Y7060597D01*
G01X1483683Y7061200D01*
G01X1847974Y7061200D01*
G01X1849887Y7045450D01*
G01X1855513Y7030615D01*
G01X1864526Y7017557D01*
G01X1876402Y7007036D01*
G01X1890450Y6999663D01*
G01X1905855Y6995866D01*
G01X1921721Y6995866D01*
G01X1937126Y6999663D01*
G01X1951175Y7007036D01*
G01X1963051Y7017557D01*
G01X1972064Y7030615D01*
G01X1977690Y7045450D01*
G01X1978060Y7048500D01*
G01X2194786Y7048500D01*
G01X2196562Y7033314D01*
G01X2201794Y7018948D01*
G01X2210200Y7006176D01*
G01X2221326Y6995689D01*
G01X2234571Y6988052D01*
G01X2249221Y6983677D01*
G01X2264485Y6982801D01*
G01X2279540Y6985470D01*
G01X2293572Y6991541D01*
G01X2305825Y7000686D01*
G01X2315637Y7012412D01*
G01X2325217Y7000907D01*
G01X2337149Y6991865D01*
G01X2350816Y6985754D01*
G01X2365510Y6982889D01*
G01X2380472Y6983419D01*
G01X2394926Y6987317D01*
G01X2408126Y6994381D01*
G01X2419388Y7004245D01*
G01X2428129Y7016399D01*
G01X2437374Y7003697D01*
G01X2449366Y6993548D01*
G01X2463422Y6986530D01*
G01X2478740Y6983043D01*
G01X2494449Y6983286D01*
G01X2509652Y6987245D01*
G01X2523484Y6994695D01*
G01X2535156Y7005210D01*
G01X2544004Y7018193D01*
G01X2549522Y7032902D01*
G01X2551397Y7048500D01*
G01X2549522Y7064098D01*
G01X2544004Y7078807D01*
G01X2535156Y7091790D01*
G01X2523484Y7102305D01*
G01X2509652Y7109755D01*
G01X2501031Y7112000D01*
G01X2651986Y7112000D01*
G01X2653898Y7096250D01*
G01X2659525Y7081415D01*
G01X2668538Y7068357D01*
G01X2680413Y7057836D01*
G01X2694462Y7050463D01*
G01X2709867Y7046666D01*
G01X2725733Y7046666D01*
G01X2741138Y7050463D01*
G01X2755187Y7057836D01*
G01X2767062Y7068357D01*
G01X2776075Y7081415D01*
G01X2781702Y7096250D01*
G01X2783614Y7112000D01*
G01X2781702Y7127750D01*
G01X2776075Y7142585D01*
G01X2767062Y7155643D01*
G01X2755187Y7166164D01*
G01X2741138Y7173537D01*
G01X2725733Y7177334D01*
G01X2709867Y7177334D01*
G01X2694462Y7173537D01*
G01X2680413Y7166164D01*
G01X2668538Y7155643D01*
G01X2659525Y7142585D01*
G01X2653898Y7127750D01*
G01X2651986Y7112000D01*
G01X2651986Y7112000D01*
G01X2501031Y7112000D01*
G01X2494449Y7113714D01*
G01X2478740Y7113957D01*
G01X2463422Y7110470D01*
G01X2449366Y7103452D01*
G01X2437374Y7093303D01*
G01X2428129Y7080601D01*
G01X2419388Y7092755D01*
G01X2408126Y7102619D01*
G01X2394926Y7109683D01*
G01X2380472Y7113581D01*
G01X2365510Y7114111D01*
G01X2350816Y7111246D01*
G01X2337149Y7105135D01*
G01X2325217Y7096093D01*
G01X2315637Y7084588D01*
G01X2305825Y7096314D01*
G01X2293572Y7105459D01*
G01X2279540Y7111530D01*
G01X2264485Y7114199D01*
G01X2249221Y7113323D01*
G01X2234571Y7108948D01*
G01X2221326Y7101311D01*
G01X2210200Y7090824D01*
G01X2201794Y7078052D01*
G01X2196562Y7063686D01*
G01X2194786Y7048500D01*
G01X2194786Y7048500D01*
G01X1978060Y7048500D01*
G01X1979602Y7061200D01*
G01X1977690Y7076950D01*
G01X1972064Y7091785D01*
G01X1963051Y7104843D01*
G01X1951175Y7115364D01*
G01X1937126Y7122737D01*
G01X1921721Y7126534D01*
G01X1905855Y7126534D01*
G01X1890450Y7122737D01*
G01X1876402Y7115364D01*
G01X1864526Y7104843D01*
G01X1855513Y7091785D01*
G01X1849887Y7076950D01*
G01X1847974Y7061200D01*
G01X1847974Y7061200D01*
G01X1483683Y7061200D01*
G01X1472488Y7071118D01*
G01X1458439Y7078492D01*
G01X1443034Y7082289D01*
G01X1427168Y7082289D01*
G01X1411763Y7078492D01*
G01X1397715Y7071118D01*
G01X1385839Y7060597D01*
G01X1376826Y7047540D01*
G01X1371200Y7032705D01*
G01X1369287Y7016954D01*
G01X1369287Y7016954D01*
G01X1263986Y7016954D01*
G01X1269287Y7019736D01*
G01X1281162Y7030257D01*
G01X1290175Y7043315D01*
G01X1295802Y7058150D01*
G01X1297714Y7073900D01*
G01X1295802Y7089650D01*
G01X1290175Y7104485D01*
G01X1281162Y7117543D01*
G01X1269287Y7128064D01*
G01X1255238Y7135437D01*
G01X1239833Y7139234D01*
G01X1223967Y7139234D01*
G01X1208562Y7135437D01*
G01X1194513Y7128064D01*
G01X1182638Y7117543D01*
G01X1173625Y7104485D01*
G01X1167998Y7089650D01*
G01X1166086Y7073900D01*
G01X1166086Y7073900D01*
G01X758982Y7073900D01*
G01X764292Y7079801D01*
G01X772166Y7093755D01*
G01X776821Y7109087D01*
G01X778034Y7125063D01*
G01X775747Y7140922D01*
G01X770070Y7155905D01*
G01X761273Y7169297D01*
G01X794774Y7169297D01*
G01X794774Y7169297D01*
G01X813466Y7171138D01*
G01X831440Y7176591D01*
G01X848005Y7185445D01*
G01X862524Y7197361D01*
G01X874440Y7211880D01*
G01X883294Y7228445D01*
G01X888746Y7246419D01*
G01X890517Y7264400D01*
G01X975586Y7264400D01*
G01X977498Y7248650D01*
G01X983125Y7233815D01*
G01X992138Y7220757D01*
G01X1004013Y7210236D01*
G01X1018062Y7202863D01*
G01X1033467Y7199066D01*
G01X1049333Y7199066D01*
G01X1064738Y7202863D01*
G01X1078787Y7210236D01*
G01X1090662Y7220757D01*
G01X1099675Y7233815D01*
G01X1105302Y7248650D01*
G01X1107214Y7264400D01*
G01X1105672Y7277100D01*
G01X2499586Y7277100D01*
G01X2501498Y7261350D01*
G01X2507125Y7246515D01*
G01X2516138Y7233457D01*
G01X2528013Y7222936D01*
G01X2542062Y7215563D01*
G01X2557467Y7211766D01*
G01X2573333Y7211766D01*
G01X2588738Y7215563D01*
G01X2602787Y7222936D01*
G01X2614662Y7233457D01*
G01X2618488Y7239000D01*
G01X3012768Y7239000D01*
G01X3014680Y7223250D01*
G01X3020306Y7208415D01*
G01X3029319Y7195357D01*
G01X3041195Y7184836D01*
G01X3055244Y7177463D01*
G01X3070649Y7173666D01*
G01X3086515Y7173666D01*
G01X3101920Y7177463D01*
G01X3115968Y7184836D01*
G01X3127844Y7195357D01*
G01X3136857Y7208415D01*
G01X3142483Y7223250D01*
G01X3144396Y7239000D01*
G01X3142483Y7254750D01*
G01X3136857Y7269585D01*
G01X3127844Y7282643D01*
G01X3115968Y7293164D01*
G01X3101920Y7300537D01*
G01X3086515Y7304334D01*
G01X3070649Y7304334D01*
G01X3055244Y7300537D01*
G01X3041195Y7293164D01*
G01X3029319Y7282643D01*
G01X3020306Y7269585D01*
G01X3014680Y7254750D01*
G01X3012768Y7239000D01*
G01X3012768Y7239000D01*
G01X2618488Y7239000D01*
G01X2623675Y7246515D01*
G01X2629302Y7261350D01*
G01X2631214Y7277100D01*
G01X2629302Y7292850D01*
G01X2623675Y7307685D01*
G01X2614662Y7320743D01*
G01X2602787Y7331264D01*
G01X2588738Y7338637D01*
G01X2573333Y7342434D01*
G01X2557467Y7342434D01*
G01X2542062Y7338637D01*
G01X2528013Y7331264D01*
G01X2516138Y7320743D01*
G01X2507125Y7307685D01*
G01X2501498Y7292850D01*
G01X2499586Y7277100D01*
G01X2499586Y7277100D01*
G01X1105672Y7277100D01*
G01X1105302Y7280150D01*
G01X1099675Y7294985D01*
G01X1090662Y7308043D01*
G01X1078787Y7318564D01*
G01X1064738Y7325937D01*
G01X1049333Y7329734D01*
G01X1033467Y7329734D01*
G01X1018062Y7325937D01*
G01X1004013Y7318564D01*
G01X992138Y7308043D01*
G01X983125Y7294985D01*
G01X977498Y7280150D01*
G01X975586Y7264400D01*
G01X975586Y7264400D01*
G01X890517Y7264400D01*
G01X890588Y7265111D01*
G01X888746Y7283804D01*
G01X883294Y7301778D01*
G01X874440Y7318343D01*
G01X862524Y7332862D01*
G01X848005Y7344778D01*
G01X831440Y7353632D01*
G01X813466Y7359084D01*
G01X794774Y7360925D01*
G01X714774Y7360925D01*
G01X695838Y7359035D01*
G01X677650Y7353441D01*
G01X660925Y7344362D01*
G01X646325Y7332157D01*
G01X634425Y7317307D01*
G01X625695Y7300398D01*
G01X620478Y7282098D01*
G01X618980Y7263127D01*
G01X462410Y7263127D01*
G01X462605Y7265111D01*
G01X460764Y7283804D01*
G01X455312Y7301778D01*
G01X446458Y7318343D01*
G01X434542Y7332862D01*
G01X420023Y7344778D01*
G01X403458Y7353632D01*
G01X385484Y7359084D01*
G01X366791Y7360925D01*
G01X366791Y7360925D01*
G01X306791Y7360925D01*
G01X288099Y7359084D01*
G01X270125Y7353632D01*
G01X253560Y7344778D01*
G01X239041Y7332862D01*
G01X227125Y7318343D01*
G01X218271Y7301778D01*
G01X212819Y7283804D01*
G01X210977Y7265111D01*
G01X35814Y7265111D01*
G01X35814Y7479561D01*
G01X1662810Y7479561D01*
G01X1664583Y7464385D01*
G01X1669808Y7450027D01*
G01X1678203Y7437261D01*
G01X1689316Y7426775D01*
G01X1702547Y7419133D01*
G01X1717183Y7414749D01*
G01X1732436Y7413857D01*
G01X1747484Y7416507D01*
G01X1761515Y7422555D01*
G01X1774242Y7416912D01*
G01X1787871Y7414072D01*
G01X1801792Y7414163D01*
G01X1815384Y7417180D01*
G01X1828036Y7422988D01*
G01X1842078Y7416729D01*
G01X1857189Y7413899D01*
G01X1872544Y7414652D01*
G01X1887306Y7418946D01*
G01X1900668Y7426548D01*
G01X1911903Y7437043D01*
G01X1920396Y7449857D01*
G01X1925685Y7464292D01*
G01X1927480Y7479561D01*
G01X1925685Y7494829D01*
G01X1920396Y7509264D01*
G01X1911903Y7522079D01*
G01X1900668Y7532573D01*
G01X1887306Y7540175D01*
G01X1872544Y7544469D01*
G01X1857189Y7545222D01*
G01X1842078Y7542392D01*
G01X1828036Y7536133D01*
G01X1815384Y7541942D01*
G01X1801792Y7544959D01*
G01X1787871Y7545049D01*
G01X1774242Y7542210D01*
G01X1761515Y7536566D01*
G01X1747484Y7542614D01*
G01X1732436Y7545264D01*
G01X1717183Y7544373D01*
G01X1702547Y7539988D01*
G01X1689316Y7532347D01*
G01X1678203Y7521860D01*
G01X1669808Y7509094D01*
G01X1664583Y7494736D01*
G01X1662810Y7479561D01*
G01X1662810Y7479561D01*
G01X35814Y7479561D01*
G01X35814Y7715250D01*
G01X89916Y7715250D01*
G01X91909Y7687380D01*
G01X97849Y7660077D01*
G01X107613Y7633898D01*
G01X121004Y7609374D01*
G01X137749Y7587006D01*
G01X157506Y7567249D01*
G01X179874Y7550504D01*
G01X204398Y7537113D01*
G01X230577Y7527349D01*
G01X257880Y7521409D01*
G01X285750Y7519416D01*
G01X313620Y7521409D01*
G01X340923Y7527349D01*
G01X367102Y7537113D01*
G01X391626Y7550504D01*
G01X413994Y7567249D01*
G01X421363Y7574618D01*
G01X1952121Y7574618D01*
G01X1952900Y7558396D01*
G01X1957628Y7542858D01*
G01X1966017Y7528951D01*
G01X1977555Y7517523D01*
G01X1991541Y7509267D01*
G01X2007123Y7504688D01*
G01X2023352Y7504064D01*
G01X2039239Y7507433D01*
G01X2048933Y7497848D01*
G01X2060394Y7490466D01*
G01X2073129Y7485603D01*
G01X2086594Y7483468D01*
G01X2093040Y7468773D01*
G01X2102852Y7456074D01*
G01X2097913Y7440893D01*
G01X2096775Y7424968D01*
G01X2099504Y7409238D01*
G01X2105941Y7394628D01*
G01X2115706Y7381998D01*
G01X2128225Y7372091D01*
G01X2142761Y7365490D01*
G01X2158460Y7362583D01*
G01X2174396Y7363541D01*
G01X2189632Y7368309D01*
G01X2203273Y7376605D01*
G01X2214514Y7387941D01*
G01X2222695Y7401651D01*
G01X2227334Y7416927D01*
G01X2243037Y7420036D01*
G01X2257525Y7426843D01*
G01X2269942Y7436948D01*
G01X2279551Y7449750D01*
G01X2285785Y7464495D01*
G01X2288275Y7480308D01*
G01X2286874Y7496254D01*
G01X2281665Y7511391D01*
G01X2272955Y7524822D01*
G01X2261260Y7535753D01*
G01X2247272Y7543537D01*
G01X2231819Y7547714D01*
G01X2215814Y7548037D01*
G01X2200205Y7544486D01*
G01X2194404Y7550150D01*
G01X2378936Y7550150D01*
G01X2380848Y7534400D01*
G01X2386475Y7519565D01*
G01X2395488Y7506507D01*
G01X2407363Y7495986D01*
G01X2421412Y7488613D01*
G01X2436817Y7484816D01*
G01X2452683Y7484816D01*
G01X2468088Y7488613D01*
G01X2482137Y7495986D01*
G01X2493101Y7505700D01*
G01X2554298Y7505700D01*
G01X2556210Y7489950D01*
G01X2561836Y7475115D01*
G01X2570849Y7462057D01*
G01X2582725Y7451536D01*
G01X2596774Y7444163D01*
G01X2612179Y7440366D01*
G01X2628045Y7440366D01*
G01X2643450Y7444163D01*
G01X2657498Y7451536D01*
G01X2669374Y7462057D01*
G01X2678387Y7475115D01*
G01X2684013Y7489950D01*
G01X2685926Y7505700D01*
G01X2684013Y7521450D01*
G01X2678387Y7536285D01*
G01X2670500Y7547712D01*
G01X2918686Y7547712D01*
G01X2920598Y7531961D01*
G01X2926225Y7517126D01*
G01X2935238Y7504069D01*
G01X2947113Y7493548D01*
G01X2961162Y7486174D01*
G01X2976567Y7482378D01*
G01X2992433Y7482378D01*
G01X3007838Y7486174D01*
G01X3021887Y7493548D01*
G01X3033762Y7504069D01*
G01X3042775Y7517126D01*
G01X3048402Y7531961D01*
G01X3050314Y7547712D01*
G01X3048402Y7563462D01*
G01X3042775Y7578297D01*
G01X3033762Y7591354D01*
G01X3021887Y7601875D01*
G01X3007838Y7609249D01*
G01X2992433Y7613046D01*
G01X2976567Y7613046D01*
G01X2961162Y7609249D01*
G01X2947113Y7601875D01*
G01X2935238Y7591354D01*
G01X2926225Y7578297D01*
G01X2920598Y7563462D01*
G01X2918686Y7547712D01*
G01X2918686Y7547712D01*
G01X2670500Y7547712D01*
G01X2669374Y7549343D01*
G01X2657498Y7559864D01*
G01X2643450Y7567237D01*
G01X2628045Y7571034D01*
G01X2612179Y7571034D01*
G01X2596774Y7567237D01*
G01X2582725Y7559864D01*
G01X2570849Y7549343D01*
G01X2561836Y7536285D01*
G01X2556210Y7521450D01*
G01X2554298Y7505700D01*
G01X2554298Y7505700D01*
G01X2493101Y7505700D01*
G01X2494012Y7506507D01*
G01X2503025Y7519565D01*
G01X2508652Y7534400D01*
G01X2510564Y7550150D01*
G01X2508652Y7565900D01*
G01X2503025Y7580735D01*
G01X2494012Y7593793D01*
G01X2482137Y7604314D01*
G01X2468088Y7611687D01*
G01X2452683Y7615484D01*
G01X2436817Y7615484D01*
G01X2421412Y7611687D01*
G01X2407363Y7604314D01*
G01X2395488Y7593793D01*
G01X2386475Y7580735D01*
G01X2380848Y7565900D01*
G01X2378936Y7550150D01*
G01X2378936Y7550150D01*
G01X2194404Y7550150D01*
G01X2190536Y7553926D01*
G01X2179142Y7561193D01*
G01X2166504Y7565979D01*
G01X2153156Y7568083D01*
G01X2146747Y7582714D01*
G01X2137003Y7595370D01*
G01X2137003Y7595370D01*
G01X2144120Y7608798D01*
G01X2147968Y7623500D01*
G01X2148341Y7638693D01*
G01X2145219Y7653566D01*
G01X2138768Y7667327D01*
G01X2129334Y7679241D01*
G01X2117418Y7688674D01*
G01X2103656Y7695122D01*
G01X2088782Y7698242D01*
G01X2073589Y7697866D01*
G01X2058887Y7694016D01*
G01X2045461Y7686896D01*
G01X2034025Y7676887D01*
G01X2025190Y7664521D01*
G01X2019427Y7650459D01*
G01X2017044Y7635449D01*
G01X2000949Y7633273D01*
G01X1985878Y7627222D01*
G01X1972747Y7617665D01*
G01X1962356Y7605183D01*
G01X1955339Y7590537D01*
G01X1952121Y7574618D01*
G01X421363Y7574618D01*
G01X433751Y7587006D01*
G01X450496Y7609374D01*
G01X463887Y7633898D01*
G01X473651Y7660077D01*
G01X479591Y7687380D01*
G01X481584Y7715250D01*
G01X479591Y7743120D01*
G01X473651Y7770423D01*
G01X463887Y7796602D01*
G01X450496Y7821126D01*
G01X433751Y7843494D01*
G01X413994Y7863251D01*
G01X391626Y7879996D01*
G01X367102Y7893387D01*
G01X340923Y7903151D01*
G01X313620Y7909091D01*
G01X285750Y7911084D01*
G01X257880Y7909091D01*
G01X230577Y7903151D01*
G01X204398Y7893387D01*
G01X179874Y7879996D01*
G01X157506Y7863251D01*
G01X137749Y7843494D01*
G01X121004Y7821126D01*
G01X107613Y7796602D01*
G01X97849Y7770423D01*
G01X91909Y7743120D01*
G01X89916Y7715250D01*
G01X89916Y7715250D01*
G01X35814Y7715250D01*
G01X35814Y7965186D01*
G01X2938558Y7965186D01*
G01X3194672Y7709071D01*
G01X3194672Y7419542D01*
G01X3182986Y7411539D01*
G01X3173283Y7401221D01*
G01X3166012Y7389066D01*
G01X3161510Y7375637D01*
G01X3159986Y7361555D01*
G01X3161510Y7347473D01*
G01X3166012Y7334044D01*
G01X3173283Y7321889D01*
G01X3182986Y7311571D01*
G01X3194672Y7303568D01*
G01X3194672Y7149518D01*
G01X3181977Y7156998D01*
G01X3167936Y7161467D01*
G01X3153252Y7162699D01*
G01X3138663Y7160634D01*
G01X3124898Y7155374D01*
G01X3112649Y7147184D01*
G01X3102529Y7136474D01*
G01X3095045Y7123780D01*
G01X3090573Y7109740D01*
G01X3089337Y7095057D01*
G01X3074588Y7100132D01*
G01X3059058Y7101593D01*
G01X3043621Y7099359D01*
G01X3029144Y7093555D01*
G01X3016438Y7084507D01*
G01X3006219Y7072723D01*
G01X2999060Y7058865D01*
G01X2995363Y7043712D01*
G01X2995336Y7028114D01*
G01X2998981Y7012948D01*
G01X3006092Y6999065D01*
G01X3016270Y6987246D01*
G01X3028944Y6978154D01*
G01X3043402Y6972300D01*
G01X3029533Y6966766D01*
G01X3017269Y6958249D01*
G01X3007240Y6947186D01*
G01X2999963Y6934148D01*
G01X2995813Y6919804D01*
G01X2995002Y6904894D01*
G01X2997573Y6890185D01*
G01X3003394Y6876435D01*
G01X3012165Y6864350D01*
G01X3002810Y6851209D01*
G01X2996933Y6836188D01*
G01X2994887Y6820188D01*
G01X2996793Y6804171D01*
G01X3002538Y6789099D01*
G01X3011777Y6775877D01*
G01X3023955Y6765299D01*
G01X3038339Y6758001D01*
G01X3023067Y6753808D01*
G01X3009239Y6746089D01*
G01X2997655Y6735290D01*
G01X2988987Y6722036D01*
G01X2983735Y6707095D01*
G01X2982205Y6691332D01*
G01X2984484Y6675660D01*
G01X2990441Y6660986D01*
G01X2999732Y6648160D01*
G01X3011817Y6637925D01*
G01X3025997Y6630873D01*
G01X3041451Y6627413D01*
G01X3057285Y6627744D01*
G01X3072581Y6631849D01*
G01X3086453Y6639488D01*
G01X3098099Y6650220D01*
G01X3106844Y6663424D01*
G01X3112182Y6678334D01*
G01X3113803Y6694088D01*
G01X3111614Y6709773D01*
G01X3105742Y6724481D01*
G01X3096526Y6737360D01*
G01X3084500Y6747665D01*
G01X3070361Y6754799D01*
G01X3085592Y6758975D01*
G01X3099390Y6766659D01*
G01X3110960Y6777410D01*
G01X3119636Y6790607D01*
G01X3124917Y6805491D01*
G01X3126501Y6821205D01*
G01X3124295Y6836844D01*
G01X3118427Y6851507D01*
G01X3109235Y6864350D01*
G01X3118006Y6876435D01*
G01X3123827Y6890185D01*
G01X3126398Y6904894D01*
G01X3125587Y6919804D01*
G01X3121437Y6934148D01*
G01X3114160Y6947186D01*
G01X3104131Y6958249D01*
G01X3091867Y6966766D01*
G01X3077998Y6972300D01*
G01X3091565Y6977672D01*
G01X3103615Y6985902D01*
G01X3113555Y6996584D01*
G01X3120897Y7009195D01*
G01X3125279Y7023113D01*
G01X3126488Y7037654D01*
G01X3140043Y7032849D01*
G01X3154318Y7031103D01*
G01X3168632Y7032499D01*
G01X3182301Y7036971D01*
G01X3194672Y7044305D01*
G01X3194672Y6593346D01*
G01X3183528Y6582857D01*
G01X3175107Y6570078D01*
G01X3169865Y6555700D01*
G01X3168086Y6540500D01*
G01X3169865Y6525300D01*
G01X3175107Y6510922D01*
G01X3183528Y6498143D01*
G01X3194672Y6487654D01*
G01X3194672Y6355578D01*
G01X3182893Y6366383D01*
G01X3168855Y6374030D01*
G01X3153389Y6378067D01*
G01X3137405Y6378257D01*
G01X3121847Y6374587D01*
G01X3107632Y6367275D01*
G01X3095600Y6356751D01*
G01X3086459Y6343637D01*
G01X3080750Y6328707D01*
G01X3078809Y6312840D01*
G01X3080750Y6296973D01*
G01X3086459Y6282042D01*
G01X3095600Y6268928D01*
G01X3107632Y6258405D01*
G01X3121847Y6251093D01*
G01X3137405Y6247423D01*
G01X3153389Y6247612D01*
G01X3168855Y6251649D01*
G01X3182893Y6259296D01*
G01X3194672Y6270102D01*
G01X3194672Y5988202D01*
G01X3181128Y5993963D01*
G01X3166641Y5996571D01*
G01X3173545Y6010549D01*
G01X3176968Y6025760D01*
G01X3176716Y6041348D01*
G01X3172805Y6056441D01*
G01X3165454Y6070189D01*
G01X3155074Y6081823D01*
G01X3142250Y6090689D01*
G01X3127700Y6096289D01*
G01X3112240Y6098310D01*
G01X3096740Y6096637D01*
G01X3082067Y6091366D01*
G01X3069046Y6082791D01*
G01X3058408Y6071394D01*
G01X3050749Y6057814D01*
G01X3046499Y6042813D01*
G01X3045897Y6027234D01*
G01X3048976Y6011951D01*
G01X3055564Y5997820D01*
G01X3065291Y5985636D01*
G01X3077611Y5976082D01*
G01X3091833Y5969693D01*
G01X3107159Y5966829D01*
G01X3100604Y5953814D01*
G01X3097074Y5939675D01*
G01X3096742Y5925107D01*
G01X3099624Y5910822D01*
G01X3105578Y5897521D01*
G01X3114314Y5885857D01*
G01X3125403Y5876402D01*
G01X3138300Y5869618D01*
G01X3152374Y5865839D01*
G01X3166935Y5865249D01*
G01X3181269Y5867879D01*
G01X3194672Y5873598D01*
G01X3194672Y5611698D01*
G01X3185380Y5601456D01*
G01X3178434Y5589498D01*
G01X3174139Y5576353D01*
G01X3172686Y5562600D01*
G01X3174139Y5548847D01*
G01X3178434Y5535702D01*
G01X3185380Y5523744D01*
G01X3194672Y5513502D01*
G01X3194672Y5380368D01*
G01X3195446Y5376480D01*
G01X3197648Y5373183D01*
G01X3269416Y5301416D01*
G01X3272712Y5299213D01*
G01X3276600Y5298440D01*
G01X3909969Y5298440D01*
G01X3900570Y5286854D01*
G01X3894022Y5273449D01*
G01X3890661Y5258913D01*
G01X3890660Y5243994D01*
G01X3877261Y5237746D01*
G01X3865595Y5228664D01*
G01X3856251Y5217208D01*
G01X3849699Y5203955D01*
G01X3846271Y5189574D01*
G01X3846139Y5174791D01*
G01X3849311Y5160351D01*
G01X3855625Y5146984D01*
G01X3864764Y5135363D01*
G01X3876266Y5126075D01*
G01X3889551Y5119589D01*
G01X3903949Y5116232D01*
G01X3918733Y5116174D01*
G01X3933156Y5119416D01*
G01X3946493Y5125797D01*
G01X3958068Y5134993D01*
G01X3967299Y5146541D01*
G01X3973719Y5159858D01*
G01X3977005Y5174272D01*
G01X3976990Y5189056D01*
G01X3990490Y5195366D01*
G01X4002224Y5204552D01*
G01X4011591Y5216141D01*
G01X4018110Y5229541D01*
G01X4021448Y5244064D01*
G01X4021433Y5258966D01*
G01X4018067Y5273482D01*
G01X4011520Y5286869D01*
G01X4002131Y5298440D01*
G01X5235634Y5298440D01*
G01X5240714Y5299801D01*
G01X5244432Y5303520D01*
G01X5245794Y5308600D01*
G01X5245794Y5905500D01*
G01X5445986Y5905500D01*
G01X5447898Y5889750D01*
G01X5453525Y5874915D01*
G01X5462538Y5861857D01*
G01X5474413Y5851336D01*
G01X5488462Y5843963D01*
G01X5503867Y5840166D01*
G01X5519733Y5840166D01*
G01X5535138Y5843963D01*
G01X5549187Y5851336D01*
G01X5561062Y5861857D01*
G01X5570075Y5874915D01*
G01X5575702Y5889750D01*
G01X5577614Y5905500D01*
G01X5575702Y5921250D01*
G01X5570075Y5936085D01*
G01X5561062Y5949143D01*
G01X5549187Y5959664D01*
G01X5535138Y5967037D01*
G01X5519733Y5970834D01*
G01X5503867Y5970834D01*
G01X5488462Y5967037D01*
G01X5474413Y5959664D01*
G01X5462538Y5949143D01*
G01X5453525Y5936085D01*
G01X5447898Y5921250D01*
G01X5445986Y5905500D01*
G01X5445986Y5905500D01*
G01X5245794Y5905500D01*
G01X5245794Y6089650D01*
G01X5363436Y6089650D01*
G01X5365348Y6073900D01*
G01X5370975Y6059065D01*
G01X5379988Y6046007D01*
G01X5391863Y6035486D01*
G01X5405912Y6028113D01*
G01X5421317Y6024316D01*
G01X5437183Y6024316D01*
G01X5452588Y6028113D01*
G01X5466637Y6035486D01*
G01X5478512Y6046007D01*
G01X5487525Y6059065D01*
G01X5493152Y6073900D01*
G01X5495064Y6089650D01*
G01X5493152Y6105400D01*
G01X5487525Y6120235D01*
G01X5478512Y6133293D01*
G01X5466637Y6143814D01*
G01X5452588Y6151187D01*
G01X5437183Y6154984D01*
G01X5421317Y6154984D01*
G01X5405912Y6151187D01*
G01X5391863Y6143814D01*
G01X5379988Y6133293D01*
G01X5370975Y6120235D01*
G01X5365348Y6105400D01*
G01X5363436Y6089650D01*
G01X5363436Y6089650D01*
G01X5245794Y6089650D01*
G01X5245794Y6273800D01*
G01X5293586Y6273800D01*
G01X5295498Y6258050D01*
G01X5301125Y6243215D01*
G01X5310138Y6230157D01*
G01X5322013Y6219636D01*
G01X5336062Y6212263D01*
G01X5351467Y6208466D01*
G01X5367333Y6208466D01*
G01X5382738Y6212263D01*
G01X5396787Y6219636D01*
G01X5408662Y6230157D01*
G01X5417675Y6243215D01*
G01X5423302Y6258050D01*
G01X5425214Y6273800D01*
G01X5423302Y6289550D01*
G01X5417675Y6304385D01*
G01X5417006Y6305354D01*
G01X5446274Y6305354D01*
G01X5446713Y6289444D01*
G01X5450958Y6274105D01*
G01X5458762Y6260233D01*
G01X5469667Y6248640D01*
G01X5469667Y6248640D01*
G01X5483036Y6240004D01*
G01X5498088Y6234830D01*
G01X5513941Y6233421D01*
G01X5529670Y6235858D01*
G01X5544353Y6242000D01*
G01X5557132Y6251488D01*
G01X5567260Y6263765D01*
G01X5574145Y6278115D01*
G01X5577384Y6293698D01*
G01X5576787Y6309603D01*
G01X5592538Y6311884D01*
G01X5607282Y6317879D01*
G01X5620155Y6327239D01*
G01X5630405Y6339415D01*
G01X5637432Y6353696D01*
G01X5640826Y6369246D01*
G01X5640387Y6385156D01*
G01X5636142Y6400495D01*
G01X5628338Y6414367D01*
G01X5617433Y6425960D01*
G01X5604064Y6434596D01*
G01X5589012Y6439770D01*
G01X5573159Y6441179D01*
G01X5557430Y6438742D01*
G01X5542747Y6432600D01*
G01X5529968Y6423112D01*
G01X5519840Y6410835D01*
G01X5512955Y6396485D01*
G01X5509716Y6380902D01*
G01X5510313Y6364997D01*
G01X5494562Y6362716D01*
G01X5479818Y6356721D01*
G01X5466945Y6347361D01*
G01X5456695Y6335185D01*
G01X5449668Y6320904D01*
G01X5446274Y6305354D01*
G01X5417006Y6305354D01*
G01X5408662Y6317443D01*
G01X5396787Y6327964D01*
G01X5382738Y6335337D01*
G01X5367333Y6339134D01*
G01X5351467Y6339134D01*
G01X5336062Y6335337D01*
G01X5322013Y6327964D01*
G01X5310138Y6317443D01*
G01X5301125Y6304385D01*
G01X5295498Y6289550D01*
G01X5293586Y6273800D01*
G01X5293586Y6273800D01*
G01X5245794Y6273800D01*
G01X5245794Y6781800D01*
G01X5280886Y6781800D01*
G01X5282798Y6766050D01*
G01X5288425Y6751215D01*
G01X5297438Y6738157D01*
G01X5309313Y6727636D01*
G01X5323362Y6720263D01*
G01X5338767Y6716466D01*
G01X5354633Y6716466D01*
G01X5370038Y6720263D01*
G01X5384087Y6727636D01*
G01X5395962Y6738157D01*
G01X5404975Y6751215D01*
G01X5410602Y6766050D01*
G01X5412514Y6781800D01*
G01X5410602Y6797550D01*
G01X5404975Y6812385D01*
G01X5395962Y6825443D01*
G01X5384087Y6835964D01*
G01X5370038Y6843337D01*
G01X5354633Y6847134D01*
G01X5338767Y6847134D01*
G01X5323362Y6843337D01*
G01X5309313Y6835964D01*
G01X5297438Y6825443D01*
G01X5288425Y6812385D01*
G01X5282798Y6797550D01*
G01X5280886Y6781800D01*
G01X5280886Y6781800D01*
G01X5245794Y6781800D01*
G01X5245794Y6908800D01*
G01X5395186Y6908800D01*
G01X5397098Y6893050D01*
G01X5402725Y6878215D01*
G01X5411738Y6865157D01*
G01X5423613Y6854636D01*
G01X5437662Y6847263D01*
G01X5453067Y6843466D01*
G01X5468933Y6843466D01*
G01X5484338Y6847263D01*
G01X5498387Y6854636D01*
G01X5510262Y6865157D01*
G01X5519275Y6878215D01*
G01X5524902Y6893050D01*
G01X5526814Y6908800D01*
G01X5524902Y6924550D01*
G01X5519275Y6939385D01*
G01X5510262Y6952443D01*
G01X5498387Y6962964D01*
G01X5484338Y6970337D01*
G01X5468933Y6974134D01*
G01X5453067Y6974134D01*
G01X5437662Y6970337D01*
G01X5423613Y6962964D01*
G01X5411738Y6952443D01*
G01X5402725Y6939385D01*
G01X5397098Y6924550D01*
G01X5395186Y6908800D01*
G01X5395186Y6908800D01*
G01X5245794Y6908800D01*
G01X5245794Y7124700D01*
G01X5407886Y7124700D01*
G01X5409798Y7108950D01*
G01X5415425Y7094115D01*
G01X5424438Y7081057D01*
G01X5436313Y7070536D01*
G01X5450362Y7063163D01*
G01X5465767Y7059366D01*
G01X5481633Y7059366D01*
G01X5497038Y7063163D01*
G01X5511087Y7070536D01*
G01X5522962Y7081057D01*
G01X5531975Y7094115D01*
G01X5537602Y7108950D01*
G01X5539514Y7124700D01*
G01X5537602Y7140450D01*
G01X5531975Y7155285D01*
G01X5522962Y7168343D01*
G01X5511087Y7178864D01*
G01X5497038Y7186237D01*
G01X5481633Y7190034D01*
G01X5465767Y7190034D01*
G01X5450362Y7186237D01*
G01X5436313Y7178864D01*
G01X5424438Y7168343D01*
G01X5415425Y7155285D01*
G01X5409798Y7140450D01*
G01X5407886Y7124700D01*
G01X5407886Y7124700D01*
G01X5245794Y7124700D01*
G01X5245794Y7211857D01*
G01X5373047Y7339111D01*
G01X6000209Y7339111D01*
G01X6000209Y35814D01*
G01X3743960Y35814D01*
G01X3743960Y203200D01*
G01X3887887Y203200D01*
G01X3889898Y181710D01*
G01X3895861Y160967D01*
G01X3905570Y141691D01*
G01X3918688Y124551D01*
G01X3934757Y110142D01*
G01X3953222Y98966D01*
G01X3973439Y91410D01*
G01X3994708Y87736D01*
G01X4016288Y88072D01*
G01X4037432Y92407D01*
G01X4057404Y100590D01*
G01X4075511Y112337D01*
G01X4091124Y127239D01*
G01X4103700Y144780D01*
G01X4115300Y128378D01*
G01X4129560Y114228D01*
G01X4146050Y102754D01*
G01X4164275Y94303D01*
G01X4183687Y89129D01*
G01X4203700Y87386D01*
G01X4203700Y87386D01*
G01X4223713Y89129D01*
G01X4243125Y94303D01*
G01X4261350Y102754D01*
G01X4277840Y114228D01*
G01X4292100Y128378D01*
G01X4303700Y144780D01*
G01X4315371Y128294D01*
G01X4329728Y114087D01*
G01X4346336Y102591D01*
G01X4364689Y94154D01*
G01X4384228Y89035D01*
G01X4404359Y87388D01*
G01X4424471Y89264D01*
G01X4443950Y94606D01*
G01X4462206Y103251D01*
G01X4478681Y114936D01*
G01X4492876Y129306D01*
G01X4504358Y145923D01*
G01X4512779Y164283D01*
G01X4517882Y183827D01*
G01X4519511Y203959D01*
G01X4518387Y215900D01*
G01X4738787Y215900D01*
G01X4740798Y194410D01*
G01X4746761Y173667D01*
G01X4756470Y154391D01*
G01X4769588Y137251D01*
G01X4785657Y122842D01*
G01X4804122Y111666D01*
G01X4824339Y104110D01*
G01X4845608Y100436D01*
G01X4867188Y100772D01*
G01X4888332Y105107D01*
G01X4908304Y113290D01*
G01X4926411Y125037D01*
G01X4942024Y139939D01*
G01X4954600Y157480D01*
G01X4966200Y141078D01*
G01X4980460Y126928D01*
G01X4996950Y115454D01*
G01X5015175Y107003D01*
G01X5034587Y101829D01*
G01X5054600Y100086D01*
G01X5074613Y101829D01*
G01X5094025Y107003D01*
G01X5112250Y115454D01*
G01X5128740Y126928D01*
G01X5143000Y141078D01*
G01X5154600Y157480D01*
G01X5167176Y139939D01*
G01X5182789Y125037D01*
G01X5200896Y113290D01*
G01X5220868Y105107D01*
G01X5242012Y100772D01*
G01X5263592Y100436D01*
G01X5284861Y104110D01*
G01X5305078Y111666D01*
G01X5323543Y122842D01*
G01X5339612Y137251D01*
G01X5352730Y154391D01*
G01X5362439Y173667D01*
G01X5368402Y194410D01*
G01X5370413Y215900D01*
G01X5370413Y215900D01*
G01X5368402Y237390D01*
G01X5362439Y258133D01*
G01X5352730Y277409D01*
G01X5346346Y285750D01*
G01X5563616Y285750D01*
G01X5565609Y257880D01*
G01X5571549Y230577D01*
G01X5581313Y204398D01*
G01X5594704Y179874D01*
G01X5611449Y157506D01*
G01X5631206Y137749D01*
G01X5653574Y121004D01*
G01X5678098Y107613D01*
G01X5704277Y97849D01*
G01X5731580Y91909D01*
G01X5759450Y89916D01*
G01X5787320Y91909D01*
G01X5814623Y97849D01*
G01X5840802Y107613D01*
G01X5865326Y121004D01*
G01X5887694Y137749D01*
G01X5907451Y157506D01*
G01X5924196Y179874D01*
G01X5937587Y204398D01*
G01X5947351Y230577D01*
G01X5953291Y257880D01*
G01X5955284Y285750D01*
G01X5953291Y313620D01*
G01X5947351Y340923D01*
G01X5937587Y367102D01*
G01X5924196Y391626D01*
G01X5907451Y413994D01*
G01X5887694Y433751D01*
G01X5865326Y450496D01*
G01X5840802Y463887D01*
G01X5814623Y473651D01*
G01X5787320Y479591D01*
G01X5759450Y481584D01*
G01X5731580Y479591D01*
G01X5704277Y473651D01*
G01X5678098Y463887D01*
G01X5653574Y450496D01*
G01X5631206Y433751D01*
G01X5611449Y413994D01*
G01X5594704Y391626D01*
G01X5581313Y367102D01*
G01X5571549Y340923D01*
G01X5565609Y313620D01*
G01X5563616Y285750D01*
G01X5563616Y285750D01*
G01X5346346Y285750D01*
G01X5339612Y294549D01*
G01X5323543Y308958D01*
G01X5305078Y320134D01*
G01X5284861Y327690D01*
G01X5263592Y331364D01*
G01X5242012Y331028D01*
G01X5220868Y326693D01*
G01X5200896Y318510D01*
G01X5182789Y306763D01*
G01X5167176Y291861D01*
G01X5154600Y274320D01*
G01X5143000Y290722D01*
G01X5128740Y304872D01*
G01X5112250Y316346D01*
G01X5094025Y324797D01*
G01X5074613Y329971D01*
G01X5054600Y331714D01*
G01X5034587Y329971D01*
G01X5015175Y324797D01*
G01X4996950Y316346D01*
G01X4980460Y304872D01*
G01X4966200Y290722D01*
G01X4954600Y274320D01*
G01X4942024Y291861D01*
G01X4926411Y306763D01*
G01X4908304Y318510D01*
G01X4888332Y326693D01*
G01X4867188Y331028D01*
G01X4845608Y331364D01*
G01X4824339Y327690D01*
G01X4804122Y320134D01*
G01X4785657Y308958D01*
G01X4769588Y294549D01*
G01X4756470Y277409D01*
G01X4746761Y258133D01*
G01X4740798Y237390D01*
G01X4738787Y215900D01*
G01X4518387Y215900D01*
G01X4517618Y224069D01*
G01X4512259Y243544D01*
G01X4503599Y261792D01*
G01X4491899Y278258D01*
G01X4477517Y292440D01*
G01X4460890Y303908D01*
G01X4442523Y312313D01*
G01X4422975Y317399D01*
G01X4402840Y319011D01*
G01X4382732Y317100D01*
G01X4363262Y311725D01*
G01X4368859Y325819D01*
G01X4371081Y340819D01*
G01X4369811Y355930D01*
G01X4365116Y370350D01*
G01X4357246Y383312D01*
G01X4346618Y394128D01*
G01X4333796Y402225D01*
G01X4319461Y407172D01*
G01X4304375Y408707D01*
G01X4289338Y406749D01*
G01X4275148Y401401D01*
G01X4262559Y392946D01*
G01X4252239Y381835D01*
G01X4244736Y368657D01*
G01X4240448Y354112D01*
G01X4239603Y338971D01*
G01X4242247Y324039D01*
G01X4248237Y310108D01*
G01X4232722Y315318D01*
G01X4216628Y318290D01*
G01X4200275Y318963D01*
G01X4214680Y326155D01*
G01X4226908Y336630D01*
G01X4236227Y349760D01*
G01X4242079Y364759D01*
G01X4244113Y380731D01*
G01X4242209Y396719D01*
G01X4236480Y411766D01*
G01X4227269Y424971D01*
G01X4215127Y435546D01*
G01X4200782Y442855D01*
G01X4185090Y446463D01*
G01X4168993Y446152D01*
G01X4153452Y441943D01*
G01X4139398Y434086D01*
G01X4127673Y423052D01*
G01X4118978Y409501D01*
G01X4113833Y394245D01*
G01X4112546Y378195D01*
G01X4115194Y362314D01*
G01X4121620Y347551D01*
G01X4131438Y334790D01*
G01X4144060Y324794D01*
G01X4158731Y318163D01*
G01X4174574Y315292D01*
G01X4157346Y309333D01*
G01X4141265Y300744D01*
G01X4126732Y289738D01*
G01X4114106Y276588D01*
G01X4103700Y261620D01*
G01X4091124Y279161D01*
G01X4075511Y294063D01*
G01X4057404Y305810D01*
G01X4037432Y313993D01*
G01X4016288Y318328D01*
G01X3994708Y318664D01*
G01X3973439Y314990D01*
G01X3953222Y307434D01*
G01X3934757Y296258D01*
G01X3918688Y281849D01*
G01X3905570Y264709D01*
G01X3895861Y245433D01*
G01X3889898Y224690D01*
G01X3887887Y203200D01*
G01X3743960Y203200D01*
G01X3743960Y523900D01*
G01X4479186Y523900D01*
G01X4481098Y508150D01*
G01X4486724Y493315D01*
G01X4495737Y480258D01*
G01X4507613Y469737D01*
G01X4521662Y462363D01*
G01X4537067Y458566D01*
G01X4552933Y458566D01*
G01X4568338Y462363D01*
G01X4582386Y469737D01*
G01X4594262Y480258D01*
G01X4603275Y493315D01*
G01X4608901Y508150D01*
G01X4610814Y523900D01*
G01X4608901Y539651D01*
G01X4603275Y554486D01*
G01X4594262Y567543D01*
G01X4582386Y578064D01*
G01X4568338Y585438D01*
G01X4552933Y589234D01*
G01X4537067Y589234D01*
G01X4521662Y585438D01*
G01X4507613Y578064D01*
G01X4495737Y567543D01*
G01X4486724Y554486D01*
G01X4481098Y539651D01*
G01X4479186Y523900D01*
G01X4479186Y523900D01*
G01X3743960Y523900D01*
G01X3743960Y736600D01*
G01X3887887Y736600D01*
G01X3889898Y715110D01*
G01X3895861Y694367D01*
G01X3905570Y675091D01*
G01X3918688Y657951D01*
G01X3934757Y643542D01*
G01X3953222Y632366D01*
G01X3973439Y624810D01*
G01X3994708Y621136D01*
G01X4016288Y621472D01*
G01X4037432Y625807D01*
G01X4057404Y633990D01*
G01X4075511Y645737D01*
G01X4091124Y660639D01*
G01X4103700Y678180D01*
G01X4115300Y661778D01*
G01X4129560Y647628D01*
G01X4146050Y636154D01*
G01X4164275Y627703D01*
G01X4183687Y622529D01*
G01X4203700Y620786D01*
G01X4223713Y622529D01*
G01X4243125Y627703D01*
G01X4261350Y636154D01*
G01X4277840Y647628D01*
G01X4292100Y661778D01*
G01X4303700Y678180D01*
G01X4303700Y678180D01*
G01X4316276Y660639D01*
G01X4331889Y645737D01*
G01X4349996Y633990D01*
G01X4369968Y625807D01*
G01X4391112Y621472D01*
G01X4412692Y621136D01*
G01X4433961Y624810D01*
G01X4454178Y632366D01*
G01X4472643Y643542D01*
G01X4488712Y657951D01*
G01X4501830Y675091D01*
G01X4511539Y694367D01*
G01X4517502Y715110D01*
G01X4519513Y736600D01*
G01X4738787Y736600D01*
G01X4740798Y715110D01*
G01X4746761Y694367D01*
G01X4756470Y675091D01*
G01X4769588Y657951D01*
G01X4785657Y643542D01*
G01X4804122Y632366D01*
G01X4824339Y624810D01*
G01X4845608Y621136D01*
G01X4867188Y621472D01*
G01X4888332Y625807D01*
G01X4908304Y633990D01*
G01X4926411Y645737D01*
G01X4942024Y660639D01*
G01X4954600Y678180D01*
G01X4966200Y661778D01*
G01X4980460Y647628D01*
G01X4996950Y636154D01*
G01X5015175Y627703D01*
G01X5034587Y622529D01*
G01X5054600Y620786D01*
G01X5074613Y622529D01*
G01X5094025Y627703D01*
G01X5112250Y636154D01*
G01X5128740Y647628D01*
G01X5143000Y661778D01*
G01X5154600Y678180D01*
G01X5154600Y678180D01*
G01X5167176Y660639D01*
G01X5182789Y645737D01*
G01X5200896Y633990D01*
G01X5220868Y625807D01*
G01X5242012Y621472D01*
G01X5263592Y621136D01*
G01X5284861Y624810D01*
G01X5305078Y632366D01*
G01X5323543Y643542D01*
G01X5339612Y657951D01*
G01X5352730Y675091D01*
G01X5362439Y694367D01*
G01X5368402Y715110D01*
G01X5370413Y736600D01*
G01X5368402Y758090D01*
G01X5362439Y778833D01*
G01X5352730Y798109D01*
G01X5339612Y815249D01*
G01X5323543Y829658D01*
G01X5305078Y840834D01*
G01X5284861Y848390D01*
G01X5263592Y852064D01*
G01X5242012Y851728D01*
G01X5220868Y847393D01*
G01X5200896Y839210D01*
G01X5182789Y827463D01*
G01X5167176Y812561D01*
G01X5154600Y795020D01*
G01X5143000Y811422D01*
G01X5128740Y825572D01*
G01X5112250Y837046D01*
G01X5094025Y845497D01*
G01X5074613Y850671D01*
G01X5054600Y852414D01*
G01X5034587Y850671D01*
G01X5015175Y845497D01*
G01X4996950Y837046D01*
G01X4980460Y825572D01*
G01X4966200Y811422D01*
G01X4954600Y795020D01*
G01X4942024Y812561D01*
G01X4926411Y827463D01*
G01X4908304Y839210D01*
G01X4888332Y847393D01*
G01X4867188Y851728D01*
G01X4845608Y852064D01*
G01X4824339Y848390D01*
G01X4804122Y840834D01*
G01X4785657Y829658D01*
G01X4769588Y815249D01*
G01X4756470Y798109D01*
G01X4746761Y778833D01*
G01X4740798Y758090D01*
G01X4738787Y736600D01*
G01X4519513Y736600D01*
G01X4517502Y758090D01*
G01X4511539Y778833D01*
G01X4501830Y798109D01*
G01X4488712Y815249D01*
G01X4472643Y829658D01*
G01X4454178Y840834D01*
G01X4433961Y848390D01*
G01X4412692Y852064D01*
G01X4391112Y851728D01*
G01X4369968Y847393D01*
G01X4349996Y839210D01*
G01X4331889Y827463D01*
G01X4316276Y812561D01*
G01X4303700Y795020D01*
G01X4292100Y811422D01*
G01X4277840Y825572D01*
G01X4261350Y837046D01*
G01X4243125Y845497D01*
G01X4223713Y850671D01*
G01X4203700Y852414D01*
G01X4183687Y850671D01*
G01X4164275Y845497D01*
G01X4146050Y837046D01*
G01X4129560Y825572D01*
G01X4115300Y811422D01*
G01X4103700Y795020D01*
G01X4091124Y812561D01*
G01X4075511Y827463D01*
G01X4057404Y839210D01*
G01X4037432Y847393D01*
G01X4016288Y851728D01*
G01X3994708Y852064D01*
G01X3973439Y848390D01*
G01X3953222Y840834D01*
G01X3934757Y829658D01*
G01X3918688Y815249D01*
G01X3905570Y798109D01*
G01X3895861Y778833D01*
G01X3889898Y758090D01*
G01X3887887Y736600D01*
G01X3743960Y736600D01*
G01X3743960Y1181100D01*
G01X3933822Y1181100D01*
G01X3935735Y1165350D01*
G01X3941361Y1150515D01*
G01X3950374Y1137457D01*
G01X3962250Y1126936D01*
G01X3976298Y1119563D01*
G01X3991703Y1115766D01*
G01X4007569Y1115766D01*
G01X4022974Y1119563D01*
G01X4037023Y1126936D01*
G01X4048899Y1137457D01*
G01X4057912Y1150515D01*
G01X4063538Y1165350D01*
G01X4063680Y1166520D01*
G01X5649186Y1166520D01*
G01X5651098Y1150770D01*
G01X5656725Y1135935D01*
G01X5665738Y1122878D01*
G01X5677613Y1112357D01*
G01X5691662Y1104983D01*
G01X5707067Y1101186D01*
G01X5722933Y1101186D01*
G01X5738338Y1104983D01*
G01X5752387Y1112357D01*
G01X5764262Y1122878D01*
G01X5773275Y1135935D01*
G01X5778902Y1150770D01*
G01X5780814Y1166520D01*
G01X5778902Y1182271D01*
G01X5773275Y1197106D01*
G01X5764262Y1210163D01*
G01X5752387Y1220684D01*
G01X5738338Y1228058D01*
G01X5722933Y1231854D01*
G01X5707067Y1231854D01*
G01X5691662Y1228058D01*
G01X5677613Y1220684D01*
G01X5665738Y1210163D01*
G01X5656725Y1197106D01*
G01X5651098Y1182271D01*
G01X5649186Y1166520D01*
G01X5649186Y1166520D01*
G01X4063680Y1166520D01*
G01X4065450Y1181100D01*
G01X4063538Y1196850D01*
G01X4057912Y1211685D01*
G01X4048899Y1224743D01*
G01X4037023Y1235264D01*
G01X4022974Y1242637D01*
G01X4007569Y1246434D01*
G01X3991703Y1246434D01*
G01X3976298Y1242637D01*
G01X3962250Y1235264D01*
G01X3950374Y1224743D01*
G01X3941361Y1211685D01*
G01X3935735Y1196850D01*
G01X3933822Y1181100D01*
G01X3933822Y1181100D01*
G01X3743960Y1181100D01*
G01X3743960Y1270000D01*
G01X3833086Y1270000D01*
G01X3834998Y1254250D01*
G01X3840625Y1239415D01*
G01X3849638Y1226357D01*
G01X3861513Y1215836D01*
G01X3875562Y1208463D01*
G01X3890967Y1204666D01*
G01X3906833Y1204666D01*
G01X3922238Y1208463D01*
G01X3936287Y1215836D01*
G01X3948162Y1226357D01*
G01X3957175Y1239415D01*
G01X3962802Y1254250D01*
G01X3964714Y1270000D01*
G01X3962802Y1285750D01*
G01X3957175Y1300585D01*
G01X3948162Y1313643D01*
G01X3936287Y1324164D01*
G01X3922238Y1331537D01*
G01X3906833Y1335334D01*
G01X3890967Y1335334D01*
G01X3875562Y1331537D01*
G01X3861513Y1324164D01*
G01X3849638Y1313643D01*
G01X3840625Y1300585D01*
G01X3834998Y1285750D01*
G01X3833086Y1270000D01*
G01X3833086Y1270000D01*
G01X3743960Y1270000D01*
G01X3743960Y1316592D01*
G01X3763408Y1336040D01*
G01X4610440Y1336040D01*
G01X4614328Y1336813D01*
G01X4617624Y1339016D01*
G01X4706184Y1427576D01*
G01X4708387Y1430872D01*
G01X4709160Y1434760D01*
G01X4709160Y1473513D01*
G01X4720143Y1481546D01*
G01X4728019Y1489463D01*
G01X4732656Y1498600D01*
G01X5331686Y1498600D01*
G01X5333598Y1482850D01*
G01X5339225Y1468015D01*
G01X5348238Y1454957D01*
G01X5360113Y1444436D01*
G01X5374162Y1437063D01*
G01X5389567Y1433266D01*
G01X5405433Y1433266D01*
G01X5420838Y1437063D01*
G01X5434887Y1444436D01*
G01X5446762Y1454957D01*
G01X5455775Y1468015D01*
G01X5461402Y1482850D01*
G01X5463314Y1498600D01*
G01X5461402Y1514350D01*
G01X5455775Y1529185D01*
G01X5446762Y1542243D01*
G01X5438684Y1549400D01*
G01X5649186Y1549400D01*
G01X5651098Y1533650D01*
G01X5656725Y1518815D01*
G01X5665738Y1505757D01*
G01X5677613Y1495236D01*
G01X5691662Y1487863D01*
G01X5707067Y1484066D01*
G01X5722933Y1484066D01*
G01X5738338Y1487863D01*
G01X5752387Y1495236D01*
G01X5764262Y1505757D01*
G01X5773275Y1518815D01*
G01X5778902Y1533650D01*
G01X5780814Y1549400D01*
G01X5778902Y1565150D01*
G01X5773275Y1579985D01*
G01X5764262Y1593043D01*
G01X5752387Y1603564D01*
G01X5738338Y1610937D01*
G01X5722933Y1614734D01*
G01X5707067Y1614734D01*
G01X5691662Y1610937D01*
G01X5677613Y1603564D01*
G01X5665738Y1593043D01*
G01X5656725Y1579985D01*
G01X5651098Y1565150D01*
G01X5649186Y1549400D01*
G01X5649186Y1549400D01*
G01X5438684Y1549400D01*
G01X5434887Y1552764D01*
G01X5420838Y1560137D01*
G01X5405433Y1563934D01*
G01X5389567Y1563934D01*
G01X5374162Y1560137D01*
G01X5360113Y1552764D01*
G01X5348238Y1542243D01*
G01X5339225Y1529185D01*
G01X5333598Y1514350D01*
G01X5331686Y1498600D01*
G01X5331686Y1498600D01*
G01X4732656Y1498600D01*
G01X4733073Y1499422D01*
G01X4734814Y1510453D01*
G01X4734814Y1803400D01*
G01X5407886Y1803400D01*
G01X5409798Y1787650D01*
G01X5415425Y1772815D01*
G01X5424438Y1759757D01*
G01X5436313Y1749236D01*
G01X5450362Y1741863D01*
G01X5465767Y1738066D01*
G01X5481633Y1738066D01*
G01X5497038Y1741863D01*
G01X5511087Y1749236D01*
G01X5522962Y1759757D01*
G01X5531975Y1772815D01*
G01X5537602Y1787650D01*
G01X5539514Y1803400D01*
G01X5537602Y1819150D01*
G01X5531975Y1833985D01*
G01X5522962Y1847043D01*
G01X5514884Y1854200D01*
G01X5649186Y1854200D01*
G01X5651098Y1838450D01*
G01X5656725Y1823615D01*
G01X5665738Y1810557D01*
G01X5677613Y1800036D01*
G01X5691662Y1792663D01*
G01X5707067Y1788866D01*
G01X5722933Y1788866D01*
G01X5738338Y1792663D01*
G01X5752387Y1800036D01*
G01X5764262Y1810557D01*
G01X5773275Y1823615D01*
G01X5778902Y1838450D01*
G01X5780814Y1854200D01*
G01X5778902Y1869950D01*
G01X5773275Y1884785D01*
G01X5764262Y1897843D01*
G01X5752387Y1908364D01*
G01X5738338Y1915737D01*
G01X5722933Y1919534D01*
G01X5707067Y1919534D01*
G01X5691662Y1915737D01*
G01X5677613Y1908364D01*
G01X5665738Y1897843D01*
G01X5656725Y1884785D01*
G01X5651098Y1869950D01*
G01X5649186Y1854200D01*
G01X5649186Y1854200D01*
G01X5514884Y1854200D01*
G01X5511087Y1857564D01*
G01X5497038Y1864937D01*
G01X5481633Y1868734D01*
G01X5465767Y1868734D01*
G01X5450362Y1864937D01*
G01X5436313Y1857564D01*
G01X5424438Y1847043D01*
G01X5415425Y1833985D01*
G01X5409798Y1819150D01*
G01X5407886Y1803400D01*
G01X5407886Y1803400D01*
G01X4734814Y1803400D01*
G01X4734814Y2158148D01*
G01X4734702Y2159000D01*
G01X5433286Y2159000D01*
G01X5435198Y2143250D01*
G01X5440825Y2128415D01*
G01X5449838Y2115357D01*
G01X5461713Y2104836D01*
G01X5475762Y2097463D01*
G01X5491167Y2093666D01*
G01X5507033Y2093666D01*
G01X5522438Y2097463D01*
G01X5536487Y2104836D01*
G01X5548362Y2115357D01*
G01X5557375Y2128415D01*
G01X5563002Y2143250D01*
G01X5564914Y2159000D01*
G01X5563002Y2174750D01*
G01X5557375Y2189585D01*
G01X5548362Y2202643D01*
G01X5536487Y2213164D01*
G01X5522438Y2220537D01*
G01X5507033Y2224334D01*
G01X5491167Y2224334D01*
G01X5475762Y2220537D01*
G01X5461713Y2213164D01*
G01X5449838Y2202643D01*
G01X5440825Y2189585D01*
G01X5435198Y2174750D01*
G01X5433286Y2159000D01*
G01X5433286Y2159000D01*
G01X4734702Y2159000D01*
G01X4733594Y2167418D01*
G01X4730016Y2176055D01*
G01X4724324Y2183473D01*
G01X4709160Y2198637D01*
G01X4709160Y2236522D01*
G01X4708387Y2240410D01*
G01X4706184Y2243706D01*
G01X4524190Y2425700D01*
G01X4552386Y2425700D01*
G01X4554299Y2409950D01*
G01X4559925Y2395115D01*
G01X4568938Y2382057D01*
G01X4580813Y2371536D01*
G01X4594862Y2364163D01*
G01X4610267Y2360366D01*
G01X4626133Y2360366D01*
G01X4641538Y2364163D01*
G01X4655587Y2371536D01*
G01X4667463Y2382057D01*
G01X4676475Y2395115D01*
G01X4682102Y2409950D01*
G01X4684014Y2425700D01*
G01X4682102Y2441450D01*
G01X4676475Y2456285D01*
G01X4667463Y2469343D01*
G01X4655587Y2479864D01*
G01X4641538Y2487237D01*
G01X4626133Y2491034D01*
G01X4610267Y2491034D01*
G01X4594862Y2487237D01*
G01X4580813Y2479864D01*
G01X4568938Y2469343D01*
G01X4559925Y2456285D01*
G01X4554299Y2441450D01*
G01X4552386Y2425700D01*
G01X4552386Y2425700D01*
G01X4524190Y2425700D01*
G01X4478906Y2470984D01*
G01X4475610Y2473187D01*
G01X4471722Y2473960D01*
G01X4330106Y2473960D01*
G01X4317938Y2477589D01*
G01X4305300Y2478814D01*
G01X4292662Y2477589D01*
G01X4280494Y2473960D01*
G01X3649108Y2473960D01*
G01X3510780Y2612288D01*
G01X3934686Y2612288D01*
G01X3936598Y2596538D01*
G01X3942225Y2581703D01*
G01X3951238Y2568646D01*
G01X3963113Y2558125D01*
G01X3977162Y2550751D01*
G01X3992567Y2546954D01*
G01X4008433Y2546954D01*
G01X4023838Y2550751D01*
G01X4037887Y2558125D01*
G01X4049762Y2568646D01*
G01X4056288Y2578100D01*
G01X5598386Y2578100D01*
G01X5600298Y2562350D01*
G01X5605925Y2547515D01*
G01X5614938Y2534457D01*
G01X5626813Y2523936D01*
G01X5640862Y2516563D01*
G01X5656267Y2512766D01*
G01X5672133Y2512766D01*
G01X5687538Y2516563D01*
G01X5701587Y2523936D01*
G01X5713462Y2534457D01*
G01X5722475Y2547515D01*
G01X5728102Y2562350D01*
G01X5730014Y2578100D01*
G01X5728102Y2593850D01*
G01X5722475Y2608685D01*
G01X5713462Y2621743D01*
G01X5701587Y2632264D01*
G01X5698655Y2633802D01*
G01X5814324Y2633802D01*
G01X5816237Y2618052D01*
G01X5821863Y2603217D01*
G01X5830876Y2590159D01*
G01X5842752Y2579638D01*
G01X5856800Y2572265D01*
G01X5872205Y2568468D01*
G01X5888071Y2568468D01*
G01X5903476Y2572265D01*
G01X5917525Y2579638D01*
G01X5929401Y2590159D01*
G01X5938413Y2603217D01*
G01X5944040Y2618052D01*
G01X5945952Y2633802D01*
G01X5944040Y2649553D01*
G01X5938413Y2664387D01*
G01X5929401Y2677445D01*
G01X5917525Y2687966D01*
G01X5903476Y2695339D01*
G01X5888071Y2699136D01*
G01X5872205Y2699136D01*
G01X5856800Y2695339D01*
G01X5842752Y2687966D01*
G01X5830876Y2677445D01*
G01X5821863Y2664387D01*
G01X5816237Y2649553D01*
G01X5814324Y2633802D01*
G01X5814324Y2633802D01*
G01X5698655Y2633802D01*
G01X5687538Y2639637D01*
G01X5672133Y2643434D01*
G01X5656267Y2643434D01*
G01X5640862Y2639637D01*
G01X5626813Y2632264D01*
G01X5614938Y2621743D01*
G01X5605925Y2608685D01*
G01X5600298Y2593850D01*
G01X5598386Y2578100D01*
G01X5598386Y2578100D01*
G01X4056288Y2578100D01*
G01X4058775Y2581703D01*
G01X4064402Y2596538D01*
G01X4066314Y2612288D01*
G01X4064402Y2628039D01*
G01X4058775Y2642874D01*
G01X4049762Y2655931D01*
G01X4037887Y2666452D01*
G01X4023838Y2673826D01*
G01X4008433Y2677622D01*
G01X3992567Y2677622D01*
G01X3977162Y2673826D01*
G01X3963113Y2666452D01*
G01X3951238Y2655931D01*
G01X3942225Y2642874D01*
G01X3936598Y2628039D01*
G01X3934686Y2612288D01*
G01X3934686Y2612288D01*
G01X3510780Y2612288D01*
G01X3477514Y2645554D01*
G01X3477514Y2844800D01*
G01X3752974Y2844800D01*
G01X3754887Y2829050D01*
G01X3760513Y2814215D01*
G01X3769526Y2801157D01*
G01X3781402Y2790636D01*
G01X3795450Y2783263D01*
G01X3810855Y2779466D01*
G01X3826721Y2779466D01*
G01X3842126Y2783263D01*
G01X3856085Y2790589D01*
G01X4887186Y2790589D01*
G01X4889098Y2774838D01*
G01X4894725Y2760004D01*
G01X4903738Y2746946D01*
G01X4915613Y2736425D01*
G01X4929662Y2729052D01*
G01X4945067Y2725255D01*
G01X4960933Y2725255D01*
G01X4976338Y2729052D01*
G01X4990387Y2736425D01*
G01X5002262Y2746946D01*
G01X5011275Y2760004D01*
G01X5016902Y2774838D01*
G01X5018814Y2790589D01*
G01X5016902Y2806339D01*
G01X5011275Y2821174D01*
G01X5002262Y2834231D01*
G01X4990387Y2844753D01*
G01X4976338Y2852126D01*
G01X4960933Y2855923D01*
G01X4945067Y2855923D01*
G01X4929662Y2852126D01*
G01X4915613Y2844753D01*
G01X4903738Y2834231D01*
G01X4894725Y2821174D01*
G01X4889098Y2806339D01*
G01X4887186Y2790589D01*
G01X4887186Y2790589D01*
G01X3856085Y2790589D01*
G01X3856175Y2790636D01*
G01X3868051Y2801157D01*
G01X3877064Y2814215D01*
G01X3882690Y2829050D01*
G01X3884602Y2844800D01*
G01X3882690Y2860550D01*
G01X3877064Y2875385D01*
G01X3868051Y2888443D01*
G01X3856175Y2898964D01*
G01X3842126Y2906337D01*
G01X3826721Y2910134D01*
G01X3810855Y2910134D01*
G01X3795450Y2906337D01*
G01X3781402Y2898964D01*
G01X3769526Y2888443D01*
G01X3760513Y2875385D01*
G01X3754887Y2860550D01*
G01X3752974Y2844800D01*
G01X3752974Y2844800D01*
G01X3477514Y2844800D01*
G01X3477514Y2928798D01*
G01X5814324Y2928798D01*
G01X5816237Y2913047D01*
G01X5821863Y2898213D01*
G01X5830876Y2885155D01*
G01X5842752Y2874634D01*
G01X5856800Y2867261D01*
G01X5872205Y2863464D01*
G01X5888071Y2863464D01*
G01X5903476Y2867261D01*
G01X5917525Y2874634D01*
G01X5929401Y2885155D01*
G01X5938413Y2898213D01*
G01X5944040Y2913047D01*
G01X5945952Y2928798D01*
G01X5944040Y2944548D01*
G01X5938413Y2959383D01*
G01X5929401Y2972441D01*
G01X5917525Y2982962D01*
G01X5903476Y2990335D01*
G01X5888071Y2994132D01*
G01X5872205Y2994132D01*
G01X5856800Y2990335D01*
G01X5842752Y2982962D01*
G01X5830876Y2972441D01*
G01X5821863Y2959383D01*
G01X5816237Y2944548D01*
G01X5814324Y2928798D01*
G01X5814324Y2928798D01*
G01X3477514Y2928798D01*
G01X3477514Y3526104D01*
G01X3911877Y3526104D01*
G01X3913789Y3510354D01*
G01X3919415Y3495519D01*
G01X3928428Y3482461D01*
G01X3940304Y3471940D01*
G01X3954353Y3464567D01*
G01X3969758Y3460770D01*
G01X3985624Y3460770D01*
G01X4001029Y3464567D01*
G01X4015077Y3471940D01*
G01X4026953Y3482461D01*
G01X4035966Y3495519D01*
G01X4041592Y3510354D01*
G01X4043505Y3526104D01*
G01X4041592Y3541855D01*
G01X4035966Y3556689D01*
G01X4026953Y3569747D01*
G01X4015077Y3580268D01*
G01X4001029Y3587641D01*
G01X3985624Y3591438D01*
G01X3969758Y3591438D01*
G01X3954353Y3587641D01*
G01X3940304Y3580268D01*
G01X3928428Y3569747D01*
G01X3919415Y3556689D01*
G01X3913789Y3541855D01*
G01X3911877Y3526104D01*
G01X3911877Y3526104D01*
G01X3477514Y3526104D01*
G01X3477514Y3530600D01*
G01X3477260Y3534858D01*
G01X3477260Y3581400D01*
G01X3476487Y3585288D01*
G01X3474284Y3588584D01*
G01X3436184Y3626684D01*
G01X3432888Y3628887D01*
G01X3429000Y3629660D01*
G01X2375198Y3629660D01*
G01X2371377Y3628914D01*
G01X2368117Y3626786D01*
G01X2337496Y3597024D01*
G01X2335218Y3593693D01*
G01X2334417Y3589738D01*
G37*
G54D10*
G01X4571091Y1445260D02*
G01X3659164Y1445260D01*
G03X3629903Y1570025I-29261J58951D01*
G03X3600641Y1445260I0J-65814D01*
G01X3070860Y1445260D01*
G01X3070860Y2032000D01*
G03X3067884Y2039184I-10160J0D01*
G01X2991684Y2115384D01*
G03X2984500Y2118360I-7184J-7184D01*
G01X2607708Y2118360D01*
G01X2448560Y2277508D01*
G01X2448560Y3520440D01*
G01X3431540Y3520440D01*
G01X3431540Y2552700D01*
G03X3434516Y2545516I10160J0D01*
G01X3597933Y2382099D01*
G03X3605117Y2379123I7184J7184D01*
G01X4248875Y2379123D01*
G03X4361725Y2379123I56425J33877D01*
G01X4463657Y2379123D01*
G01X4581753Y2261027D01*
G03X4546773Y2239152I15647J-63927D01*
G03X4418853Y2236777I-63673J-16652D01*
G03X4533727Y2180448I64247J-14277D01*
G03X4661327Y2181453I63673J16652D01*
G01X4688840Y2153940D01*
G01X4688840Y1515609D01*
G01X4593901Y1446170D01*
G01X4571091Y1445260D01*
G01X3159986Y3365500D02*
G03X3291614Y3365500I65814J0D01*
G03X3159986Y3365500I-65814J0D01*
G01X3248886Y3022600D02*
G03X3380514Y3022600I65814J0D01*
G03X3248886Y3022600I-65814J0D01*
G01X3252680Y2319685D02*
G03X3354196Y2264396I65814J0D01*
G03X3455712Y2319685I35702J55289D01*
G03X3354196Y2374974I-65814J0D01*
G03X3252680Y2319685I-35702J-55289D01*
G01X2334417Y3589738D02*
G01X2334417Y2297604D01*
G03X2275183Y2220472I5558J-65579D01*
G03X2357425Y2168567I64792J11553D01*
G01X2508678Y2017313D01*
G03X2515863Y2014337I7184J7184D01*
G01X2911594Y2014337D01*
G01X2936240Y1989692D01*
G01X2936240Y1396976D01*
G03X2939216Y1389792I10160J0D01*
G01X2991592Y1337416D01*
G03X2998777Y1334440I7184J7184D01*
G01X3621410Y1334440D01*
G03X3644913Y1207152I23503J-61474D01*
G03X3668415Y1334440I0J65814D01*
G01X3680392Y1334440D01*
G01X3710940Y1303892D01*
G01X3710940Y35814D01*
G01X35814Y35814D01*
G01X35814Y7965186D01*
G01X2938558Y7965186D01*
G01X3194672Y7709071D01*
G01X3194672Y7419542D01*
G03X3159986Y7361555I31128J-57987D01*
G03X3194672Y7303568I65814J0D01*
G01X3194672Y7149518D01*
G03X3089337Y7095057I-39548J-52607D01*
G03X2999060Y7058865I-28637J-59257D01*
G03X3043402Y6972300I61640J-23065D01*
G03X3012165Y6864350I17298J-63500D01*
G03X3038339Y6758001I48535J-44450D01*
G03X3041451Y6627413I9661J-65101D01*
G03X3070361Y6754799I6549J65487D01*
G03X3109235Y6864350I-9661J65101D01*
G03X3077998Y6972300I-48535J44450D01*
G03X3126488Y7037654I-17298J63500D01*
G03X3194672Y7044305I28637J59257D01*
G01X3194672Y6593346D01*
G03X3168086Y6540500I39228J-52846D01*
G03X3194672Y6487654I65814J0D01*
G01X3194672Y6355578D01*
G03X3078809Y6312840I-50049J-42738D01*
G03X3194672Y6270102I65814J0D01*
G01X3194672Y5988202D01*
G03X3166641Y5996571I-32372J-57302D01*
G03X3082067Y6091366I-55141J35929D01*
G03X3107159Y5966829I29433J-58866D01*
G03X3114314Y5885857I55141J-35929D01*
G03X3194672Y5873598I47986J45043D01*
G01X3194672Y5611698D01*
G03X3172686Y5562600I43828J-49098D01*
G03X3194672Y5513502I65814J0D01*
G01X3194672Y5380368D01*
G03X3197648Y5373183I10160J0D01*
G01X3269416Y5301416D01*
G03X3276600Y5298440I7184J7184D01*
G01X3909969Y5298440D01*
G03X3890660Y5243994I46081J-46990D01*
G03X3876266Y5126075I20940J-62394D01*
G03X3976990Y5189056I35334J55525D01*
G03X4002131Y5298440I-20940J62394D01*
G01X5235634Y5298440D01*
G03X5245794Y5308600I0J10160D01*
G01X5245794Y7211857D01*
G01X5373047Y7339111D01*
G01X6000209Y7339111D01*
G01X6000209Y35814D01*
G01X3743960Y35814D01*
G01X3743960Y1316592D01*
G01X3763408Y1336040D01*
G01X4610440Y1336040D01*
G03X4617624Y1339016I0J10160D01*
G01X4706184Y1427576D01*
G03X4709160Y1434760I-7184J7184D01*
G01X4709160Y1473513D01*
G01X4720143Y1481546D01*
G03X4734814Y1510453I-21143J28907D01*
G01X4734814Y2158148D01*
G03X4724324Y2183473I-35814J0D01*
G01X4709160Y2198637D01*
G01X4709160Y2236522D01*
G03X4706184Y2243706I-10160J0D01*
G01X4478906Y2470984D01*
G03X4471722Y2473960I-7184J-7184D01*
G01X4330106Y2473960D01*
G03X4280494Y2473960I-24806J-60960D01*
G01X3649108Y2473960D01*
G01X3477514Y2645554D01*
G01X3477514Y3530600D01*
G03X3477260Y3534858I-35814J0D01*
G01X3477260Y3581400D01*
G03X3474284Y3588584I-10160J0D01*
G01X3436184Y3626684D01*
G03X3429000Y3629660I-7184J-7184D01*
G01X2375198Y3629660D01*
G03X2368117Y3626786I0J-10160D01*
G01X2337496Y3597024D01*
G03X2334417Y3589738I7081J-7286D01*
G01X86586Y1701800D02*
G03X218214Y1701800I65814J0D01*
G03X86586Y1701800I-65814J0D01*
G01X88810Y1497418D02*
G03X220437Y1497418I65814J0D01*
G03X88810Y1497418I-65814J0D01*
G01X89916Y7715250D02*
G03X481584Y7715250I195834J0D01*
G03X89916Y7715250I-195834J0D01*
G01X91855Y292565D02*
G03X483523Y292565I195834J0D01*
G03X91855Y292565I-195834J0D01*
G01X366791Y7360925D02*
G01X306791Y7360925D01*
G03X306791Y7169297I0J-95814D01*
G01X366791Y7169297D01*
G03X366791Y7360925I0J95814D01*
G01X366791Y6495903D02*
G01X306791Y6495903D01*
G03X306791Y6304275I0J-95814D01*
G01X366791Y6304275D01*
G03X366791Y6495903I0J95814D01*
G01X248705Y1701800D02*
G03X380333Y1701800I65814J0D01*
G03X248705Y1701800I-65814J0D01*
G01X248705Y1497418D02*
G03X380333Y1497418I65814J0D01*
G03X248705Y1497418I-65814J0D01*
G01X346936Y2482850D02*
G03X478564Y2482850I65814J0D01*
G03X346936Y2482850I-65814J0D01*
G01X365948Y4465498D02*
G03X497576Y4465498I65814J0D01*
G03X365948Y4465498I-65814J0D01*
G01X365948Y4170502D02*
G03X497576Y4170502I65814J0D01*
G03X365948Y4170502I-65814J0D01*
G01X414704Y1701255D02*
G03X546332Y1701255I65814J0D01*
G03X414704Y1701255I-65814J0D01*
G01X414704Y1497418D02*
G03X546332Y1497418I65814J0D01*
G03X414704Y1497418I-65814J0D01*
G01X543786Y3797300D02*
G03X675414Y3797300I65814J0D01*
G03X543786Y3797300I-65814J0D01*
G01X543786Y3251200D02*
G03X675414Y3251200I65814J0D01*
G03X543786Y3251200I-65814J0D01*
G01X543786Y3467100D02*
G03X675414Y3467100I65814J0D01*
G03X543786Y3467100I-65814J0D01*
G01X714774Y6304275D02*
G01X794774Y6304275D01*
G03X794774Y6495903I0J95814D01*
G01X761273Y6495903D01*
G03X693996Y6615128I-56512J46706D01*
G03X664253Y6481501I10765J-72520D01*
G03X714774Y6304275I50521J-81412D01*
G01X794774Y7169297D02*
G03X794774Y7360925I0J95814D01*
G01X714774Y7360925D01*
G03X664253Y7183699I0J-95814D01*
G03X693996Y7050072I40508J-61107D01*
G03X761273Y7169297I10765J72520D01*
G01X794774Y7169297D01*
G01X632686Y4622000D02*
G03X764314Y4622000I65814J0D01*
G03X632686Y4622000I-65814J0D01*
G01X823186Y4932036D02*
G03X954814Y4932036I65814J0D01*
G03X823186Y4932036I-65814J0D01*
G01X861286Y2387600D02*
G03X992914Y2387600I65814J0D01*
G03X861286Y2387600I-65814J0D01*
G01X924786Y6692900D02*
G03X1056414Y6692900I65814J0D01*
G03X924786Y6692900I-65814J0D01*
G01X975586Y7264400D02*
G03X1107214Y7264400I65814J0D01*
G03X975586Y7264400I-65814J0D01*
G01X1039086Y787400D02*
G03X1170714Y787400I65814J0D01*
G03X1039086Y787400I-65814J0D01*
G01X1166086Y7073900D02*
G03X1297714Y7073900I65814J0D01*
G03X1166086Y7073900I-65814J0D01*
G01X1244885Y1165801D02*
G03X1376513Y1165801I65814J0D01*
G03X1244885Y1165801I-65814J0D01*
G01X1247582Y3719309D02*
G03X1379210Y3719309I65814J0D01*
G03X1247582Y3719309I-65814J0D01*
G01X1247582Y3113316D02*
G03X1379210Y3113316I65814J0D01*
G03X1247582Y3113316I-65814J0D01*
G01X1250002Y5247432D02*
G03X1381630Y5247432I65814J0D01*
G03X1250002Y5247432I-65814J0D01*
G01X1254986Y6616700D02*
G03X1386614Y6616700I65814J0D01*
G03X1254986Y6616700I-65814J0D01*
G01X1267386Y5717332D02*
G03X1399014Y5717332I65814J0D01*
G03X1267386Y5717332I-65814J0D01*
G01X1442266Y987029D02*
G03X1320439Y952460I-56013J-34554D01*
G03X1442282Y917946I65814J15D01*
G03X1548421Y909852I56013J34554D01*
G03X1664382Y952458I50147J42623D01*
G03X1548443Y995123I-65814J17D01*
G03X1442266Y987029I-50147J-42623D01*
G01X1369287Y7016954D02*
G03X1500915Y7016954I65814J0D01*
G03X1369287Y7016954I-65814J0D01*
G01X1502636Y1720850D02*
G03X1634264Y1720850I65814J0D01*
G03X1502636Y1720850I-65814J0D01*
G01X1665118Y6834899D02*
G03X1597889Y6769679I-1418J-65799D01*
G03X1571786Y6654208I15011J-64079D01*
G03X1678711Y6705021I41114J51392D01*
G03X1729426Y6765697I-15011J64079D01*
G03X1795205Y6817740I1418J65799D01*
G03X1840423Y6926518I-4505J65660D01*
G03X1726340Y6897155I-49723J-43118D01*
G03X1665118Y6834899I4505J-65660D01*
G01X1559786Y2015388D02*
G03X1691414Y2015388I65814J0D01*
G03X1559786Y2015388I-65814J0D01*
G01X1585186Y5524500D02*
G03X1716814Y5524500I65814J0D01*
G03X1585186Y5524500I-65814J0D01*
G01X1605404Y1511300D02*
G03X1737032Y1511300I65814J0D01*
G03X1605404Y1511300I-65814J0D01*
G01X1623286Y6438900D02*
G03X1754914Y6438900I65814J0D01*
G03X1623286Y6438900I-65814J0D01*
G01X1662810Y7479561D02*
G03X1761515Y7422555I65814J0D01*
G03X1828036Y7422988I32891J57006D01*
G03X1927480Y7479561I33630J56573D01*
G03X1828036Y7536133I-65814J0D01*
G03X1761515Y7536566I-33630J-56573D01*
G03X1662810Y7479561I-32891J-57006D01*
G01X1663886Y4712036D02*
G03X1795514Y4712036I65814J0D01*
G03X1663886Y4712036I-65814J0D01*
G01X1903685Y3857414D02*
G03X1794116Y3928543I-59185J28786D01*
G03X1670515Y3970822I-64416J13493D01*
G03X1780084Y3899693I59185J-28786D01*
G03X1903685Y3857414I64416J-13493D01*
G01X2108114Y203200D02*
G03X1892300Y261620I-115814J0D01*
G03X1676486Y203200I-100000J-58420D01*
G03X1892300Y144780I115814J0D01*
G03X2108114Y203200I100000J58420D01*
G01X1737586Y5377036D02*
G03X1869214Y5377036I65814J0D01*
G03X1737586Y5377036I-65814J0D01*
G01X1750286Y4932036D02*
G03X1881914Y4932036I65814J0D01*
G03X1750286Y4932036I-65814J0D01*
G01X1764286Y5159580D02*
G03X1895914Y5159580I65814J0D01*
G03X1764286Y5159580I-65814J0D01*
G01X1813786Y6057900D02*
G03X1945414Y6057900I65814J0D01*
G03X1813786Y6057900I-65814J0D01*
G01X1847974Y7061200D02*
G03X1979602Y7061200I65814J0D01*
G03X1847974Y7061200I-65814J0D01*
G01X1851886Y2019300D02*
G03X1983514Y2019300I65814J0D01*
G03X1851886Y2019300I-65814J0D01*
G01X1851886Y1524000D02*
G03X1983514Y1524000I65814J0D01*
G03X1851886Y1524000I-65814J0D01*
G01X2137003Y7595370D02*
G03X2103656Y7695122I-54203J37330D01*
G03X2017044Y7635449I-20856J-62422D01*
G03X1952900Y7558396I703J-65810D01*
G03X2039239Y7507433I64846J11243D01*
G03X2086594Y7483468I50873J41754D01*
G03X2102852Y7456074I63043J18895D01*
G03X2142761Y7365490I59653J-27802D01*
G03X2227334Y7416927I19744J62783D01*
G03X2286874Y7496254I-4834J65636D01*
G03X2200205Y7544486I-64374J-13691D01*
G03X2153156Y7568083I-50568J-42123D01*
G03X2137003Y7595370I-63043J-18895D01*
G01X1953486Y2374900D02*
G03X2085114Y2374900I65814J0D01*
G03X1953486Y2374900I-65814J0D01*
G01X2043886Y3687036D02*
G03X2175514Y3687036I65814J0D01*
G03X2043886Y3687036I-65814J0D01*
G01X2053886Y4072036D02*
G03X2185514Y4072036I65814J0D01*
G03X2053886Y4072036I-65814J0D01*
G01X2092686Y1511300D02*
G03X2225314Y1511300I66314J0D01*
G03X2092686Y1511300I-66314J0D01*
G01X2194786Y6846389D02*
G03X2317750Y6813749I65814J0D01*
G03X2430310Y6810875I57150J32640D01*
G03X2551533Y6846389I55410J35514D01*
G03X2430310Y6881903I-65814J0D01*
G03X2317750Y6879029I-55410J-35514D01*
G03X2194786Y6846389I-57150J-32640D01*
G01X2194786Y7048500D02*
G03X2315637Y7012412I65814J0D01*
G03X2428129Y7016399I55037J36088D01*
G03X2551397Y7048500I57454J32101D01*
G03X2428129Y7080601I-65814J0D01*
G03X2315637Y7084588I-57454J-32101D01*
G03X2194786Y7048500I-55037J-36088D01*
G01X2258285Y1606754D02*
G03X2389913Y1606754I65814J0D01*
G03X2258285Y1606754I-65814J0D01*
G01X2270986Y5486400D02*
G03X2402614Y5486400I65814J0D01*
G03X2270986Y5486400I-65814J0D01*
G01X2283886Y4672036D02*
G03X2415514Y4672036I65814J0D01*
G03X2283886Y4672036I-65814J0D01*
G01X2373094Y5405663D02*
G03X2484070Y5350111I65306J-8163D01*
G03X2605306Y5376637I55930J34689D01*
G03X2494330Y5432189I-65306J8163D01*
G03X2373094Y5405663I-55930J-34689D01*
G01X2378936Y7550150D02*
G03X2510564Y7550150I65814J0D01*
G03X2378936Y7550150I-65814J0D01*
G01X2463886Y4312036D02*
G03X2595514Y4312036I65814J0D01*
G03X2463886Y4312036I-65814J0D01*
G01X2503493Y6346039D02*
G03X2604733Y6412678I36507J54761D01*
G03X2627307Y6531761I-13933J64322D01*
G03X2526067Y6465122I-36507J-54761D01*
G03X2503493Y6346039I13933J-64322D01*
G01X2493886Y3897036D02*
G03X2625514Y3897036I65814J0D01*
G03X2493886Y3897036I-65814J0D01*
G01X2499586Y7277100D02*
G03X2631214Y7277100I65814J0D01*
G03X2499586Y7277100I-65814J0D01*
G01X2933614Y203200D02*
G03X2717800Y261620I-115814J0D01*
G03X2501986Y203200I-100000J-58420D01*
G03X2717800Y144780I115814J0D01*
G03X2933614Y203200I100000J58420D01*
G01X2554298Y7505700D02*
G03X2685926Y7505700I65814J0D01*
G03X2554298Y7505700I-65814J0D01*
G01X2651986Y7112000D02*
G03X2783614Y7112000I65814J0D01*
G03X2651986Y7112000I-65814J0D01*
G01X2672336Y5692186D02*
G03X2803964Y5692186I65814J0D01*
G03X2672336Y5692186I-65814J0D01*
G01X2677386Y6210300D02*
G03X2809014Y6210300I65814J0D01*
G03X2677386Y6210300I-65814J0D01*
G01X2690086Y5384800D02*
G03X2821714Y5384800I65814J0D01*
G03X2690086Y5384800I-65814J0D01*
G01X2722586Y5194300D02*
G03X2854214Y5194300I65814J0D01*
G03X2722586Y5194300I-65814J0D01*
G01X2847002Y6768480D02*
G03X2833353Y6639930I5498J-65584D01*
G03X2893580Y6754316I19148J62967D01*
G03X2907230Y6882867I-5498J65584D01*
G03X2847002Y6768480I-19148J-62967D01*
G01X2791686Y6311900D02*
G03X2923314Y6311900I65814J0D01*
G03X2791686Y6311900I-65814J0D01*
G01X2939700Y4066222D02*
G03X2966746Y4192036I0J65814D01*
G03X2939700Y4317850I-27046J60000D01*
G03X2912654Y4192036I0J-65814D01*
G03X2939700Y4066222I27046J-60000D01*
G01X2918686Y7547712D02*
G03X3050314Y7547712I65814J0D01*
G03X2918686Y7547712I-65814J0D01*
G01X2956786Y5435600D02*
G03X3088414Y5435600I65814J0D01*
G03X2956786Y5435600I-65814J0D01*
G01X2982186Y5118100D02*
G03X3113814Y5118100I65814J0D01*
G03X2982186Y5118100I-65814J0D01*
G01X3012768Y7239000D02*
G03X3144396Y7239000I65814J0D01*
G03X3012768Y7239000I-65814J0D01*
G01X3109186Y762000D02*
G03X3240814Y762000I65814J0D01*
G03X3109186Y762000I-65814J0D01*
G01X3632114Y203200D02*
G03X3416300Y261620I-115814J0D01*
G03X3200486Y203200I-100000J-58420D01*
G03X3416300Y144780I115814J0D01*
G03X3632114Y203200I100000J58420D01*
G01X3236186Y4787900D02*
G03X3367814Y4787900I65814J0D01*
G03X3236186Y4787900I-65814J0D01*
G01X3254486Y4968665D02*
G03X3386114Y4968665I65814J0D01*
G03X3254486Y4968665I-65814J0D01*
G01X3299686Y3975100D02*
G03X3431314Y3975100I65814J0D01*
G03X3299686Y3975100I-65814J0D01*
G01X3346978Y1037891D02*
G03X3478605Y1037891I65814J0D01*
G03X3346978Y1037891I-65814J0D01*
G01X3363186Y4648200D02*
G03X3494814Y4648200I65814J0D01*
G03X3363186Y4648200I-65814J0D01*
G01X3386444Y4940300D02*
G03X3518072Y4940300I65814J0D01*
G03X3386444Y4940300I-65814J0D01*
G01X3609530Y4055300D02*
G03X3581568Y4180614I-28130J59500D01*
G03X3502470Y4281751I-50968J41638D01*
G03X3530432Y4156438I28130J-59500D01*
G03X3609530Y4055300I50968J-41638D01*
G01X3752974Y2844800D02*
G03X3884602Y2844800I65814J0D01*
G03X3752974Y2844800I-65814J0D01*
G01X3833086Y1270000D02*
G03X3964714Y1270000I65814J0D01*
G03X3833086Y1270000I-65814J0D01*
G01X3845786Y4521200D02*
G03X3977414Y4521200I65814J0D01*
G03X3845786Y4521200I-65814J0D01*
G01X4303700Y678180D02*
G03X4519513Y736600I100000J58420D01*
G03X4303700Y795020I-115814J0D01*
G03X4103700Y795020I-100000J-58420D01*
G03X3887887Y736600I-100000J-58420D01*
G03X4103700Y678180I115814J0D01*
G03X4303700Y678180I100000J58420D01*
G01X4203700Y87386D02*
G03X4303700Y144780I0J115814D01*
G03X4512779Y164283I100000J58420D01*
G03X4363262Y311725I-109079J38917D01*
G03X4304375Y408707I-57962J31175D01*
G03X4248237Y310108I925J-65807D01*
G03X4200275Y318963I-44537J-106908D01*
G03X4168993Y446152I-21975J62037D01*
G03X4174574Y315292I9307J-65152D01*
G03X4103700Y261620I29126J-112092D01*
G03X3887887Y203200I-100000J-58420D01*
G03X4103700Y144780I115814J0D01*
G03X4203700Y87386I100000J58420D01*
G01X3889486Y4228985D02*
G03X4021114Y4228985I65814J0D01*
G03X3889486Y4228985I-65814J0D01*
G01X3911877Y3526104D02*
G03X4043505Y3526104I65814J0D01*
G03X3911877Y3526104I-65814J0D01*
G01X3933822Y1181100D02*
G03X4065450Y1181100I65814J0D01*
G03X3933822Y1181100I-65814J0D01*
G01X3934686Y2612288D02*
G03X4066314Y2612288I65814J0D01*
G03X3934686Y2612288I-65814J0D01*
G01X4069255Y4343400D02*
G03X4200883Y4343400I65814J0D01*
G03X4069255Y4343400I-65814J0D01*
G01X4479186Y523900D02*
G03X4610814Y523900I65814J0D01*
G03X4479186Y523900I-65814J0D01*
G01X4552386Y2425700D02*
G03X4684014Y2425700I65814J0D01*
G03X4552386Y2425700I-65814J0D01*
G01X5154600Y678180D02*
G03X5370413Y736600I100000J58420D01*
G03X5154600Y795020I-115814J0D01*
G03X4954600Y795020I-100000J-58420D01*
G03X4738787Y736600I-100000J-58420D01*
G03X4954600Y678180I115814J0D01*
G03X5154600Y678180I100000J58420D01*
G01X5370413Y215900D02*
G03X5154600Y274320I-115814J0D01*
G03X4954600Y274320I-100000J-58420D01*
G03X4738787Y215900I-100000J-58420D01*
G03X4954600Y157480I115814J0D01*
G03X5154600Y157480I100000J58420D01*
G03X5370413Y215900I100000J58420D01*
G01X4887186Y2790589D02*
G03X5018814Y2790589I65814J0D01*
G03X4887186Y2790589I-65814J0D01*
G01X5213474Y3938004D02*
G03X5345102Y3938004I65814J0D01*
G03X5213474Y3938004I-65814J0D01*
G01X5230086Y4927600D02*
G03X5361714Y4927600I65814J0D01*
G03X5230086Y4927600I-65814J0D01*
G01X5280886Y6781800D02*
G03X5412514Y6781800I65814J0D01*
G03X5280886Y6781800I-65814J0D01*
G01X5293586Y6273800D02*
G03X5425214Y6273800I65814J0D01*
G03X5293586Y6273800I-65814J0D01*
G01X5331686Y1498600D02*
G03X5463314Y1498600I65814J0D01*
G03X5331686Y1498600I-65814J0D01*
G01X5363436Y6089650D02*
G03X5495064Y6089650I65814J0D01*
G03X5363436Y6089650I-65814J0D01*
G01X5395186Y6908800D02*
G03X5526814Y6908800I65814J0D01*
G03X5395186Y6908800I-65814J0D01*
G01X5407886Y7124700D02*
G03X5539514Y7124700I65814J0D01*
G03X5407886Y7124700I-65814J0D01*
G01X5407886Y1803400D02*
G03X5539514Y1803400I65814J0D01*
G03X5407886Y1803400I-65814J0D01*
G01X5433286Y2159000D02*
G03X5564914Y2159000I65814J0D01*
G03X5433286Y2159000I-65814J0D01*
G01X5469667Y6248640D02*
G03X5576787Y6309603I42133J50560D01*
G03X5617433Y6425960I-1487J65797D01*
G03X5510313Y6364997I-42133J-50560D01*
G03X5469667Y6248640I1487J-65797D01*
G01X5445986Y5905500D02*
G03X5577614Y5905500I65814J0D01*
G03X5445986Y5905500I-65814J0D01*
G01X5563616Y285750D02*
G03X5955284Y285750I195834J0D01*
G03X5563616Y285750I-195834J0D01*
G01X5598386Y2578100D02*
G03X5730014Y2578100I65814J0D01*
G03X5598386Y2578100I-65814J0D01*
G01X5649186Y1166520D02*
G03X5780814Y1166520I65814J0D01*
G03X5649186Y1166520I-65814J0D01*
G01X5649186Y1854200D02*
G03X5780814Y1854200I65814J0D01*
G03X5649186Y1854200I-65814J0D01*
G01X5649186Y1549400D02*
G03X5780814Y1549400I65814J0D01*
G03X5649186Y1549400I-65814J0D01*
G01X5817397Y4430090D02*
G03X5874742Y4533926I3699J65710D01*
G03X5948877Y4641606I30758J58184D01*
G03X5851854Y4553984I-43377J-49496D01*
G03X5789428Y4553494I-30758J-58184D01*
G03X5699467Y4648936I-49028J43906D01*
G03X5772068Y4539706I40933J-51536D01*
G03X5817397Y4430090I49028J-43906D01*
G01X5674586Y4371906D02*
G03X5806214Y4371906I65814J0D01*
G03X5674586Y4371906I-65814J0D01*
G01X5869000Y3935313D02*
G03X5810580Y3719500I0J-115814D01*
G03X5869000Y3503686I58420J-100000D01*
G03X5927420Y3719500I0J115814D01*
G03X5869000Y3935313I-58420J100000D01*
G01X5814324Y2633802D02*
G03X5945952Y2633802I65814J0D01*
G03X5814324Y2633802I-65814J0D01*
G01X5814324Y2928798D02*
G03X5945952Y2928798I65814J0D01*
G03X5814324Y2928798I-65814J0D01*
G01X5839686Y4368800D02*
G03X5971314Y4368800I65814J0D01*
G03X5839686Y4368800I-65814J0D01*
G04 Copper End*

G04 Pad Start*
G54D11*
G01X2567000Y203200D03*
G01X2767000Y203200D03*
G01X1792300Y203200D03*
G01X1992300Y203200D03*
G01X3316300Y203200D03*
G01X3516300Y203200D03*
G01X4203700Y736600D03*
G01X4403700Y736600D03*
G01X4003700Y736600D03*
G54D12*
G01X336791Y6400089D03*
G54D13*
G01X754774Y6400089D03*
G01X754774Y7265111D03*
G54D12*
G01X336791Y7265111D03*
G54D14*
G01X287689Y292565D03*
G01X5759450Y285750D03*
G01X5772150Y7702550D03*
G01X285750Y7715250D03*
G54D11*
G01X5054600Y736600D03*
G01X5254600Y736600D03*
G01X4854600Y736600D03*
G01X5054600Y215900D03*
G01X5254600Y215900D03*
G01X4854600Y215900D03*
G01X5869000Y3619500D03*
G01X5869000Y3819500D03*
G01X4203700Y203200D03*
G01X4403700Y203200D03*
G01X4003700Y203200D03*
G04 Pad End*

G04 Via Start*
G54D15*
G01X2159000Y1511300D03*
G54D17*
G01X1104900Y787400D03*
G01X927100Y2387600D03*
G01X1917700Y2019300D03*
G01X2090112Y7549188D03*
G01X2149637Y7502363D03*
G01X1663700Y6769100D03*
G01X1730844Y6831496D03*
G01X1790700Y6883400D03*
G01X1612900Y6705600D03*
G01X2162505Y7428272D03*
G01X2222500Y7482563D03*
G01X2082800Y7632700D03*
G01X2017747Y7569639D03*
G01X990600Y6692900D03*
G01X1231900Y7073900D03*
G01X2260600Y7048500D03*
G01X2370675Y7048500D03*
G01X2485584Y7048500D03*
G01X2260600Y6846389D03*
G01X2374900Y6846389D03*
G01X2485719Y6846389D03*
G01X3955300Y4228985D03*
G01X2738150Y5692186D03*
G01X3302000Y4787900D03*
G01X2336800Y5486400D03*
G01X1651000Y5524500D03*
G01X3060700Y7035800D03*
G01X3060700Y6908800D03*
G01X4940300Y6819900D03*
G01X5016500Y6731000D03*
G01X5359400Y6273800D03*
G01X5429250Y6089650D03*
G01X5511800Y5905500D03*
G01X5473700Y1803400D03*
G01X5499100Y2159000D03*
G01X5397500Y1498600D03*
G01X4142588Y6429388D03*
G01X4282592Y6289383D03*
G01X4002583Y6289383D03*
G01X3983989Y6569393D03*
G01X4282592Y6569393D03*
G01X3530600Y4222252D03*
G01X609600Y3797300D03*
G01X3048000Y5118100D03*
G01X3452258Y4940300D03*
G01X3581400Y4114800D03*
G01X3365500Y3975100D03*
G01X609600Y3467100D03*
G01X609600Y3251200D03*
G01X2529700Y4312036D03*
G01X2349700Y4672036D03*
G01X2119700Y4072036D03*
G01X2939700Y4132036D03*
G01X2939700Y4252036D03*
G01X2559700Y3897036D03*
G01X2109700Y3687036D03*
G01X1313396Y3719309D03*
G01X1313396Y3113316D03*
G01X2717800Y7112000D03*
G01X2565400Y7277100D03*
G01X2590800Y6477000D03*
G01X3078582Y7239000D03*
G01X4838700Y5736990D03*
G01X3111500Y6032500D03*
G01X3162300Y5930900D03*
G01X2788400Y5194300D03*
G01X1844500Y3886200D03*
G01X3314700Y3022600D03*
G01X3873500Y5638800D03*
G01X3714000Y5727700D03*
G01X3784600Y5582739D03*
G01X3956050Y5251450D03*
G01X3911600Y5181600D03*
G01X2324099Y1606754D03*
G01X1671218Y1511300D03*
G01X1625600Y2015388D03*
G01X3999636Y1181100D03*
G01X1729700Y3942036D03*
G01X1729700Y4712036D03*
G01X1333200Y5717332D03*
G01X1315816Y5247432D03*
G01X1521401Y4669836D03*
G01X1913788Y7061200D03*
G01X1041400Y7264400D03*
G01X1435101Y7016954D03*
G01X1320800Y6616700D03*
G01X3238500Y5562600D03*
G01X3911600Y4521200D03*
G01X4724400Y5664200D03*
G01X3412791Y1037891D03*
G01X1887118Y6934200D03*
G01X3225800Y7361555D03*
G01X3155125Y7096912D03*
G01X2857500Y6311900D03*
G01X2870200Y6388100D03*
G01X3139532Y6683251D03*
G01X5511800Y6299200D03*
G01X5575300Y6375400D03*
G01X4305300Y342900D03*
G01X3233900Y6540500D03*
G01X4953000Y2790589D03*
G01X5880138Y2928798D03*
G01X5880138Y2633802D03*
G01X5821096Y4495800D03*
G01X5740400Y4597400D03*
G01X5740400Y4371906D03*
G01X5905500Y4368800D03*
G01X5905500Y4592110D03*
G01X4135069Y4343400D03*
G01X5279288Y3938004D03*
G01X4178300Y381000D03*
G01X5715000Y1854200D03*
G01X5715000Y1549400D03*
G01X5715000Y1166520D03*
G01X5295900Y4165600D03*
G01X431762Y4170502D03*
G01X431762Y4465498D03*
G01X3320300Y4968665D03*
G01X3606800Y5156200D03*
G01X3022600Y5435600D03*
G01X3644913Y1272965D03*
G01X3898900Y1270000D03*
G01X3629903Y1504211D03*
G01X3302000Y1498600D03*
G01X4083211Y2158658D03*
G01X4000500Y2159000D03*
G01X2578100Y1866900D03*
G01X2650544Y1866900D03*
G01X2732933Y1866900D03*
G01X2944028Y1911797D03*
G01X2873096Y1911797D03*
G01X2873096Y1834640D03*
G01X2946331Y1834640D03*
G01X1794406Y7479561D03*
G01X1728624Y7479561D03*
G01X1861666Y7479561D03*
G01X2743200Y6210300D03*
G01X2540000Y6400800D03*
G01X2438400Y5397500D03*
G01X2540000Y5384800D03*
G01X2755900Y5384800D03*
G01X1803400Y5377036D03*
G01X1879600Y6057900D03*
G01X1689100Y6438900D03*
G01X5346700Y6781800D03*
G01X698500Y4622000D03*
G01X5664200Y2578100D03*
G01X1917700Y1524000D03*
G01X1568450Y1720850D03*
G01X152400Y1701800D03*
G01X314519Y1701800D03*
G01X314519Y1497418D03*
G01X154624Y1497418D03*
G01X480518Y1497418D03*
G01X480518Y1701255D03*
G01X1310699Y1165801D03*
G01X412750Y2482850D03*
G01X2339975Y2232025D03*
G01X3389898Y2319685D03*
G01X3318494Y2319685D03*
G01X2620112Y7505700D03*
G01X3187700Y7226300D03*
G01X1803400Y7856855D03*
G01X1718868Y7856855D03*
G01X1885988Y7856855D03*
G01X2984500Y7547712D03*
G01X3144623Y6312840D03*
G01X3048000Y6692900D03*
G01X3060700Y6819900D03*
G01X3581400Y6845300D03*
G01X4597400Y2197100D03*
G01X4246982Y5219700D03*
G01X4618200Y2425700D03*
G01X4152900Y5600700D03*
G01X4305300Y2413000D03*
G01X4483100Y2222500D03*
G01X4545000Y523900D03*
G01X5295900Y4927600D03*
G01X2852501Y6702896D03*
G01X2888082Y6819900D03*
G01X2444750Y7550150D03*
G01X3818788Y2844800D03*
G01X4000500Y2612288D03*
G01X3977691Y3526104D03*
G01X3429000Y4648200D03*
G01X1830100Y5159580D03*
G01X3665118Y3022600D03*
G01X3708400Y2705100D03*
G01X2578100Y3124200D03*
G01X2644377Y3124200D03*
G01X2710145Y3124200D03*
G01X2775912Y3124200D03*
G01X3225800Y3365500D03*
G01X1498295Y952500D03*
G01X1598568Y952475D03*
G01X1386253Y952475D03*
G01X2019300Y2374900D03*
G01X3175000Y762000D03*
G01X1816100Y4932036D03*
G01X889000Y4932036D03*
G01X5664200Y6680200D03*
G01X5664200Y6235700D03*
G01X5473700Y7124700D03*
G01X5461000Y6908800D03*
G01X2222500Y7378700D03*
G01X1536700Y6489700D03*
G01X2628900Y6019800D03*
G01X2654300Y5626100D03*
G01X4965700Y5003800D03*
G04 Via End*

M02*

